<?xml version="1.0" encoding="utf-8"?>
<svg version="1.1" xmlns:xlink="http://www.w3.org/1999/xlink" width="26px" height="20px" xmlns="http://www.w3.org/2000/svg">
  <defs>
    <pattern id="BGPattern" patternUnits="userSpaceOnUse" alignment="0 0" imageRepeat="None" />
    <mask fill="white" id="Clip24">
      <path d="M 6.474609375 1.3742494996664445  C 8.466362847222223 0.45808316655548076  10.641493055555557 0  13 0  C 15.358506944444445 0  17.53363715277778 0.45808316655548076  19.525390625 1.3742494996664445  C 21.51714409722222 2.290415832777406  23.09418402777778 3.5334667556148536  24.256510416666668 5.103402268178785  C 25.418836805555554 6.673337780742717  26 8.387814098287745  26 10.246831220813878  C 26 12.479430731598843  25.17339409722222 14.487436068490105  23.520182291666668 16.270847231487657  C 21.866970486111114 18.054258394485213  19.731336805555557 19.288414498554594  17.11328125 19.973315543695797  C 16.808593750000004 20.017789637536136  16.582899305555557 19.9866577718479  16.436197916666668 19.879919946631087  C 16.28949652777778 19.773182121414276  16.216145833333332 19.639759839893262  16.216145833333332 19.479653102068045  C 16.216145833333332 19.452968645763843  16.21896701388889 19.11274182788526  16.224609375 18.458972648432287  C 16.230251736111114 17.80520346897932  16.233072916666668 17.207026906826776  16.233072916666668 16.66444296197465  C 16.233072916666668 15.80164554147209  15.93967013888889 15.170113408939292  15.352864583333332 14.76984656437625  C 15.99609375 14.716477651767846  16.57443576388889 14.636424282855236  17.087890625 14.529686457638427  C 17.601345486111114 14.422948632421615  18.131727430555557 14.249499666444297  18.679036458333332 14.00933955970647  C 19.226345486111114 13.769179452968645  19.683376736111114 13.473426728930399  20.050130208333332 13.122081387591727  C 20.416883680555557 12.770736046253056  20.715928819444446 12.303758060929509  20.947265625 11.72114743162108  C 21.178602430555557 11.138536802312654  21.294270833333332 10.469201690015563  21.294270833333332 9.713142094729822  C 21.294270833333332 8.654658661329774  20.848524305555557 7.738492328218813  19.95703125 6.964643095396932  C 20.37456597222222 6.15521458750278  20.329427083333332 5.247943073159885  19.821614583333332 4.242828552368245  C 19.505642361111114 4.162775183455638  19.048611111111114 4.211696686680007  18.450520833333332 4.389593062041362  C 17.852430555555557 4.5674894374027115  17.333333333333332 4.763175450300201  16.893229166666668 4.976651100733822  L 16.25 5.296864576384257  C 15.200520833333336 5.065599288414497  14.117187500000004 4.94996664442962  13 4.94996664442962  C 11.8828125 4.94996664442962  10.799479166666666 5.065599288414497  9.75 5.296864576384257  C 9.569444444444445 5.199021569935511  9.329644097222223 5.078941516566598  9.030598958333334 4.9366244162775175  C 8.731553819444445 4.794307315988435  8.260416666666668 4.623082054703136  7.6171875 4.422948632421615  C 6.973958333333334 4.222815210140094  6.49435763888889 4.162775183455638  6.178385416666667 4.242828552368245  C 5.670572916666667 5.247943073159885  5.625434027777779 6.15521458750278  6.04296875 6.964643095396932  C 5.151475694444445 7.738492328218813  4.705729166666667 8.654658661329774  4.705729166666667 9.713142094729822  C 4.705729166666667 10.469201690015563  4.821397569444445 11.136313097620636  5.052734375 11.714476317545031  C 5.284071180555555 12.292639537469423  5.580295138888889 12.759617522792972  5.94140625 13.115410273515678  C 6.302517361111112 13.471203024238378  6.756727430555556 13.769179452968645  7.304036458333334 14.00933955970647  C 7.851345486111112 14.249499666444297  8.381727430555557 14.422948632421615  8.895182291666666 14.529686457638427  C 9.408637152777779 14.636424282855236  9.986979166666666 14.716477651767846  10.630208333333334 14.76984656437625  C 10.190104166666666 15.090060040026685  9.913628472222223 15.548143206582166  9.80078125 16.144096064042696  C 9.563802083333334 16.23304425172337  9.309895833333334 16.299755392483878  9.0390625 16.344229486324217  C 8.768229166666666 16.388703580164552  8.446614583333334 16.410940627084724  8.07421875 16.410940627084724  C 7.701822916666668 16.410940627084724  7.33224826388889 16.315321325327997  6.965494791666666 16.124082721814542  C 6.598741319444445 15.932844118301091  6.285590277777779 15.654881031798977  6.026041666666667 15.290193462308206  C 5.811631944444445 15.005559261730038  5.537977430555555 14.774293973760283  5.205078125 14.596397598398934  C 4.872178819444445 14.418501223037579  4.592881944444445 14.311763397820767  4.3671875 14.276184122748498  L 4.028645833333333 14.236157438292194  C 3.791666666666667 14.236157438292194  3.628038194444444 14.256170780520346  3.537760416666667 14.296197464976652  C 3.4474826388888893 14.336224149432955  3.419270833333334 14.387369357349344  3.453125 14.449633088725818  C 3.486979166666667 14.511896820102288  3.537760416666667 14.574160551478762  3.60546875 14.636424282855236  C 3.673177083333334 14.69868801423171  3.746527777777778 14.752056926840114  3.825520833333333 14.796531020680455  L 3.944010416666667 14.863242161440962  C 4.192274305555555 14.952190349121635  4.437717013888889 15.121191905714921  4.680338541666667 15.370246831220813  C 4.922960069444445 15.619301756726705  5.100694444444445 15.846119635312428  5.213541666666667 16.050700466977986  L 5.3828125 16.357571714476318  C 5.529513888888889 16.695574827662885  5.777777777777779 16.969090504780965  6.127604166666667 17.178118745830552  C 6.477430555555557 17.387146986880143  6.855468750000002 17.520569268401157  7.26171875 17.578385590393594  C 7.667968750000002 17.636201912386035  8.060112847222223 17.667333778074273  8.438151041666666 17.671781187458308  C 8.81618923611111 17.67622859684234  9.129340277777779 17.66066266399822  9.377604166666666 17.62508338892595  L 9.766927083333334 17.571714476317545  C 9.766927083333334 17.909717589504112  9.76974826388889 18.303313319991105  9.775390625 18.752501667778517  C 9.78103298611111 19.201690015565934  9.783854166666666 19.444073826995773  9.783854166666666 19.479653102068045  C 9.783854166666666 19.639759839893262  9.710503472222223 19.773182121414276  9.563802083333334 19.879919946631087  C 9.417100694444445 19.9866577718479  9.19140625 20.017789637536136  8.88671875 19.973315543695797  C 6.268663194444445 19.288414498554594  4.133029513888889 18.054258394485213  2.4798177083333335 16.270847231487657  C 0.8266059027777777 14.487436068490105  0 12.479430731598843  0 10.246831220813878  C 0 8.387814098287745  0.5811631944444444 6.673337780742717  1.7434895833333335 5.103402268178785  C 2.9058159722222223 3.5334667556148536  4.482855902777779 2.290415832777406  6.474609375 1.3742494996664445  Z M 4.705729166666667 14.743162108072047  C 4.807291666666667 14.796531020680455  4.880642361111112 14.787636201912386  4.92578125 14.716477651767846  C 4.959635416666667 14.654213920391372  4.920138888888889 14.600845007782965  4.807291666666667 14.55637091394263  C 4.694444444444445 14.529686457638427  4.62109375 14.53858127640649  4.587239583333333 14.583055370246832  C 4.553385416666667 14.645319101623302  4.592881944444445 14.69868801423171  4.705729166666667 14.743162108072047  Z M 5.1796875 15.13008672448299  C 5.292534722222222 15.219034912163663  5.3828125 15.232377140315766  5.450520833333333 15.170113408939292  C 5.529513888888889 15.125639315098953  5.518229166666667 15.054480764954414  5.416666666666667 14.956637758505671  C 5.303819444444445 14.876584389593061  5.213541666666667 14.863242161440962  5.145833333333333 14.916611074049367  C 5.066840277777779 14.961085167889703  5.078125 15.032243718034245  5.1796875 15.13008672448299  Z M 5.670572916666667 15.677118078719145  C 5.772135416666667 15.792750722704024  5.868055555555555 15.823882588392262  5.958333333333333 15.770513675783855  C 6.059895833333333 15.708249944407381  6.059895833333333 15.623749166110741  5.958333333333333 15.51701134089393  C 5.868055555555555 15.401378696909049  5.772135416666667 15.374694240604846  5.670572916666667 15.43695797198132  C 5.569010416666667 15.481432065821659  5.569010416666667 15.561485434734266  5.670572916666667 15.677118078719145  Z M 6.330729166666667 16.29086057371581  C 6.466145833333333 16.397598398932622  6.578993055555556 16.410940627084724  6.669270833333334 16.330887258172115  C 6.759548611111112 16.259728708027573  6.736979166666668 16.17522792973093  6.6015625 16.07738492328219  C 6.466145833333333 15.970647098065376  6.353298611111112 15.957304869913276  6.263020833333333 16.03735823882588  C 6.161458333333333 16.108516788970423  6.184027777777779 16.193017567267066  6.330729166666667 16.29086057371581  Z M 7.3125 16.74449633088726  C 7.481770833333334 16.797865243495664  7.588975694444445 16.77118078719146  7.634114583333334 16.66444296197465  C 7.66796875 16.566599955525906  7.594618055555556 16.495441405381364  7.4140625 16.450967311541028  C 7.244791666666668 16.415388036468755  7.137586805555556 16.446519902156997  7.092447916666666 16.544362908605738  C 7.047309027777779 16.64220591505448  7.120659722222222 16.708917055814986  7.3125 16.74449633088726  Z M 8.4296875 16.877918612408273  C 8.610243055555557 16.877918612408273  8.700520833333334 16.8289971091839  8.700520833333334 16.731154102735157  C 8.700520833333334 16.615521458750276  8.604600694444445 16.566599955525906  8.412760416666666 16.584389593062042  C 8.23220486111111 16.584389593062042  8.141927083333334 16.633311096286413  8.141927083333334 16.731154102735157  C 8.141927083333334 16.84678674672004  8.237847222222223 16.895708249944406  8.4296875 16.877918612408273  Z M 9.4453125 16.784523015343563  C 9.625868055555557 16.74894374027129  9.70486111111111 16.68668000889482  9.682291666666666 16.597731821214143  C 9.659722222222223 16.4998888147654  9.558159722222223 16.459862130309094  9.377604166666666 16.47765176784523  C 9.19704861111111 16.504336224149434  9.118055555555557 16.571047364909937  9.140625 16.67778519012675  C 9.163194444444445 16.784523015343563  9.264756944444445 16.820102290415836  9.4453125 16.784523015343563  Z " fill-rule="evenodd" />
    </mask>
  </defs>
  <g transform="matrix(1 0 0 1 -759 -1096 )">
    <path d="M 6.474609375 1.3742494996664445  C 8.466362847222223 0.45808316655548076  10.641493055555557 0  13 0  C 15.358506944444445 0  17.53363715277778 0.45808316655548076  19.525390625 1.3742494996664445  C 21.51714409722222 2.290415832777406  23.09418402777778 3.5334667556148536  24.256510416666668 5.103402268178785  C 25.418836805555554 6.673337780742717  26 8.387814098287745  26 10.246831220813878  C 26 12.479430731598843  25.17339409722222 14.487436068490105  23.520182291666668 16.270847231487657  C 21.866970486111114 18.054258394485213  19.731336805555557 19.288414498554594  17.11328125 19.973315543695797  C 16.808593750000004 20.017789637536136  16.582899305555557 19.9866577718479  16.436197916666668 19.879919946631087  C 16.28949652777778 19.773182121414276  16.216145833333332 19.639759839893262  16.216145833333332 19.479653102068045  C 16.216145833333332 19.452968645763843  16.21896701388889 19.11274182788526  16.224609375 18.458972648432287  C 16.230251736111114 17.80520346897932  16.233072916666668 17.207026906826776  16.233072916666668 16.66444296197465  C 16.233072916666668 15.80164554147209  15.93967013888889 15.170113408939292  15.352864583333332 14.76984656437625  C 15.99609375 14.716477651767846  16.57443576388889 14.636424282855236  17.087890625 14.529686457638427  C 17.601345486111114 14.422948632421615  18.131727430555557 14.249499666444297  18.679036458333332 14.00933955970647  C 19.226345486111114 13.769179452968645  19.683376736111114 13.473426728930399  20.050130208333332 13.122081387591727  C 20.416883680555557 12.770736046253056  20.715928819444446 12.303758060929509  20.947265625 11.72114743162108  C 21.178602430555557 11.138536802312654  21.294270833333332 10.469201690015563  21.294270833333332 9.713142094729822  C 21.294270833333332 8.654658661329774  20.848524305555557 7.738492328218813  19.95703125 6.964643095396932  C 20.37456597222222 6.15521458750278  20.329427083333332 5.247943073159885  19.821614583333332 4.242828552368245  C 19.505642361111114 4.162775183455638  19.048611111111114 4.211696686680007  18.450520833333332 4.389593062041362  C 17.852430555555557 4.5674894374027115  17.333333333333332 4.763175450300201  16.893229166666668 4.976651100733822  L 16.25 5.296864576384257  C 15.200520833333336 5.065599288414497  14.117187500000004 4.94996664442962  13 4.94996664442962  C 11.8828125 4.94996664442962  10.799479166666666 5.065599288414497  9.75 5.296864576384257  C 9.569444444444445 5.199021569935511  9.329644097222223 5.078941516566598  9.030598958333334 4.9366244162775175  C 8.731553819444445 4.794307315988435  8.260416666666668 4.623082054703136  7.6171875 4.422948632421615  C 6.973958333333334 4.222815210140094  6.49435763888889 4.162775183455638  6.178385416666667 4.242828552368245  C 5.670572916666667 5.247943073159885  5.625434027777779 6.15521458750278  6.04296875 6.964643095396932  C 5.151475694444445 7.738492328218813  4.705729166666667 8.654658661329774  4.705729166666667 9.713142094729822  C 4.705729166666667 10.469201690015563  4.821397569444445 11.136313097620636  5.052734375 11.714476317545031  C 5.284071180555555 12.292639537469423  5.580295138888889 12.759617522792972  5.94140625 13.115410273515678  C 6.302517361111112 13.471203024238378  6.756727430555556 13.769179452968645  7.304036458333334 14.00933955970647  C 7.851345486111112 14.249499666444297  8.381727430555557 14.422948632421615  8.895182291666666 14.529686457638427  C 9.408637152777779 14.636424282855236  9.986979166666666 14.716477651767846  10.630208333333334 14.76984656437625  C 10.190104166666666 15.090060040026685  9.913628472222223 15.548143206582166  9.80078125 16.144096064042696  C 9.563802083333334 16.23304425172337  9.309895833333334 16.299755392483878  9.0390625 16.344229486324217  C 8.768229166666666 16.388703580164552  8.446614583333334 16.410940627084724  8.07421875 16.410940627084724  C 7.701822916666668 16.410940627084724  7.33224826388889 16.315321325327997  6.965494791666666 16.124082721814542  C 6.598741319444445 15.932844118301091  6.285590277777779 15.654881031798977  6.026041666666667 15.290193462308206  C 5.811631944444445 15.005559261730038  5.537977430555555 14.774293973760283  5.205078125 14.596397598398934  C 4.872178819444445 14.418501223037579  4.592881944444445 14.311763397820767  4.3671875 14.276184122748498  L 4.028645833333333 14.236157438292194  C 3.791666666666667 14.236157438292194  3.628038194444444 14.256170780520346  3.537760416666667 14.296197464976652  C 3.4474826388888893 14.336224149432955  3.419270833333334 14.387369357349344  3.453125 14.449633088725818  C 3.486979166666667 14.511896820102288  3.537760416666667 14.574160551478762  3.60546875 14.636424282855236  C 3.673177083333334 14.69868801423171  3.746527777777778 14.752056926840114  3.825520833333333 14.796531020680455  L 3.944010416666667 14.863242161440962  C 4.192274305555555 14.952190349121635  4.437717013888889 15.121191905714921  4.680338541666667 15.370246831220813  C 4.922960069444445 15.619301756726705  5.100694444444445 15.846119635312428  5.213541666666667 16.050700466977986  L 5.3828125 16.357571714476318  C 5.529513888888889 16.695574827662885  5.777777777777779 16.969090504780965  6.127604166666667 17.178118745830552  C 6.477430555555557 17.387146986880143  6.855468750000002 17.520569268401157  7.26171875 17.578385590393594  C 7.667968750000002 17.636201912386035  8.060112847222223 17.667333778074273  8.438151041666666 17.671781187458308  C 8.81618923611111 17.67622859684234  9.129340277777779 17.66066266399822  9.377604166666666 17.62508338892595  L 9.766927083333334 17.571714476317545  C 9.766927083333334 17.909717589504112  9.76974826388889 18.303313319991105  9.775390625 18.752501667778517  C 9.78103298611111 19.201690015565934  9.783854166666666 19.444073826995773  9.783854166666666 19.479653102068045  C 9.783854166666666 19.639759839893262  9.710503472222223 19.773182121414276  9.563802083333334 19.879919946631087  C 9.417100694444445 19.9866577718479  9.19140625 20.017789637536136  8.88671875 19.973315543695797  C 6.268663194444445 19.288414498554594  4.133029513888889 18.054258394485213  2.4798177083333335 16.270847231487657  C 0.8266059027777777 14.487436068490105  0 12.479430731598843  0 10.246831220813878  C 0 8.387814098287745  0.5811631944444444 6.673337780742717  1.7434895833333335 5.103402268178785  C 2.9058159722222223 3.5334667556148536  4.482855902777779 2.290415832777406  6.474609375 1.3742494996664445  Z M 4.705729166666667 14.743162108072047  C 4.807291666666667 14.796531020680455  4.880642361111112 14.787636201912386  4.92578125 14.716477651767846  C 4.959635416666667 14.654213920391372  4.920138888888889 14.600845007782965  4.807291666666667 14.55637091394263  C 4.694444444444445 14.529686457638427  4.62109375 14.53858127640649  4.587239583333333 14.583055370246832  C 4.553385416666667 14.645319101623302  4.592881944444445 14.69868801423171  4.705729166666667 14.743162108072047  Z M 5.1796875 15.13008672448299  C 5.292534722222222 15.219034912163663  5.3828125 15.232377140315766  5.450520833333333 15.170113408939292  C 5.529513888888889 15.125639315098953  5.518229166666667 15.054480764954414  5.416666666666667 14.956637758505671  C 5.303819444444445 14.876584389593061  5.213541666666667 14.863242161440962  5.145833333333333 14.916611074049367  C 5.066840277777779 14.961085167889703  5.078125 15.032243718034245  5.1796875 15.13008672448299  Z M 5.670572916666667 15.677118078719145  C 5.772135416666667 15.792750722704024  5.868055555555555 15.823882588392262  5.958333333333333 15.770513675783855  C 6.059895833333333 15.708249944407381  6.059895833333333 15.623749166110741  5.958333333333333 15.51701134089393  C 5.868055555555555 15.401378696909049  5.772135416666667 15.374694240604846  5.670572916666667 15.43695797198132  C 5.569010416666667 15.481432065821659  5.569010416666667 15.561485434734266  5.670572916666667 15.677118078719145  Z M 6.330729166666667 16.29086057371581  C 6.466145833333333 16.397598398932622  6.578993055555556 16.410940627084724  6.669270833333334 16.330887258172115  C 6.759548611111112 16.259728708027573  6.736979166666668 16.17522792973093  6.6015625 16.07738492328219  C 6.466145833333333 15.970647098065376  6.353298611111112 15.957304869913276  6.263020833333333 16.03735823882588  C 6.161458333333333 16.108516788970423  6.184027777777779 16.193017567267066  6.330729166666667 16.29086057371581  Z M 7.3125 16.74449633088726  C 7.481770833333334 16.797865243495664  7.588975694444445 16.77118078719146  7.634114583333334 16.66444296197465  C 7.66796875 16.566599955525906  7.594618055555556 16.495441405381364  7.4140625 16.450967311541028  C 7.244791666666668 16.415388036468755  7.137586805555556 16.446519902156997  7.092447916666666 16.544362908605738  C 7.047309027777779 16.64220591505448  7.120659722222222 16.708917055814986  7.3125 16.74449633088726  Z M 8.4296875 16.877918612408273  C 8.610243055555557 16.877918612408273  8.700520833333334 16.8289971091839  8.700520833333334 16.731154102735157  C 8.700520833333334 16.615521458750276  8.604600694444445 16.566599955525906  8.412760416666666 16.584389593062042  C 8.23220486111111 16.584389593062042  8.141927083333334 16.633311096286413  8.141927083333334 16.731154102735157  C 8.141927083333334 16.84678674672004  8.237847222222223 16.895708249944406  8.4296875 16.877918612408273  Z M 9.4453125 16.784523015343563  C 9.625868055555557 16.74894374027129  9.70486111111111 16.68668000889482  9.682291666666666 16.597731821214143  C 9.659722222222223 16.4998888147654  9.558159722222223 16.459862130309094  9.377604166666666 16.47765176784523  C 9.19704861111111 16.504336224149434  9.118055555555557 16.571047364909937  9.140625 16.67778519012675  C 9.163194444444445 16.784523015343563  9.264756944444445 16.820102290415836  9.4453125 16.784523015343563  Z " fill-rule="nonzero" fill="rgba(0, 0, 0, 1)" stroke="none" transform="matrix(1 0 0 1 759 1096 )" class="fill" />
    <path d="M 6.474609375 1.3742494996664445  C 8.466362847222223 0.45808316655548076  10.641493055555557 0  13 0  C 15.358506944444445 0  17.53363715277778 0.45808316655548076  19.525390625 1.3742494996664445  C 21.51714409722222 2.290415832777406  23.09418402777778 3.5334667556148536  24.256510416666668 5.103402268178785  C 25.418836805555554 6.673337780742717  26 8.387814098287745  26 10.246831220813878  C 26 12.479430731598843  25.17339409722222 14.487436068490105  23.520182291666668 16.270847231487657  C 21.866970486111114 18.054258394485213  19.731336805555557 19.288414498554594  17.11328125 19.973315543695797  C 16.808593750000004 20.017789637536136  16.582899305555557 19.9866577718479  16.436197916666668 19.879919946631087  C 16.28949652777778 19.773182121414276  16.216145833333332 19.639759839893262  16.216145833333332 19.479653102068045  C 16.216145833333332 19.452968645763843  16.21896701388889 19.11274182788526  16.224609375 18.458972648432287  C 16.230251736111114 17.80520346897932  16.233072916666668 17.207026906826776  16.233072916666668 16.66444296197465  C 16.233072916666668 15.80164554147209  15.93967013888889 15.170113408939292  15.352864583333332 14.76984656437625  C 15.99609375 14.716477651767846  16.57443576388889 14.636424282855236  17.087890625 14.529686457638427  C 17.601345486111114 14.422948632421615  18.131727430555557 14.249499666444297  18.679036458333332 14.00933955970647  C 19.226345486111114 13.769179452968645  19.683376736111114 13.473426728930399  20.050130208333332 13.122081387591727  C 20.416883680555557 12.770736046253056  20.715928819444446 12.303758060929509  20.947265625 11.72114743162108  C 21.178602430555557 11.138536802312654  21.294270833333332 10.469201690015563  21.294270833333332 9.713142094729822  C 21.294270833333332 8.654658661329774  20.848524305555557 7.738492328218813  19.95703125 6.964643095396932  C 20.37456597222222 6.15521458750278  20.329427083333332 5.247943073159885  19.821614583333332 4.242828552368245  C 19.505642361111114 4.162775183455638  19.048611111111114 4.211696686680007  18.450520833333332 4.389593062041362  C 17.852430555555557 4.5674894374027115  17.333333333333332 4.763175450300201  16.893229166666668 4.976651100733822  L 16.25 5.296864576384257  C 15.200520833333336 5.065599288414497  14.117187500000004 4.94996664442962  13 4.94996664442962  C 11.8828125 4.94996664442962  10.799479166666666 5.065599288414497  9.75 5.296864576384257  C 9.569444444444445 5.199021569935511  9.329644097222223 5.078941516566598  9.030598958333334 4.9366244162775175  C 8.731553819444445 4.794307315988435  8.260416666666668 4.623082054703136  7.6171875 4.422948632421615  C 6.973958333333334 4.222815210140094  6.49435763888889 4.162775183455638  6.178385416666667 4.242828552368245  C 5.670572916666667 5.247943073159885  5.625434027777779 6.15521458750278  6.04296875 6.964643095396932  C 5.151475694444445 7.738492328218813  4.705729166666667 8.654658661329774  4.705729166666667 9.713142094729822  C 4.705729166666667 10.469201690015563  4.821397569444445 11.136313097620636  5.052734375 11.714476317545031  C 5.284071180555555 12.292639537469423  5.580295138888889 12.759617522792972  5.94140625 13.115410273515678  C 6.302517361111112 13.471203024238378  6.756727430555556 13.769179452968645  7.304036458333334 14.00933955970647  C 7.851345486111112 14.249499666444297  8.381727430555557 14.422948632421615  8.895182291666666 14.529686457638427  C 9.408637152777779 14.636424282855236  9.986979166666666 14.716477651767846  10.630208333333334 14.76984656437625  C 10.190104166666666 15.090060040026685  9.913628472222223 15.548143206582166  9.80078125 16.144096064042696  C 9.563802083333334 16.23304425172337  9.309895833333334 16.299755392483878  9.0390625 16.344229486324217  C 8.768229166666666 16.388703580164552  8.446614583333334 16.410940627084724  8.07421875 16.410940627084724  C 7.701822916666668 16.410940627084724  7.33224826388889 16.315321325327997  6.965494791666666 16.124082721814542  C 6.598741319444445 15.932844118301091  6.285590277777779 15.654881031798977  6.026041666666667 15.290193462308206  C 5.811631944444445 15.005559261730038  5.537977430555555 14.774293973760283  5.205078125 14.596397598398934  C 4.872178819444445 14.418501223037579  4.592881944444445 14.311763397820767  4.3671875 14.276184122748498  L 4.028645833333333 14.236157438292194  C 3.791666666666667 14.236157438292194  3.628038194444444 14.256170780520346  3.537760416666667 14.296197464976652  C 3.4474826388888893 14.336224149432955  3.419270833333334 14.387369357349344  3.453125 14.449633088725818  C 3.486979166666667 14.511896820102288  3.537760416666667 14.574160551478762  3.60546875 14.636424282855236  C 3.673177083333334 14.69868801423171  3.746527777777778 14.752056926840114  3.825520833333333 14.796531020680455  L 3.944010416666667 14.863242161440962  C 4.192274305555555 14.952190349121635  4.437717013888889 15.121191905714921  4.680338541666667 15.370246831220813  C 4.922960069444445 15.619301756726705  5.100694444444445 15.846119635312428  5.213541666666667 16.050700466977986  L 5.3828125 16.357571714476318  C 5.529513888888889 16.695574827662885  5.777777777777779 16.969090504780965  6.127604166666667 17.178118745830552  C 6.477430555555557 17.387146986880143  6.855468750000002 17.520569268401157  7.26171875 17.578385590393594  C 7.667968750000002 17.636201912386035  8.060112847222223 17.667333778074273  8.438151041666666 17.671781187458308  C 8.81618923611111 17.67622859684234  9.129340277777779 17.66066266399822  9.377604166666666 17.62508338892595  L 9.766927083333334 17.571714476317545  C 9.766927083333334 17.909717589504112  9.76974826388889 18.303313319991105  9.775390625 18.752501667778517  C 9.78103298611111 19.201690015565934  9.783854166666666 19.444073826995773  9.783854166666666 19.479653102068045  C 9.783854166666666 19.639759839893262  9.710503472222223 19.773182121414276  9.563802083333334 19.879919946631087  C 9.417100694444445 19.9866577718479  9.19140625 20.017789637536136  8.88671875 19.973315543695797  C 6.268663194444445 19.288414498554594  4.133029513888889 18.054258394485213  2.4798177083333335 16.270847231487657  C 0.8266059027777777 14.487436068490105  0 12.479430731598843  0 10.246831220813878  C 0 8.387814098287745  0.5811631944444444 6.673337780742717  1.7434895833333335 5.103402268178785  C 2.9058159722222223 3.5334667556148536  4.482855902777779 2.290415832777406  6.474609375 1.3742494996664445  Z " stroke-width="0" stroke-dasharray="0" stroke="rgba(255, 255, 255, 0)" fill="none" transform="matrix(1 0 0 1 759 1096 )" class="stroke" mask="url(#Clip24)" />
    <path d="M 4.705729166666667 14.743162108072047  C 4.807291666666667 14.796531020680455  4.880642361111112 14.787636201912386  4.92578125 14.716477651767846  C 4.959635416666667 14.654213920391372  4.920138888888889 14.600845007782965  4.807291666666667 14.55637091394263  C 4.694444444444445 14.529686457638427  4.62109375 14.53858127640649  4.587239583333333 14.583055370246832  C 4.553385416666667 14.645319101623302  4.592881944444445 14.69868801423171  4.705729166666667 14.743162108072047  Z " stroke-width="0" stroke-dasharray="0" stroke="rgba(255, 255, 255, 0)" fill="none" transform="matrix(1 0 0 1 759 1096 )" class="stroke" mask="url(#Clip24)" />
    <path d="M 5.1796875 15.13008672448299  C 5.292534722222222 15.219034912163663  5.3828125 15.232377140315766  5.450520833333333 15.170113408939292  C 5.529513888888889 15.125639315098953  5.518229166666667 15.054480764954414  5.416666666666667 14.956637758505671  C 5.303819444444445 14.876584389593061  5.213541666666667 14.863242161440962  5.145833333333333 14.916611074049367  C 5.066840277777779 14.961085167889703  5.078125 15.032243718034245  5.1796875 15.13008672448299  Z " stroke-width="0" stroke-dasharray="0" stroke="rgba(255, 255, 255, 0)" fill="none" transform="matrix(1 0 0 1 759 1096 )" class="stroke" mask="url(#Clip24)" />
    <path d="M 5.670572916666667 15.677118078719145  C 5.772135416666667 15.792750722704024  5.868055555555555 15.823882588392262  5.958333333333333 15.770513675783855  C 6.059895833333333 15.708249944407381  6.059895833333333 15.623749166110741  5.958333333333333 15.51701134089393  C 5.868055555555555 15.401378696909049  5.772135416666667 15.374694240604846  5.670572916666667 15.43695797198132  C 5.569010416666667 15.481432065821659  5.569010416666667 15.561485434734266  5.670572916666667 15.677118078719145  Z " stroke-width="0" stroke-dasharray="0" stroke="rgba(255, 255, 255, 0)" fill="none" transform="matrix(1 0 0 1 759 1096 )" class="stroke" mask="url(#Clip24)" />
    <path d="M 6.330729166666667 16.29086057371581  C 6.466145833333333 16.397598398932622  6.578993055555556 16.410940627084724  6.669270833333334 16.330887258172115  C 6.759548611111112 16.259728708027573  6.736979166666668 16.17522792973093  6.6015625 16.07738492328219  C 6.466145833333333 15.970647098065376  6.353298611111112 15.957304869913276  6.263020833333333 16.03735823882588  C 6.161458333333333 16.108516788970423  6.184027777777779 16.193017567267066  6.330729166666667 16.29086057371581  Z " stroke-width="0" stroke-dasharray="0" stroke="rgba(255, 255, 255, 0)" fill="none" transform="matrix(1 0 0 1 759 1096 )" class="stroke" mask="url(#Clip24)" />
    <path d="M 7.3125 16.74449633088726  C 7.481770833333334 16.797865243495664  7.588975694444445 16.77118078719146  7.634114583333334 16.66444296197465  C 7.66796875 16.566599955525906  7.594618055555556 16.495441405381364  7.4140625 16.450967311541028  C 7.244791666666668 16.415388036468755  7.137586805555556 16.446519902156997  7.092447916666666 16.544362908605738  C 7.047309027777779 16.64220591505448  7.120659722222222 16.708917055814986  7.3125 16.74449633088726  Z " stroke-width="0" stroke-dasharray="0" stroke="rgba(255, 255, 255, 0)" fill="none" transform="matrix(1 0 0 1 759 1096 )" class="stroke" mask="url(#Clip24)" />
    <path d="M 8.4296875 16.877918612408273  C 8.610243055555557 16.877918612408273  8.700520833333334 16.8289971091839  8.700520833333334 16.731154102735157  C 8.700520833333334 16.615521458750276  8.604600694444445 16.566599955525906  8.412760416666666 16.584389593062042  C 8.23220486111111 16.584389593062042  8.141927083333334 16.633311096286413  8.141927083333334 16.731154102735157  C 8.141927083333334 16.84678674672004  8.237847222222223 16.895708249944406  8.4296875 16.877918612408273  Z " stroke-width="0" stroke-dasharray="0" stroke="rgba(255, 255, 255, 0)" fill="none" transform="matrix(1 0 0 1 759 1096 )" class="stroke" mask="url(#Clip24)" />
    <path d="M 9.4453125 16.784523015343563  C 9.625868055555557 16.74894374027129  9.70486111111111 16.68668000889482  9.682291666666666 16.597731821214143  C 9.659722222222223 16.4998888147654  9.558159722222223 16.459862130309094  9.377604166666666 16.47765176784523  C 9.19704861111111 16.504336224149434  9.118055555555557 16.571047364909937  9.140625 16.67778519012675  C 9.163194444444445 16.784523015343563  9.264756944444445 16.820102290415836  9.4453125 16.784523015343563  Z " stroke-width="0" stroke-dasharray="0" stroke="rgba(255, 255, 255, 0)" fill="none" transform="matrix(1 0 0 1 759 1096 )" class="stroke" mask="url(#Clip24)" />
  </g>
</svg>