<?xml version="1.0" encoding="utf-8"?>
<svg version="1.1" xmlns:xlink="http://www.w3.org/1999/xlink" width="27px" height="21px" xmlns="http://www.w3.org/2000/svg">
  <defs>
    <pattern id="BGPattern" patternUnits="userSpaceOnUse" alignment="0 0" imageRepeat="None" />
    <mask fill="white" id="Clip25">
      <path d="M 16.681640625 12.974609375000002  C 17.560546875 12.291015624999998  18 11.466145833333332  18 10.5  C 18 9.533854166666664  17.560546875 8.708984375  16.681640625 8.025390625  C 15.802734375000002 7.341796875  14.742187500000002 7.000000000000001  13.5 7.000000000000001  C 12.2578125 7.000000000000001  11.197265625 7.341796875  10.318359375 8.025390625  C 9.439453125 8.708984375  9 9.533854166666664  9 10.5  C 9 11.466145833333332  9.439453125 12.291015624999998  10.318359375 12.974609375000002  C 11.197265625 13.658203125  12.2578125 14.000000000000002  13.5 14.000000000000002  C 14.742187500000002 14.000000000000002  15.802734375000002 13.658203125  16.681640625 12.974609375000002  Z M 18.404296875 6.685546875  C 19.751953125000004 7.73372395833333  20.42578125 9.00520833333333  20.42578125 10.5  C 20.42578125 11.994791666666668  19.751953125000004 13.266276041666668  18.404296875 14.314453125  C 17.056640625 15.362630208333332  15.421875 15.88671875  13.5 15.88671875  C 11.578125 15.88671875  9.943359375 15.362630208333332  8.595703125 14.314453125  C 7.248046875000001 13.266276041666668  6.57421875 11.994791666666668  6.57421875 10.5  C 6.57421875 9.00520833333333  7.248046875000001 7.73372395833333  8.595703125 6.685546875  C 9.943359375 5.637369791666665  11.578125 5.113281250000001  13.5 5.113281250000001  C 15.421875 5.113281250000001  17.056640625 5.637369791666665  18.404296875 6.685546875  Z M 21.849609375 4.005859375000001  C 22.166015625 4.251953125000001  22.32421875 4.548177083333332  22.32421875 4.894531249999999  C 22.32421875 5.240885416666666  22.166015625 5.537109375  21.849609375 5.783203125  C 21.533203125 6.029296875  21.15234375 6.15234375  20.70703125 6.15234375  C 20.26171875 6.15234375  19.880859375 6.029296875  19.564453125 5.783203125  C 19.248046875 5.537109375  19.08984375 5.240885416666666  19.08984375 4.894531249999999  C 19.08984375 4.548177083333332  19.248046875 4.251953125000001  19.564453125 4.005859375000001  C 19.880859375 3.759765625000001  20.26171875 3.636718750000001  20.70703125 3.636718750000001  C 21.15234375 3.636718750000001  21.533203125 3.759765625000001  21.849609375 4.005859375000001  Z M 14.8447265625 1.8798828124999991  C 14.030273437500002 1.8844401041666647  13.582031250000002 1.88671875  13.5 1.88671875  C 13.41796875 1.88671875  12.9697265625 1.8844401041666647  12.1552734375 1.8798828124999991  C 11.3408203125 1.8753255208333313  10.72265625 1.8753255208333313  10.30078125 1.8798828124999991  C 9.87890625 1.8844401041666647  9.3134765625 1.8981119791666665  8.6044921875 1.9208984374999991  C 7.895507812500002 1.9436848958333321  7.291992187500001 1.9892578125  6.793945312500001 2.057617187500001  C 6.295898437500001 2.125976562499999  5.876953125000001 2.210286458333332  5.537109375 2.310546874999999  C 4.951171875000001 2.4928385416666665  4.435546875 2.7571614583333313  3.9902343750000004 3.103515625000001  C 3.5449218750000004 3.4498697916666656  3.205078125 3.850911458333332  2.970703125 4.306640625  C 2.841796875 4.570963541666665  2.7333984375 4.896809895833332  2.6455078125 5.284179687499999  C 2.5576171875 5.671549479166666  2.4990234375 6.140950520833331  2.4697265625 6.692382812500001  C 2.4404296875 7.243815104166666  2.4228515625000004 7.683593749999999  2.4169921875 8.01171875  C 2.4111328125000004 8.33984375  2.4111328125000004 8.82063802083333  2.4169921875 9.4541015625  C 2.4228515625000004 10.087565104166664  2.42578125 10.436197916666664  2.42578125 10.5  C 2.42578125 10.563802083333332  2.4228515625000004 10.912434895833332  2.4169921875 11.5458984375  C 2.4111328125000004 12.179361979166668  2.4111328125000004 12.660156249999998  2.4169921875 12.988281249999998  C 2.4228515625000004 13.316406249999998  2.4404296875 13.75618489583333  2.4697265625 14.307617187500002  C 2.4990234375 14.859049479166664  2.5576171875 15.328450520833332  2.6455078125 15.715820312499998  C 2.7333984375 16.103190104166664  2.841796875 16.429036458333332  2.970703125 16.693359375  C 3.205078125 17.149088541666664  3.5449218750000004 17.550130208333336  3.9902343750000004 17.896484375  C 4.435546875 18.242838541666668  4.951171875000001 18.507161458333332  5.537109375 18.689453125  C 5.876953125000001 18.789713541666664  6.295898437500001 18.8740234375  6.793945312500001 18.9423828125  C 7.291992187500001 19.0107421875  7.895507812500002 19.056315104166664  8.6044921875 19.0791015625  C 9.3134765625 19.101888020833332  9.87890625 19.115559895833336  10.30078125 19.1201171875  C 10.72265625 19.124674479166668  11.3408203125 19.124674479166668  12.1552734375 19.1201171875  C 12.9697265625 19.115559895833336  13.41796875 19.11328125  13.5 19.11328125  C 13.582031250000002 19.11328125  14.030273437500002 19.115559895833336  14.8447265625 19.1201171875  C 15.6591796875 19.124674479166668  16.27734375 19.124674479166668  16.69921875 19.1201171875  C 17.12109375 19.115559895833336  17.6865234375 19.101888020833332  18.3955078125 19.0791015625  C 19.104492187500004 19.056315104166664  19.7080078125 19.0107421875  20.2060546875 18.9423828125  C 20.7041015625 18.8740234375  21.123046875000004 18.789713541666664  21.462890625 18.689453125  C 22.048828125 18.507161458333332  22.564453125 18.242838541666668  23.009765625 17.896484375  C 23.455078125000004 17.550130208333336  23.794921875 17.149088541666664  24.029296875 16.693359375  C 24.158203125 16.429036458333332  24.2666015625 16.103190104166664  24.3544921875 15.715820312499998  C 24.4423828125 15.328450520833332  24.5009765625 14.859049479166664  24.5302734375 14.307617187500002  C 24.5595703125 13.75618489583333  24.577148437500004 13.316406249999998  24.5830078125 12.988281249999998  C 24.588867187500004 12.660156249999998  24.588867187500004 12.179361979166668  24.5830078125 11.5458984375  C 24.577148437500004 10.912434895833332  24.57421875 10.563802083333332  24.57421875 10.5  C 24.57421875 10.436197916666664  24.577148437500004 10.087565104166664  24.5830078125 9.4541015625  C 24.588867187500004 8.82063802083333  24.588867187500004 8.33984375  24.5830078125 8.01171875  C 24.577148437500004 7.683593749999999  24.5595703125 7.243815104166666  24.5302734375 6.692382812500001  C 24.5009765625 6.140950520833331  24.4423828125 5.671549479166666  24.3544921875 5.284179687499999  C 24.2666015625 4.896809895833332  24.158203125 4.570963541666665  24.029296875 4.306640625  C 23.794921875 3.850911458333332  23.455078125000004 3.4498697916666656  23.009765625 3.103515625000001  C 22.564453125 2.7571614583333313  22.048828125 2.4928385416666665  21.462890625 2.310546874999999  C 21.123046875000004 2.210286458333332  20.7041015625 2.125976562499999  20.2060546875 2.057617187500001  C 19.7080078125 1.9892578125  19.104492187500004 1.9436848958333321  18.3955078125 1.9208984374999991  C 17.6865234375 1.8981119791666665  17.12109375 1.8844401041666647  16.69921875 1.8798828124999991  C 16.27734375 1.8753255208333313  15.6591796875 1.8753255208333313  14.8447265625 1.8798828124999991  Z M 26.912109375 6.166015624999999  C 26.970703124999996 6.968098958333332  27 8.412760416666666  27 10.5  C 27 12.587239583333334  26.970703124999996 14.031901041666666  26.912109375 14.833984374999998  C 26.794921875 16.729817708333336  26.068359375 18.197265625  24.732421875 19.236328125  C 23.396484375 20.275390625  21.509765625 20.840494791666664  19.072265625 20.931640625  C 18.041015625 20.977213541666664  16.18359375 21  13.5 21  C 10.81640625 21  8.958984375 20.977213541666664  7.927734375000001 20.931640625  C 5.490234375000001 20.840494791666664  3.6035156250000004 20.275390625  2.267578125 19.236328125  C 0.9316406250000001 18.197265625  0.20507812500000003 16.729817708333336  0.087890625 14.833984374999998  C 0.029296874999999997 14.031901041666666  0 12.587239583333334  0 10.5  C 0 8.412760416666666  0.029296874999999997 6.968098958333332  0.087890625 6.166015624999999  C 0.20507812500000003 4.270182291666666  0.9316406250000001 2.802734374999999  2.267578125 1.763671875  C 3.6035156250000004 0.7246093750000008  5.490234375000001 0.15950520833333204  7.927734375000001 0.06835937500000078  C 8.958984375 0.022786458333330484  10.81640625 0  13.5 0  C 16.18359375 0  18.041015625 0.022786458333330484  19.072265625 0.06835937500000078  C 21.509765625 0.15950520833333204  23.396484375 0.7246093750000008  24.732421875 1.763671875  C 26.068359375 2.802734374999999  26.794921875 4.270182291666666  26.912109375 6.166015624999999  Z " fill-rule="evenodd" />
    </mask>
  </defs>
  <g transform="matrix(1 0 0 1 -837 -1097 )">
    <path d="M 16.681640625 12.974609375000002  C 17.560546875 12.291015624999998  18 11.466145833333332  18 10.5  C 18 9.533854166666664  17.560546875 8.708984375  16.681640625 8.025390625  C 15.802734375000002 7.341796875  14.742187500000002 7.000000000000001  13.5 7.000000000000001  C 12.2578125 7.000000000000001  11.197265625 7.341796875  10.318359375 8.025390625  C 9.439453125 8.708984375  9 9.533854166666664  9 10.5  C 9 11.466145833333332  9.439453125 12.291015624999998  10.318359375 12.974609375000002  C 11.197265625 13.658203125  12.2578125 14.000000000000002  13.5 14.000000000000002  C 14.742187500000002 14.000000000000002  15.802734375000002 13.658203125  16.681640625 12.974609375000002  Z M 18.404296875 6.685546875  C 19.751953125000004 7.73372395833333  20.42578125 9.00520833333333  20.42578125 10.5  C 20.42578125 11.994791666666668  19.751953125000004 13.266276041666668  18.404296875 14.314453125  C 17.056640625 15.362630208333332  15.421875 15.88671875  13.5 15.88671875  C 11.578125 15.88671875  9.943359375 15.362630208333332  8.595703125 14.314453125  C 7.248046875000001 13.266276041666668  6.57421875 11.994791666666668  6.57421875 10.5  C 6.57421875 9.00520833333333  7.248046875000001 7.73372395833333  8.595703125 6.685546875  C 9.943359375 5.637369791666665  11.578125 5.113281250000001  13.5 5.113281250000001  C 15.421875 5.113281250000001  17.056640625 5.637369791666665  18.404296875 6.685546875  Z M 21.849609375 4.005859375000001  C 22.166015625 4.251953125000001  22.32421875 4.548177083333332  22.32421875 4.894531249999999  C 22.32421875 5.240885416666666  22.166015625 5.537109375  21.849609375 5.783203125  C 21.533203125 6.029296875  21.15234375 6.15234375  20.70703125 6.15234375  C 20.26171875 6.15234375  19.880859375 6.029296875  19.564453125 5.783203125  C 19.248046875 5.537109375  19.08984375 5.240885416666666  19.08984375 4.894531249999999  C 19.08984375 4.548177083333332  19.248046875 4.251953125000001  19.564453125 4.005859375000001  C 19.880859375 3.759765625000001  20.26171875 3.636718750000001  20.70703125 3.636718750000001  C 21.15234375 3.636718750000001  21.533203125 3.759765625000001  21.849609375 4.005859375000001  Z M 14.8447265625 1.8798828124999991  C 14.030273437500002 1.8844401041666647  13.582031250000002 1.88671875  13.5 1.88671875  C 13.41796875 1.88671875  12.9697265625 1.8844401041666647  12.1552734375 1.8798828124999991  C 11.3408203125 1.8753255208333313  10.72265625 1.8753255208333313  10.30078125 1.8798828124999991  C 9.87890625 1.8844401041666647  9.3134765625 1.8981119791666665  8.6044921875 1.9208984374999991  C 7.895507812500002 1.9436848958333321  7.291992187500001 1.9892578125  6.793945312500001 2.057617187500001  C 6.295898437500001 2.125976562499999  5.876953125000001 2.210286458333332  5.537109375 2.310546874999999  C 4.951171875000001 2.4928385416666665  4.435546875 2.7571614583333313  3.9902343750000004 3.103515625000001  C 3.5449218750000004 3.4498697916666656  3.205078125 3.850911458333332  2.970703125 4.306640625  C 2.841796875 4.570963541666665  2.7333984375 4.896809895833332  2.6455078125 5.284179687499999  C 2.5576171875 5.671549479166666  2.4990234375 6.140950520833331  2.4697265625 6.692382812500001  C 2.4404296875 7.243815104166666  2.4228515625000004 7.683593749999999  2.4169921875 8.01171875  C 2.4111328125000004 8.33984375  2.4111328125000004 8.82063802083333  2.4169921875 9.4541015625  C 2.4228515625000004 10.087565104166664  2.42578125 10.436197916666664  2.42578125 10.5  C 2.42578125 10.563802083333332  2.4228515625000004 10.912434895833332  2.4169921875 11.5458984375  C 2.4111328125000004 12.179361979166668  2.4111328125000004 12.660156249999998  2.4169921875 12.988281249999998  C 2.4228515625000004 13.316406249999998  2.4404296875 13.75618489583333  2.4697265625 14.307617187500002  C 2.4990234375 14.859049479166664  2.5576171875 15.328450520833332  2.6455078125 15.715820312499998  C 2.7333984375 16.103190104166664  2.841796875 16.429036458333332  2.970703125 16.693359375  C 3.205078125 17.149088541666664  3.5449218750000004 17.550130208333336  3.9902343750000004 17.896484375  C 4.435546875 18.242838541666668  4.951171875000001 18.507161458333332  5.537109375 18.689453125  C 5.876953125000001 18.789713541666664  6.295898437500001 18.8740234375  6.793945312500001 18.9423828125  C 7.291992187500001 19.0107421875  7.895507812500002 19.056315104166664  8.6044921875 19.0791015625  C 9.3134765625 19.101888020833332  9.87890625 19.115559895833336  10.30078125 19.1201171875  C 10.72265625 19.124674479166668  11.3408203125 19.124674479166668  12.1552734375 19.1201171875  C 12.9697265625 19.115559895833336  13.41796875 19.11328125  13.5 19.11328125  C 13.582031250000002 19.11328125  14.030273437500002 19.115559895833336  14.8447265625 19.1201171875  C 15.6591796875 19.124674479166668  16.27734375 19.124674479166668  16.69921875 19.1201171875  C 17.12109375 19.115559895833336  17.6865234375 19.101888020833332  18.3955078125 19.0791015625  C 19.104492187500004 19.056315104166664  19.7080078125 19.0107421875  20.2060546875 18.9423828125  C 20.7041015625 18.8740234375  21.123046875000004 18.789713541666664  21.462890625 18.689453125  C 22.048828125 18.507161458333332  22.564453125 18.242838541666668  23.009765625 17.896484375  C 23.455078125000004 17.550130208333336  23.794921875 17.149088541666664  24.029296875 16.693359375  C 24.158203125 16.429036458333332  24.2666015625 16.103190104166664  24.3544921875 15.715820312499998  C 24.4423828125 15.328450520833332  24.5009765625 14.859049479166664  24.5302734375 14.307617187500002  C 24.5595703125 13.75618489583333  24.577148437500004 13.316406249999998  24.5830078125 12.988281249999998  C 24.588867187500004 12.660156249999998  24.588867187500004 12.179361979166668  24.5830078125 11.5458984375  C 24.577148437500004 10.912434895833332  24.57421875 10.563802083333332  24.57421875 10.5  C 24.57421875 10.436197916666664  24.577148437500004 10.087565104166664  24.5830078125 9.4541015625  C 24.588867187500004 8.82063802083333  24.588867187500004 8.33984375  24.5830078125 8.01171875  C 24.577148437500004 7.683593749999999  24.5595703125 7.243815104166666  24.5302734375 6.692382812500001  C 24.5009765625 6.140950520833331  24.4423828125 5.671549479166666  24.3544921875 5.284179687499999  C 24.2666015625 4.896809895833332  24.158203125 4.570963541666665  24.029296875 4.306640625  C 23.794921875 3.850911458333332  23.455078125000004 3.4498697916666656  23.009765625 3.103515625000001  C 22.564453125 2.7571614583333313  22.048828125 2.4928385416666665  21.462890625 2.310546874999999  C 21.123046875000004 2.210286458333332  20.7041015625 2.125976562499999  20.2060546875 2.057617187500001  C 19.7080078125 1.9892578125  19.104492187500004 1.9436848958333321  18.3955078125 1.9208984374999991  C 17.6865234375 1.8981119791666665  17.12109375 1.8844401041666647  16.69921875 1.8798828124999991  C 16.27734375 1.8753255208333313  15.6591796875 1.8753255208333313  14.8447265625 1.8798828124999991  Z M 26.912109375 6.166015624999999  C 26.970703124999996 6.968098958333332  27 8.412760416666666  27 10.5  C 27 12.587239583333334  26.970703124999996 14.031901041666666  26.912109375 14.833984374999998  C 26.794921875 16.729817708333336  26.068359375 18.197265625  24.732421875 19.236328125  C 23.396484375 20.275390625  21.509765625 20.840494791666664  19.072265625 20.931640625  C 18.041015625 20.977213541666664  16.18359375 21  13.5 21  C 10.81640625 21  8.958984375 20.977213541666664  7.927734375000001 20.931640625  C 5.490234375000001 20.840494791666664  3.6035156250000004 20.275390625  2.267578125 19.236328125  C 0.9316406250000001 18.197265625  0.20507812500000003 16.729817708333336  0.087890625 14.833984374999998  C 0.029296874999999997 14.031901041666666  0 12.587239583333334  0 10.5  C 0 8.412760416666666  0.029296874999999997 6.968098958333332  0.087890625 6.166015624999999  C 0.20507812500000003 4.270182291666666  0.9316406250000001 2.802734374999999  2.267578125 1.763671875  C 3.6035156250000004 0.7246093750000008  5.490234375000001 0.15950520833333204  7.927734375000001 0.06835937500000078  C 8.958984375 0.022786458333330484  10.81640625 0  13.5 0  C 16.18359375 0  18.041015625 0.022786458333330484  19.072265625 0.06835937500000078  C 21.509765625 0.15950520833333204  23.396484375 0.7246093750000008  24.732421875 1.763671875  C 26.068359375 2.802734374999999  26.794921875 4.270182291666666  26.912109375 6.166015624999999  Z " fill-rule="nonzero" fill="rgba(0, 0, 0, 1)" stroke="none" transform="matrix(1 0 0 1 837 1097 )" class="fill" />
    <path d="M 16.681640625 12.974609375000002  C 17.560546875 12.291015624999998  18 11.466145833333332  18 10.5  C 18 9.533854166666664  17.560546875 8.708984375  16.681640625 8.025390625  C 15.802734375000002 7.341796875  14.742187500000002 7.000000000000001  13.5 7.000000000000001  C 12.2578125 7.000000000000001  11.197265625 7.341796875  10.318359375 8.025390625  C 9.439453125 8.708984375  9 9.533854166666664  9 10.5  C 9 11.466145833333332  9.439453125 12.291015624999998  10.318359375 12.974609375000002  C 11.197265625 13.658203125  12.2578125 14.000000000000002  13.5 14.000000000000002  C 14.742187500000002 14.000000000000002  15.802734375000002 13.658203125  16.681640625 12.974609375000002  Z " stroke-width="0" stroke-dasharray="0" stroke="rgba(255, 255, 255, 0)" fill="none" transform="matrix(1 0 0 1 837 1097 )" class="stroke" mask="url(#Clip25)" />
    <path d="M 18.404296875 6.685546875  C 19.751953125000004 7.73372395833333  20.42578125 9.00520833333333  20.42578125 10.5  C 20.42578125 11.994791666666668  19.751953125000004 13.266276041666668  18.404296875 14.314453125  C 17.056640625 15.362630208333332  15.421875 15.88671875  13.5 15.88671875  C 11.578125 15.88671875  9.943359375 15.362630208333332  8.595703125 14.314453125  C 7.248046875000001 13.266276041666668  6.57421875 11.994791666666668  6.57421875 10.5  C 6.57421875 9.00520833333333  7.248046875000001 7.73372395833333  8.595703125 6.685546875  C 9.943359375 5.637369791666665  11.578125 5.113281250000001  13.5 5.113281250000001  C 15.421875 5.113281250000001  17.056640625 5.637369791666665  18.404296875 6.685546875  Z " stroke-width="0" stroke-dasharray="0" stroke="rgba(255, 255, 255, 0)" fill="none" transform="matrix(1 0 0 1 837 1097 )" class="stroke" mask="url(#Clip25)" />
    <path d="M 21.849609375 4.005859375000001  C 22.166015625 4.251953125000001  22.32421875 4.548177083333332  22.32421875 4.894531249999999  C 22.32421875 5.240885416666666  22.166015625 5.537109375  21.849609375 5.783203125  C 21.533203125 6.029296875  21.15234375 6.15234375  20.70703125 6.15234375  C 20.26171875 6.15234375  19.880859375 6.029296875  19.564453125 5.783203125  C 19.248046875 5.537109375  19.08984375 5.240885416666666  19.08984375 4.894531249999999  C 19.08984375 4.548177083333332  19.248046875 4.251953125000001  19.564453125 4.005859375000001  C 19.880859375 3.759765625000001  20.26171875 3.636718750000001  20.70703125 3.636718750000001  C 21.15234375 3.636718750000001  21.533203125 3.759765625000001  21.849609375 4.005859375000001  Z " stroke-width="0" stroke-dasharray="0" stroke="rgba(255, 255, 255, 0)" fill="none" transform="matrix(1 0 0 1 837 1097 )" class="stroke" mask="url(#Clip25)" />
    <path d="M 14.8447265625 1.8798828124999991  C 14.030273437500002 1.8844401041666647  13.582031250000002 1.88671875  13.5 1.88671875  C 13.41796875 1.88671875  12.9697265625 1.8844401041666647  12.1552734375 1.8798828124999991  C 11.3408203125 1.8753255208333313  10.72265625 1.8753255208333313  10.30078125 1.8798828124999991  C 9.87890625 1.8844401041666647  9.3134765625 1.8981119791666665  8.6044921875 1.9208984374999991  C 7.895507812500002 1.9436848958333321  7.291992187500001 1.9892578125  6.793945312500001 2.057617187500001  C 6.295898437500001 2.125976562499999  5.876953125000001 2.210286458333332  5.537109375 2.310546874999999  C 4.951171875000001 2.4928385416666665  4.435546875 2.7571614583333313  3.9902343750000004 3.103515625000001  C 3.5449218750000004 3.4498697916666656  3.205078125 3.850911458333332  2.970703125 4.306640625  C 2.841796875 4.570963541666665  2.7333984375 4.896809895833332  2.6455078125 5.284179687499999  C 2.5576171875 5.671549479166666  2.4990234375 6.140950520833331  2.4697265625 6.692382812500001  C 2.4404296875 7.243815104166666  2.4228515625000004 7.683593749999999  2.4169921875 8.01171875  C 2.4111328125000004 8.33984375  2.4111328125000004 8.82063802083333  2.4169921875 9.4541015625  C 2.4228515625000004 10.087565104166664  2.42578125 10.436197916666664  2.42578125 10.5  C 2.42578125 10.563802083333332  2.4228515625000004 10.912434895833332  2.4169921875 11.5458984375  C 2.4111328125000004 12.179361979166668  2.4111328125000004 12.660156249999998  2.4169921875 12.988281249999998  C 2.4228515625000004 13.316406249999998  2.4404296875 13.75618489583333  2.4697265625 14.307617187500002  C 2.4990234375 14.859049479166664  2.5576171875 15.328450520833332  2.6455078125 15.715820312499998  C 2.7333984375 16.103190104166664  2.841796875 16.429036458333332  2.970703125 16.693359375  C 3.205078125 17.149088541666664  3.5449218750000004 17.550130208333336  3.9902343750000004 17.896484375  C 4.435546875 18.242838541666668  4.951171875000001 18.507161458333332  5.537109375 18.689453125  C 5.876953125000001 18.789713541666664  6.295898437500001 18.8740234375  6.793945312500001 18.9423828125  C 7.291992187500001 19.0107421875  7.895507812500002 19.056315104166664  8.6044921875 19.0791015625  C 9.3134765625 19.101888020833332  9.87890625 19.115559895833336  10.30078125 19.1201171875  C 10.72265625 19.124674479166668  11.3408203125 19.124674479166668  12.1552734375 19.1201171875  C 12.9697265625 19.115559895833336  13.41796875 19.11328125  13.5 19.11328125  C 13.582031250000002 19.11328125  14.030273437500002 19.115559895833336  14.8447265625 19.1201171875  C 15.6591796875 19.124674479166668  16.27734375 19.124674479166668  16.69921875 19.1201171875  C 17.12109375 19.115559895833336  17.6865234375 19.101888020833332  18.3955078125 19.0791015625  C 19.104492187500004 19.056315104166664  19.7080078125 19.0107421875  20.2060546875 18.9423828125  C 20.7041015625 18.8740234375  21.123046875000004 18.789713541666664  21.462890625 18.689453125  C 22.048828125 18.507161458333332  22.564453125 18.242838541666668  23.009765625 17.896484375  C 23.455078125000004 17.550130208333336  23.794921875 17.149088541666664  24.029296875 16.693359375  C 24.158203125 16.429036458333332  24.2666015625 16.103190104166664  24.3544921875 15.715820312499998  C 24.4423828125 15.328450520833332  24.5009765625 14.859049479166664  24.5302734375 14.307617187500002  C 24.5595703125 13.75618489583333  24.577148437500004 13.316406249999998  24.5830078125 12.988281249999998  C 24.588867187500004 12.660156249999998  24.588867187500004 12.179361979166668  24.5830078125 11.5458984375  C 24.577148437500004 10.912434895833332  24.57421875 10.563802083333332  24.57421875 10.5  C 24.57421875 10.436197916666664  24.577148437500004 10.087565104166664  24.5830078125 9.4541015625  C 24.588867187500004 8.82063802083333  24.588867187500004 8.33984375  24.5830078125 8.01171875  C 24.577148437500004 7.683593749999999  24.5595703125 7.243815104166666  24.5302734375 6.692382812500001  C 24.5009765625 6.140950520833331  24.4423828125 5.671549479166666  24.3544921875 5.284179687499999  C 24.2666015625 4.896809895833332  24.158203125 4.570963541666665  24.029296875 4.306640625  C 23.794921875 3.850911458333332  23.455078125000004 3.4498697916666656  23.009765625 3.103515625000001  C 22.564453125 2.7571614583333313  22.048828125 2.4928385416666665  21.462890625 2.310546874999999  C 21.123046875000004 2.210286458333332  20.7041015625 2.125976562499999  20.2060546875 2.057617187500001  C 19.7080078125 1.9892578125  19.104492187500004 1.9436848958333321  18.3955078125 1.9208984374999991  C 17.6865234375 1.8981119791666665  17.12109375 1.8844401041666647  16.69921875 1.8798828124999991  C 16.27734375 1.8753255208333313  15.6591796875 1.8753255208333313  14.8447265625 1.8798828124999991  Z " stroke-width="0" stroke-dasharray="0" stroke="rgba(255, 255, 255, 0)" fill="none" transform="matrix(1 0 0 1 837 1097 )" class="stroke" mask="url(#Clip25)" />
    <path d="M 26.912109375 6.166015624999999  C 26.970703124999996 6.968098958333332  27 8.412760416666666  27 10.5  C 27 12.587239583333334  26.970703124999996 14.031901041666666  26.912109375 14.833984374999998  C 26.794921875 16.729817708333336  26.068359375 18.197265625  24.732421875 19.236328125  C 23.396484375 20.275390625  21.509765625 20.840494791666664  19.072265625 20.931640625  C 18.041015625 20.977213541666664  16.18359375 21  13.5 21  C 10.81640625 21  8.958984375 20.977213541666664  7.927734375000001 20.931640625  C 5.490234375000001 20.840494791666664  3.6035156250000004 20.275390625  2.267578125 19.236328125  C 0.9316406250000001 18.197265625  0.20507812500000003 16.729817708333336  0.087890625 14.833984374999998  C 0.029296874999999997 14.031901041666666  0 12.587239583333334  0 10.5  C 0 8.412760416666666  0.029296874999999997 6.968098958333332  0.087890625 6.166015624999999  C 0.20507812500000003 4.270182291666666  0.9316406250000001 2.802734374999999  2.267578125 1.763671875  C 3.6035156250000004 0.7246093750000008  5.490234375000001 0.15950520833333204  7.927734375000001 0.06835937500000078  C 8.958984375 0.022786458333330484  10.81640625 0  13.5 0  C 16.18359375 0  18.041015625 0.022786458333330484  19.072265625 0.06835937500000078  C 21.509765625 0.15950520833333204  23.396484375 0.7246093750000008  24.732421875 1.763671875  C 26.068359375 2.802734374999999  26.794921875 4.270182291666666  26.912109375 6.166015624999999  Z " stroke-width="0" stroke-dasharray="0" stroke="rgba(255, 255, 255, 0)" fill="none" transform="matrix(1 0 0 1 837 1097 )" class="stroke" mask="url(#Clip25)" />
  </g>
</svg>