<?xml version="1.0" encoding="utf-8"?>
<svg version="1.1" xmlns:xlink="http://www.w3.org/1999/xlink" width="12px" height="20px" xmlns="http://www.w3.org/2000/svg">
  <defs>
    <pattern id="BGPattern" patternUnits="userSpaceOnUse" alignment="0 0" imageRepeat="None" />
    <mask fill="white" id="Clip26">
      <path d="M 8.833333333333334 0  C 10.194444444444445 0  11.25 0.048076923076922906  12 0.14423076923076872  L 12 3.3173076923076916  L 9.819444444444445 3.3173076923076916  C 9.023148148148149 3.3173076923076916  8.48611111111111 3.4615384615384626  8.208333333333334 3.75  C 7.930555555555555 4.038461538461537  7.791666666666667 4.471153846153846  7.791666666666667 5.048076923076923  L 7.791666666666667 7.319711538461537  L 11.86111111111111 7.319711538461537  L 11.319444444444445 10.877403846153847  L 7.791666666666667 10.877403846153847  L 7.791666666666667 20  L 3.541666666666667 20  L 3.541666666666667 10.877403846153847  L 0 10.877403846153847  L 0 7.319711538461537  L 3.541666666666667 7.319711538461537  L 3.541666666666667 4.699519230769232  C 3.541666666666667 3.2091346153846145  4.023148148148149 2.0532852564102555  4.986111111111111 1.2319711538461542  C 5.949074074074074 0.4106570512820529  7.231481481481483 0  8.833333333333334 0  Z " fill-rule="evenodd" />
    </mask>
  </defs>
  <g transform="matrix(1 0 0 1 -733 -1097 )">
    <path d="M 8.833333333333334 0  C 10.194444444444445 0  11.25 0.048076923076922906  12 0.14423076923076872  L 12 3.3173076923076916  L 9.819444444444445 3.3173076923076916  C 9.023148148148149 3.3173076923076916  8.48611111111111 3.4615384615384626  8.208333333333334 3.75  C 7.930555555555555 4.038461538461537  7.791666666666667 4.471153846153846  7.791666666666667 5.048076923076923  L 7.791666666666667 7.319711538461537  L 11.86111111111111 7.319711538461537  L 11.319444444444445 10.877403846153847  L 7.791666666666667 10.877403846153847  L 7.791666666666667 20  L 3.541666666666667 20  L 3.541666666666667 10.877403846153847  L 0 10.877403846153847  L 0 7.319711538461537  L 3.541666666666667 7.319711538461537  L 3.541666666666667 4.699519230769232  C 3.541666666666667 3.2091346153846145  4.023148148148149 2.0532852564102555  4.986111111111111 1.2319711538461542  C 5.949074074074074 0.4106570512820529  7.231481481481483 0  8.833333333333334 0  Z " fill-rule="nonzero" fill="rgba(0, 0, 0, 1)" stroke="none" transform="matrix(1 0 0 1 733 1097 )" class="fill" />
    <path d="M 8.833333333333334 0  C 10.194444444444445 0  11.25 0.048076923076922906  12 0.14423076923076872  L 12 3.3173076923076916  L 9.819444444444445 3.3173076923076916  C 9.023148148148149 3.3173076923076916  8.48611111111111 3.4615384615384626  8.208333333333334 3.75  C 7.930555555555555 4.038461538461537  7.791666666666667 4.471153846153846  7.791666666666667 5.048076923076923  L 7.791666666666667 7.319711538461537  L 11.86111111111111 7.319711538461537  L 11.319444444444445 10.877403846153847  L 7.791666666666667 10.877403846153847  L 7.791666666666667 20  L 3.541666666666667 20  L 3.541666666666667 10.877403846153847  L 0 10.877403846153847  L 0 7.319711538461537  L 3.541666666666667 7.319711538461537  L 3.541666666666667 4.699519230769232  C 3.541666666666667 3.2091346153846145  4.023148148148149 2.0532852564102555  4.986111111111111 1.2319711538461542  C 5.949074074074074 0.4106570512820529  7.231481481481483 0  8.833333333333334 0  Z " stroke-width="0" stroke-dasharray="0" stroke="rgba(255, 255, 255, 0)" fill="none" transform="matrix(1 0 0 1 733 1097 )" class="stroke" mask="url(#Clip26)" />
  </g>
</svg>