<?xml version="1.0" encoding="utf-8"?>
<svg version="1.1" xmlns:xlink="http://www.w3.org/1999/xlink" width="27px" height="17px" xmlns="http://www.w3.org/2000/svg">
  <defs>
    <pattern id="BGPattern" patternUnits="userSpaceOnUse" alignment="0 0" imageRepeat="None" />
    <mask fill="white" id="Clip27">
      <path d="M 23.813451776649746 2.6828125000000003  C 24.8756345177665 2.594270833333333  25.93781725888325 2.372916666666664  27 2.0187500000000003  C 26.234771573604064 2.886458333333332  25.309644670050762 3.6257812499999997  24.2246192893401 4.2367187500000005  C 24.236040609137056 4.360677083333333  24.241751269035532 4.546614583333332  24.241751269035532 4.7945312499999995  C 24.241751269035532 5.945572916666665  24.024746192893403 7.094401041666665  23.590736040609137 8.241015625  C 23.156725888324875 9.387630208333333  22.497144670050762 10.487760416666667  21.611992385786802 11.541406250000001  C 20.726840101522846 12.595052083333332  19.67322335025381 13.526953124999999  18.451142131979697 14.337109375  C 17.229060913705585 15.147265625  15.755710659898478 15.793619791666668  14.031091370558377 16.276171875  C 12.306472081218274 16.75872395833333  10.461928934010155 17  8.49746192893401 17  C 5.402284263959392 17  2.5697969543147208 16.358072916666668  0 15.07421875  C 0.3997461928934012 15.109635416666668  0.8451776649746194 15.127343750000001  1.336294416243655 15.127343750000001  C 3.906091370558377 15.127343750000001  6.196065989847716 14.51640625  8.206218274111675 13.294531249999999  C 7.006979695431473 13.276822916666665  5.933375634517767 12.991276041666664  4.9854060913705585 12.437890625000001  C 4.037436548223351 11.884505208333332  3.386421319796955 11.178385416666666  3.0323604060913705 10.31953125  C 3.409263959390863 10.363802083333333  3.7576142131979706 10.3859375  4.0774111675126905 10.3859375  C 4.568527918781726 10.3859375  5.053934010152284 10.337239583333332  5.533629441624365 10.239843749999999  C 4.254441624365483 10.036197916666666  3.1951142131979697 9.542578124999999  2.3556472081218276 8.758984375  C 1.5161802030456852 7.975390624999999  1.0964467005076144 7.065625000000001  1.0964467005076142 6.0296875000000005  L 1.0964467005076142 5.9765625  C 1.8730964467005078 6.313020833333333  2.7068527918781724 6.494531249999999  3.5977157360406093 6.5210937499999995  C 2.8439086294416245 6.131510416666665  2.2442893401015227 5.622395833333333  1.7988578680203047 4.9937499999999995  C 1.3534263959390862 4.365104166666664  1.130710659898477 3.683333333333332  1.130710659898477 2.9484375000000003  C 1.130710659898477 2.1692708333333326  1.3819796954314723 1.4476562500000008  1.884517766497462 0.7835937500000008  C 3.266497461928934 2.1028645833333326  4.948286802030458 3.158723958333333  6.92988578680203 3.951171875  C 8.911484771573605 4.743619791666667  11.032994923857869 5.184114583333333  13.294416243654823 5.272656250000001  C 13.20304568527919 4.936197916666665  13.157360406091371 4.608593749999999  13.157360406091371 4.289843749999999  C 13.157360406091371 3.103385416666664  13.69701776649746 2.091796875  14.776332487309643 1.2550781250000003  C 15.855647208121827 0.41835937500000075  17.16053299492386 0  18.690989847715738 0  C 20.289974619289342 0  21.637690355329948 0.45156250000000075  22.73413705583756 1.3546875000000003  C 23.979060913705585 1.1687499999999997  25.1497461928934 0.8234375000000004  26.246192893401016 0.31875000000000075  C 25.82360406091371 1.3369791666666644  25.012690355329955 2.125  23.813451776649746 2.6828125000000003  Z " fill-rule="evenodd" />
    </mask>
  </defs>
  <g transform="matrix(1 0 0 1 -797 -1099 )">
    <path d="M 23.813451776649746 2.6828125000000003  C 24.8756345177665 2.594270833333333  25.93781725888325 2.372916666666664  27 2.0187500000000003  C 26.234771573604064 2.886458333333332  25.309644670050762 3.6257812499999997  24.2246192893401 4.2367187500000005  C 24.236040609137056 4.360677083333333  24.241751269035532 4.546614583333332  24.241751269035532 4.7945312499999995  C 24.241751269035532 5.945572916666665  24.024746192893403 7.094401041666665  23.590736040609137 8.241015625  C 23.156725888324875 9.387630208333333  22.497144670050762 10.487760416666667  21.611992385786802 11.541406250000001  C 20.726840101522846 12.595052083333332  19.67322335025381 13.526953124999999  18.451142131979697 14.337109375  C 17.229060913705585 15.147265625  15.755710659898478 15.793619791666668  14.031091370558377 16.276171875  C 12.306472081218274 16.75872395833333  10.461928934010155 17  8.49746192893401 17  C 5.402284263959392 17  2.5697969543147208 16.358072916666668  0 15.07421875  C 0.3997461928934012 15.109635416666668  0.8451776649746194 15.127343750000001  1.336294416243655 15.127343750000001  C 3.906091370558377 15.127343750000001  6.196065989847716 14.51640625  8.206218274111675 13.294531249999999  C 7.006979695431473 13.276822916666665  5.933375634517767 12.991276041666664  4.9854060913705585 12.437890625000001  C 4.037436548223351 11.884505208333332  3.386421319796955 11.178385416666666  3.0323604060913705 10.31953125  C 3.409263959390863 10.363802083333333  3.7576142131979706 10.3859375  4.0774111675126905 10.3859375  C 4.568527918781726 10.3859375  5.053934010152284 10.337239583333332  5.533629441624365 10.239843749999999  C 4.254441624365483 10.036197916666666  3.1951142131979697 9.542578124999999  2.3556472081218276 8.758984375  C 1.5161802030456852 7.975390624999999  1.0964467005076144 7.065625000000001  1.0964467005076142 6.0296875000000005  L 1.0964467005076142 5.9765625  C 1.8730964467005078 6.313020833333333  2.7068527918781724 6.494531249999999  3.5977157360406093 6.5210937499999995  C 2.8439086294416245 6.131510416666665  2.2442893401015227 5.622395833333333  1.7988578680203047 4.9937499999999995  C 1.3534263959390862 4.365104166666664  1.130710659898477 3.683333333333332  1.130710659898477 2.9484375000000003  C 1.130710659898477 2.1692708333333326  1.3819796954314723 1.4476562500000008  1.884517766497462 0.7835937500000008  C 3.266497461928934 2.1028645833333326  4.948286802030458 3.158723958333333  6.92988578680203 3.951171875  C 8.911484771573605 4.743619791666667  11.032994923857869 5.184114583333333  13.294416243654823 5.272656250000001  C 13.20304568527919 4.936197916666665  13.157360406091371 4.608593749999999  13.157360406091371 4.289843749999999  C 13.157360406091371 3.103385416666664  13.69701776649746 2.091796875  14.776332487309643 1.2550781250000003  C 15.855647208121827 0.41835937500000075  17.16053299492386 0  18.690989847715738 0  C 20.289974619289342 0  21.637690355329948 0.45156250000000075  22.73413705583756 1.3546875000000003  C 23.979060913705585 1.1687499999999997  25.1497461928934 0.8234375000000004  26.246192893401016 0.31875000000000075  C 25.82360406091371 1.3369791666666644  25.012690355329955 2.125  23.813451776649746 2.6828125000000003  Z " fill-rule="nonzero" fill="rgba(0, 0, 0, 1)" stroke="none" transform="matrix(1 0 0 1 797 1099 )" class="fill" />
    <path d="M 23.813451776649746 2.6828125000000003  C 24.8756345177665 2.594270833333333  25.93781725888325 2.372916666666664  27 2.0187500000000003  C 26.234771573604064 2.886458333333332  25.309644670050762 3.6257812499999997  24.2246192893401 4.2367187500000005  C 24.236040609137056 4.360677083333333  24.241751269035532 4.546614583333332  24.241751269035532 4.7945312499999995  C 24.241751269035532 5.945572916666665  24.024746192893403 7.094401041666665  23.590736040609137 8.241015625  C 23.156725888324875 9.387630208333333  22.497144670050762 10.487760416666667  21.611992385786802 11.541406250000001  C 20.726840101522846 12.595052083333332  19.67322335025381 13.526953124999999  18.451142131979697 14.337109375  C 17.229060913705585 15.147265625  15.755710659898478 15.793619791666668  14.031091370558377 16.276171875  C 12.306472081218274 16.75872395833333  10.461928934010155 17  8.49746192893401 17  C 5.402284263959392 17  2.5697969543147208 16.358072916666668  0 15.07421875  C 0.3997461928934012 15.109635416666668  0.8451776649746194 15.127343750000001  1.336294416243655 15.127343750000001  C 3.906091370558377 15.127343750000001  6.196065989847716 14.51640625  8.206218274111675 13.294531249999999  C 7.006979695431473 13.276822916666665  5.933375634517767 12.991276041666664  4.9854060913705585 12.437890625000001  C 4.037436548223351 11.884505208333332  3.386421319796955 11.178385416666666  3.0323604060913705 10.31953125  C 3.409263959390863 10.363802083333333  3.7576142131979706 10.3859375  4.0774111675126905 10.3859375  C 4.568527918781726 10.3859375  5.053934010152284 10.337239583333332  5.533629441624365 10.239843749999999  C 4.254441624365483 10.036197916666666  3.1951142131979697 9.542578124999999  2.3556472081218276 8.758984375  C 1.5161802030456852 7.975390624999999  1.0964467005076144 7.065625000000001  1.0964467005076142 6.0296875000000005  L 1.0964467005076142 5.9765625  C 1.8730964467005078 6.313020833333333  2.7068527918781724 6.494531249999999  3.5977157360406093 6.5210937499999995  C 2.8439086294416245 6.131510416666665  2.2442893401015227 5.622395833333333  1.7988578680203047 4.9937499999999995  C 1.3534263959390862 4.365104166666664  1.130710659898477 3.683333333333332  1.130710659898477 2.9484375000000003  C 1.130710659898477 2.1692708333333326  1.3819796954314723 1.4476562500000008  1.884517766497462 0.7835937500000008  C 3.266497461928934 2.1028645833333326  4.948286802030458 3.158723958333333  6.92988578680203 3.951171875  C 8.911484771573605 4.743619791666667  11.032994923857869 5.184114583333333  13.294416243654823 5.272656250000001  C 13.20304568527919 4.936197916666665  13.157360406091371 4.608593749999999  13.157360406091371 4.289843749999999  C 13.157360406091371 3.103385416666664  13.69701776649746 2.091796875  14.776332487309643 1.2550781250000003  C 15.855647208121827 0.41835937500000075  17.16053299492386 0  18.690989847715738 0  C 20.289974619289342 0  21.637690355329948 0.45156250000000075  22.73413705583756 1.3546875000000003  C 23.979060913705585 1.1687499999999997  25.1497461928934 0.8234375000000004  26.246192893401016 0.31875000000000075  C 25.82360406091371 1.3369791666666644  25.012690355329955 2.125  23.813451776649746 2.6828125000000003  Z " stroke-width="0" stroke-dasharray="0" stroke="rgba(255, 255, 255, 0)" fill="none" transform="matrix(1 0 0 1 797 1099 )" class="stroke" mask="url(#Clip27)" />
  </g>
</svg>