<?xml version="1.0" encoding="utf-8"?>
<svg version="1.1" xmlns:xlink="http://www.w3.org/1999/xlink" width="50px" height="38px" xmlns="http://www.w3.org/2000/svg">
  <defs>
    <pattern id="BGPattern" patternUnits="userSpaceOnUse" alignment="0 0" imageRepeat="None" />
    <mask fill="white" id="Clip29">
      <path d="M 43.31896551724138 14.034090909090907  C 44.32471264367817 13.026515151515147  44.827586206896555 11.803030303030301  44.827586206896555 10.363636363636363  C 44.827586206896555 8.92424242424242  44.32471264367817 7.700757575757575  43.31896551724138 6.693181818181818  C 42.3132183908046 5.685606060606058  41.09195402298851 5.181818181818182  39.6551724137931 5.181818181818182  L 38 5.181818181818182  L 38 15.545454545454545  L 39.6551724137931 15.545454545454545  C 41.09195402298851 15.545454545454545  42.3132183908046 15.041666666666664  43.31896551724138 14.034090909090907  Z M 2.0204741379310347 35.97585227272727  C 0.6734913793103448 34.62642045454545  0 32.99810606060606  0 31  L 48.275862068965516 31  C 48.275862068965516 32.99810606060606  47.602370689655174 34.62642045454545  46.255387931034484 35.97585227272727  C 44.908405172413794 37.32528409090909  43.2830459770115 38  41.37931034482759 38  L 6.896551724137931 38  C 4.992816091954023 38  3.3674568965517246 37.32528409090909  2.0204741379310347 35.97585227272727  Z M 46.969288793103445 3.0362215909090926  C 48.989762931034484 5.060369318181818  50 7.502840909090907  50 10.363636363636363  C 50 13.224431818181818  48.989762931034484 15.666903409090907  46.969288793103445 17.691051136363637  C 44.94881465517241 19.715198863636363  42.51077586206897 20.727272727272727  39.6551724137931 20.727272727272727  L 37.93103448275862 20.727272727272727  L 37.93103448275862 21.59090909090909  C 37.93103448275862 23.24621212121212  37.338362068965516 24.667613636363637  36.15301724137931 25.855113636363637  C 34.9676724137931 27.042613636363637  33.548850574712645 27.636363636363637  31.896551724137932 27  L 12.931034482758621 27  C 11.278735632183908 27.636363636363637  9.859913793103448 27.042613636363637  8.674568965517242 25.855113636363637  C 7.489224137931035 24.667613636363637  6.896551724137931 23.24621212121212  7 21.59090909090909  L 7 1.7272727272727257  C 6.896551724137931 1.2594696969696948  7.067169540229886 0.8546401515151463  7.408405172413793 0.5127840909090928  C 7.749640804597702 0.17092803030302672  8.153735632183908 0  8.620689655172415 0  L 39.6551724137931 0  C 42.51077586206897 0  44.94881465517241 1.0120738636363629  46.969288793103445 3.0362215909090926  Z " fill-rule="evenodd" />
    </mask>
  </defs>
  <g transform="matrix(1 0 0 1 -40 -334 )">
    <path d="M 43.31896551724138 14.034090909090907  C 44.32471264367817 13.026515151515147  44.827586206896555 11.803030303030301  44.827586206896555 10.363636363636363  C 44.827586206896555 8.92424242424242  44.32471264367817 7.700757575757575  43.31896551724138 6.693181818181818  C 42.3132183908046 5.685606060606058  41.09195402298851 5.181818181818182  39.6551724137931 5.181818181818182  L 38 5.181818181818182  L 38 15.545454545454545  L 39.6551724137931 15.545454545454545  C 41.09195402298851 15.545454545454545  42.3132183908046 15.041666666666664  43.31896551724138 14.034090909090907  Z M 2.0204741379310347 35.97585227272727  C 0.6734913793103448 34.62642045454545  0 32.99810606060606  0 31  L 48.275862068965516 31  C 48.275862068965516 32.99810606060606  47.602370689655174 34.62642045454545  46.255387931034484 35.97585227272727  C 44.908405172413794 37.32528409090909  43.2830459770115 38  41.37931034482759 38  L 6.896551724137931 38  C 4.992816091954023 38  3.3674568965517246 37.32528409090909  2.0204741379310347 35.97585227272727  Z M 46.969288793103445 3.0362215909090926  C 48.989762931034484 5.060369318181818  50 7.502840909090907  50 10.363636363636363  C 50 13.224431818181818  48.989762931034484 15.666903409090907  46.969288793103445 17.691051136363637  C 44.94881465517241 19.715198863636363  42.51077586206897 20.727272727272727  39.6551724137931 20.727272727272727  L 37.93103448275862 20.727272727272727  L 37.93103448275862 21.59090909090909  C 37.93103448275862 23.24621212121212  37.338362068965516 24.667613636363637  36.15301724137931 25.855113636363637  C 34.9676724137931 27.042613636363637  33.548850574712645 27.636363636363637  31.896551724137932 27  L 12.931034482758621 27  C 11.278735632183908 27.636363636363637  9.859913793103448 27.042613636363637  8.674568965517242 25.855113636363637  C 7.489224137931035 24.667613636363637  6.896551724137931 23.24621212121212  7 21.59090909090909  L 7 1.7272727272727257  C 6.896551724137931 1.2594696969696948  7.067169540229886 0.8546401515151463  7.408405172413793 0.5127840909090928  C 7.749640804597702 0.17092803030302672  8.153735632183908 0  8.620689655172415 0  L 39.6551724137931 0  C 42.51077586206897 0  44.94881465517241 1.0120738636363629  46.969288793103445 3.0362215909090926  Z " fill-rule="nonzero" fill="rgba(0, 0, 0, 1)" stroke="none" transform="matrix(1 0 0 1 40 334 )" class="fill" />
    <path d="M 43.31896551724138 14.034090909090907  C 44.32471264367817 13.026515151515147  44.827586206896555 11.803030303030301  44.827586206896555 10.363636363636363  C 44.827586206896555 8.92424242424242  44.32471264367817 7.700757575757575  43.31896551724138 6.693181818181818  C 42.3132183908046 5.685606060606058  41.09195402298851 5.181818181818182  39.6551724137931 5.181818181818182  L 38 5.181818181818182  L 38 15.545454545454545  L 39.6551724137931 15.545454545454545  C 41.09195402298851 15.545454545454545  42.3132183908046 15.041666666666664  43.31896551724138 14.034090909090907  Z " stroke-width="0" stroke-dasharray="0" stroke="rgba(255, 255, 255, 0)" fill="none" transform="matrix(1 0 0 1 40 334 )" class="stroke" mask="url(#Clip29)" />
    <path d="M 2.0204741379310347 35.97585227272727  C 0.6734913793103448 34.62642045454545  0 32.99810606060606  0 31  L 48.275862068965516 31  C 48.275862068965516 32.99810606060606  47.602370689655174 34.62642045454545  46.255387931034484 35.97585227272727  C 44.908405172413794 37.32528409090909  43.2830459770115 38  41.37931034482759 38  L 6.896551724137931 38  C 4.992816091954023 38  3.3674568965517246 37.32528409090909  2.0204741379310347 35.97585227272727  Z " stroke-width="0" stroke-dasharray="0" stroke="rgba(255, 255, 255, 0)" fill="none" transform="matrix(1 0 0 1 40 334 )" class="stroke" mask="url(#Clip29)" />
    <path d="M 46.969288793103445 3.0362215909090926  C 48.989762931034484 5.060369318181818  50 7.502840909090907  50 10.363636363636363  C 50 13.224431818181818  48.989762931034484 15.666903409090907  46.969288793103445 17.691051136363637  C 44.94881465517241 19.715198863636363  42.51077586206897 20.727272727272727  39.6551724137931 20.727272727272727  L 37.93103448275862 20.727272727272727  L 37.93103448275862 21.59090909090909  C 37.93103448275862 23.24621212121212  37.338362068965516 24.667613636363637  36.15301724137931 25.855113636363637  C 34.9676724137931 27.042613636363637  33.548850574712645 27.636363636363637  31.896551724137932 27  L 12.931034482758621 27  C 11.278735632183908 27.636363636363637  9.859913793103448 27.042613636363637  8.674568965517242 25.855113636363637  C 7.489224137931035 24.667613636363637  6.896551724137931 23.24621212121212  7 21.59090909090909  L 7 1.7272727272727257  C 6.896551724137931 1.2594696969696948  7.067169540229886 0.8546401515151463  7.408405172413793 0.5127840909090928  C 7.749640804597702 0.17092803030302672  8.153735632183908 0  8.620689655172415 0  L 39.6551724137931 0  C 42.51077586206897 0  44.94881465517241 1.0120738636363629  46.969288793103445 3.0362215909090926  Z " stroke-width="0" stroke-dasharray="0" stroke="rgba(255, 255, 255, 0)" fill="none" transform="matrix(1 0 0 1 40 334 )" class="stroke" mask="url(#Clip29)" />
  </g>
</svg>