<?xml version="1.0" encoding="utf-8"?>
<svg version="1.1" xmlns:xlink="http://www.w3.org/1999/xlink" width="50px" height="42px" xmlns="http://www.w3.org/2000/svg">
  <defs>
    <pattern id="BGPattern" patternUnits="userSpaceOnUse" alignment="0 0" imageRepeat="None" />
    <mask fill="white" id="Clip31">
      <path d="M 48.01682692307692 9.605113636363635  C 49.33894230769231 10.917613636363635  50 12.48863636363636  50 14.31818181818182  L 50 35.31818181818182  C 50 37.14772727272727  49.33894230769231 38.71875  48.01682692307692 40.03125  C 46.69471153846153 41.34375  45.112179487179496 42  43.269230769230774 42  L 6.730769230769231 42  C 4.887820512820514 42  3.305288461538462 41.34375  1.9831730769230769 40.03125  C 0.6610576923076923 38.71875  0 37.14772727272727  0 35.31818181818182  L 0 6.681818181818181  C 0 4.85227272727272  0.6610576923076923 3.28125  1.9831730769230769 1.96875  C 3.305288461538462 0.65625  4.887820512820514 0  6.730769230769231 0  L 16.346153846153847 0  C 18.189102564102566 0  19.771634615384613 0.65625  21.09375 1.96875  C 22.415865384615387 3.28125  23.076923076923077 4.85227272727272  23.076923076923077 6.681818181818181  L 23.076923076923077 8  L 43.269230769230774 8  C 45.112179487179496 7.636363636363634  46.69471153846153 8.292613636363635  48.01682692307692 9.605113636363635  Z " fill-rule="evenodd" />
    </mask>
  </defs>
  <g transform="matrix(1 0 0 1 -547 -366 )">
    <path d="M 48.01682692307692 9.605113636363635  C 49.33894230769231 10.917613636363635  50 12.48863636363636  50 14.31818181818182  L 50 35.31818181818182  C 50 37.14772727272727  49.33894230769231 38.71875  48.01682692307692 40.03125  C 46.69471153846153 41.34375  45.112179487179496 42  43.269230769230774 42  L 6.730769230769231 42  C 4.887820512820514 42  3.305288461538462 41.34375  1.9831730769230769 40.03125  C 0.6610576923076923 38.71875  0 37.14772727272727  0 35.31818181818182  L 0 6.681818181818181  C 0 4.85227272727272  0.6610576923076923 3.28125  1.9831730769230769 1.96875  C 3.305288461538462 0.65625  4.887820512820514 0  6.730769230769231 0  L 16.346153846153847 0  C 18.189102564102566 0  19.771634615384613 0.65625  21.09375 1.96875  C 22.415865384615387 3.28125  23.076923076923077 4.85227272727272  23.076923076923077 6.681818181818181  L 23.076923076923077 8  L 43.269230769230774 8  C 45.112179487179496 7.636363636363634  46.69471153846153 8.292613636363635  48.01682692307692 9.605113636363635  Z " fill-rule="nonzero" fill="rgba(0, 0, 0, 1)" stroke="none" transform="matrix(1 0 0 1 547 366 )" class="fill" />
    <path d="M 48.01682692307692 9.605113636363635  C 49.33894230769231 10.917613636363635  50 12.48863636363636  50 14.31818181818182  L 50 35.31818181818182  C 50 37.14772727272727  49.33894230769231 38.71875  48.01682692307692 40.03125  C 46.69471153846153 41.34375  45.112179487179496 42  43.269230769230774 42  L 6.730769230769231 42  C 4.887820512820514 42  3.305288461538462 41.34375  1.9831730769230769 40.03125  C 0.6610576923076923 38.71875  0 37.14772727272727  0 35.31818181818182  L 0 6.681818181818181  C 0 4.85227272727272  0.6610576923076923 3.28125  1.9831730769230769 1.96875  C 3.305288461538462 0.65625  4.887820512820514 0  6.730769230769231 0  L 16.346153846153847 0  C 18.189102564102566 0  19.771634615384613 0.65625  21.09375 1.96875  C 22.415865384615387 3.28125  23.076923076923077 4.85227272727272  23.076923076923077 6.681818181818181  L 23.076923076923077 8  L 43.269230769230774 8  C 45.112179487179496 7.636363636363634  46.69471153846153 8.292613636363635  48.01682692307692 9.605113636363635  Z " stroke-width="0" stroke-dasharray="0" stroke="rgba(255, 255, 255, 0)" fill="none" transform="matrix(1 0 0 1 547 366 )" class="stroke" mask="url(#Clip31)" />
  </g>
</svg>