<?xml version="1.0" encoding="utf-8"?>
<svg version="1.1" xmlns:xlink="http://www.w3.org/1999/xlink" width="43px" height="50px" xmlns="http://www.w3.org/2000/svg">
  <defs>
    <pattern id="BGPattern" patternUnits="userSpaceOnUse" alignment="0 0" imageRepeat="None" />
    <mask fill="white" id="Clip32">
      <path d="M 33.579752604166664 15.304129464285715  C 34.671549479166664 15.983072916666663  35.497395833333336 16.89918154761904  36.057291666666664 18.052455357142854  C 37.177083333333336 18.052455357142854  38.175564236111114 18.26636904761904  39.052734375 18.69419642857143  C 41.684244791666664 19.86607142857143  43 21.96800595238095  43 25  L 43 29.93861607142857  C 43 31.68712797619047  42.785373263888886 33.41703869047619  42.356119791666664 35.128348214285715  L 39.9765625 44.58705357142857  C 39.584635416666664 46.18675595238095  38.74012586805556 47.488839285714285  37.443033854166664 48.49330357142857  C 36.14594184027778 49.497767857142854  34.67621527777778 50  33.033854166666664 50  L 14.333333333333332 50  C 12.355034722222223 50  10.666015625 49.302455357142854  9.266276041666666 47.90736607142857  C 7.866536458333334 46.512276785714285  7.166666666666666 44.82886904761905  8 42.85714285714286  L 8 31.668526785714285  L 0.47591145833333337 14.146205357142854  C 0.15863715277777776 13.309151785714285  0 12.462797619047617  0 11.607142857142854  C 0 9.635416666666663  0.6998697916666667 7.952008928571431  2.099609375 6.556919642857145  C 3.499348958333334 5.161830357142855  5.188368055555555 4.464285714285715  7.166666666666666 4.464285714285715  C 8.659722222222223 4.464285714285715  10.017469618055555 4.887462797619041  11.239908854166668 5.733816964285715  C 12.462348090277777 6.580171130952378  13.334852430555557 7.691592261904756  13.857421875 9.068080357142854  L 14.333333333333332 10.29575892857143  L 14.333333333333332 7.142857142857145  C 14.333333333333332 5.171130952380948  15.033203125 3.4877232142857153  16.432942708333332 2.09263392857143  C 17.832682291666668 0.6975446428571452  19.52170138888889 0  21.5 0  C 23.478298611111114 0  25.167317708333336 0.6975446428571452  26.567057291666664 2.09263392857143  C 27.966796875 3.4877232142857153  28.666666666666664 5.171130952380948  28.666666666666664 7.142857142857145  L 28.666666666666664 14.425223214285715  C 29.170572916666664 14.332217261904756  29.618489583333336 14.285714285714285  30.010416666666664 14.285714285714285  C 31.298177083333336 14.285714285714285  32.487955729166664 14.625186011904756  33.579752604166664 15.304129464285715  Z M 32.222005208333336 18.777901785714285  C 31.606119791666664 18.1640625  30.868923611111114 17.857142857142854  30.010416666666664 17.857142857142854  C 29.39453125 17.857142857142854  28.82996961805556 18.02455357142857  28.316731770833336 18.359375  C 27.803493923611114 18.69419642857143  27.416232638888896 19.140625  27.154947916666664 19.698660714285715  L 25.083333333333336 24.246651785714285  L 23.095703125 28.57142857142857  L 24.635416666666664 28.57142857142857  C 25.568576388888896 28.57142857142857  26.408420138888896 28.86439732142857  27.154947916666664 29.45033482142857  C 27.901475694444446 30.03627232142857  28.368055555555554 30.784970238095234  28.5546875 31.69642857142857  L 32.865885416666664 22.265625  C 33.052517361111114 21.893601190476193  33.145833333333336 21.465773809523807  33.145833333333336 20.982142857142854  C 33.145833333333336 20.126488095238095  32.837890625 19.39174107142857  32.222005208333336 18.777901785714285  Z M 38.492838541666664 22.50279017857143  C 37.89561631944444 21.91685267857143  37.13042534722222 21.62388392857143  36.197265625 21.62388392857143  C 35.78667534722222 21.62388392857143  35.40874565972222 21.698288690476193  35.0634765625 21.847098214285715  C 34.71820746527778 21.995907738095237  34.447591145833336 22.144717261904763  34.251627604166664 22.293526785714285  C 34.0556640625 22.442336309523807  33.83637152777778 22.716703869047617  33.59375 23.116629464285715  C 33.35112847222222 23.516555059523807  33.19249131944444 23.800223214285715  33.117838541666664 23.96763392857143  C 33.04318576388889 24.135044642857146  32.884548611111114 24.479166666666664  32.641927083333336 25  L 28.946614583333336 33.09151785714286  C 28.759982638888896 33.463541666666664  28.666666666666664 33.891369047619044  28.666666666666664 34.375  C 28.666666666666664 35.23065476190476  28.974609375 35.965401785714285  29.590494791666664 36.57924107142857  C 30.206380208333336 37.19308035714286  30.943576388888896 37.5  31.802083333333336 37.5  C 32.41796875 37.5  32.98253038194444 37.332589285714285  33.495768229166664 36.99776785714286  C 34.00900607638889 36.66294642857143  34.396267361111114 36.21651785714286  34.657552083333336 35.65848214285714  L 39.13671875 25.83705357142857  C 39.3046875 25.50223214285714  39.388671875 25.148809523809522  39.388671875 24.776785714285715  C 39.388671875 23.846726190476193  39.09006076388889 23.08872767857143  38.492838541666664 22.50279017857143  Z M 4.633138020833333 9.08203125  C 3.933268229166667 9.779575892857146  3.583333333333333 10.621279761904756  3.583333333333333 11.607142857142854  C 3.583333333333333 12.01636904761904  3.657986111111112 12.44419642857143  3.807291666666667 12.890625  L 10.75 31.026785714285715  L 10.75 32.95200892857143  L 13.60546875 29.854910714285715  C 14.407986111111112 28.999255952380953  15.397135416666668 28.57142857142857  16.572916666666668 28.57142857142857  L 22.115885416666664 28.57142857142857  L 25 22.0703125  L 25 7.142857142857145  C 25.083333333333336 6.156994047619041  24.7333984375 5.315290178571431  24.033528645833336 4.617745535714285  C 23.333658854166664 3.920200892857145  22.489149305555554 3.57142857142857  21.5 3.57142857142857  C 20.510850694444446 3.57142857142857  19.666341145833332 3.920200892857145  18.966471354166668 4.617745535714285  C 18.2666015625 5.315290178571431  17.916666666666668 6.156994047619041  18 7.142857142857145  L 18 25  L 16.125 25  L 10.526041666666666 10.323660714285715  C 10.264756944444445 9.635416666666663  9.826171875 9.08203125  9.210286458333334 8.663504464285715  C 8.594401041666666 8.24497767857143  7.913194444444445 8.035714285714285  7.166666666666666 8.035714285714285  C 6.177517361111112 8.035714285714285  5.3330078125 8.384486607142854  4.633138020833333 9.08203125  Z M 14.333333333333332 46  L 33.033854166666664 46  C 33.85503472222222 46.42857142857143  34.587565104166664 46.177455357142854  35.2314453125 45.675223214285715  C 35.875325520833336 45.17299107142857  36.29991319444444 44.521949404761905  36.505208333333336 43.722098214285715  L 38.884765625 34.26339285714286  C 39.23936631944444 32.905505952380956  39.416666666666664 31.463913690476186  39.416666666666664 29.93861607142857  L 39.416666666666664 27.39955357142857  L 35.469401041666664 36.04910714285714  C 35.152126736111114 36.75595238095238  34.657552083333336 37.32328869047619  33.985677083333336 37.75111607142857  C 33.313802083333336 38.178943452380956  32.5859375 38.39285714285714  31.802083333333336 38.39285714285714  C 30.81293402777778 38.39285714285714  29.9404296875 38.07198660714286  29.1845703125 37.430245535714285  C 28.428710937500004 36.788504464285715  27.976128472222225 35.984002976190474  27.826822916666664 35.01674107142857  C 27.005642361111114 36.07700892857143  25.94184027777778 36.60714285714286  24.635416666666664 36.60714285714286  L 18.8125 36.60714285714286  L 18.8125 35.714285714285715  L 24.635416666666664 35.714285714285715  C 25.493923611111114 35.714285714285715  26.249782986111114 35.40736607142857  26.902994791666664 34.793526785714285  C 27.556206597222225 34.1796875  27.882812500000004 33.444940476190474  27.8828125 32.589285714285715  C 27.882812500000004 31.733630952380953  27.593532986111114 30.99888392857143  27.014973958333336 30.38504464285714  C 26.436414930555554 29.77120535714286  25.717881944444446 29.464285714285715  24.859375 29.464285714285715  L 16.572916666666668 29.464285714285715  C 15.65842013888889 29.464285714285715  14.893229166666668 29.79910714285714  14.27734375 30.46875  L 10.75 34.26339285714286  L 10.75 42.85714285714286  C 10.75 43.84300595238095  11.099934895833332 44.68470982142857  11.7998046875 45.382254464285715  C 12.499674479166668 46.079799107142854  13.34418402777778 46.42857142857143  14.333333333333332 46  Z " fill-rule="evenodd" />
    </mask>
  </defs>
  <g transform="matrix(1 0 0 1 -229 -893 )">
    <path d="M 33.579752604166664 15.304129464285715  C 34.671549479166664 15.983072916666663  35.497395833333336 16.89918154761904  36.057291666666664 18.052455357142854  C 37.177083333333336 18.052455357142854  38.175564236111114 18.26636904761904  39.052734375 18.69419642857143  C 41.684244791666664 19.86607142857143  43 21.96800595238095  43 25  L 43 29.93861607142857  C 43 31.68712797619047  42.785373263888886 33.41703869047619  42.356119791666664 35.128348214285715  L 39.9765625 44.58705357142857  C 39.584635416666664 46.18675595238095  38.74012586805556 47.488839285714285  37.443033854166664 48.49330357142857  C 36.14594184027778 49.497767857142854  34.67621527777778 50  33.033854166666664 50  L 14.333333333333332 50  C 12.355034722222223 50  10.666015625 49.302455357142854  9.266276041666666 47.90736607142857  C 7.866536458333334 46.512276785714285  7.166666666666666 44.82886904761905  8 42.85714285714286  L 8 31.668526785714285  L 0.47591145833333337 14.146205357142854  C 0.15863715277777776 13.309151785714285  0 12.462797619047617  0 11.607142857142854  C 0 9.635416666666663  0.6998697916666667 7.952008928571431  2.099609375 6.556919642857145  C 3.499348958333334 5.161830357142855  5.188368055555555 4.464285714285715  7.166666666666666 4.464285714285715  C 8.659722222222223 4.464285714285715  10.017469618055555 4.887462797619041  11.239908854166668 5.733816964285715  C 12.462348090277777 6.580171130952378  13.334852430555557 7.691592261904756  13.857421875 9.068080357142854  L 14.333333333333332 10.29575892857143  L 14.333333333333332 7.142857142857145  C 14.333333333333332 5.171130952380948  15.033203125 3.4877232142857153  16.432942708333332 2.09263392857143  C 17.832682291666668 0.6975446428571452  19.52170138888889 0  21.5 0  C 23.478298611111114 0  25.167317708333336 0.6975446428571452  26.567057291666664 2.09263392857143  C 27.966796875 3.4877232142857153  28.666666666666664 5.171130952380948  28.666666666666664 7.142857142857145  L 28.666666666666664 14.425223214285715  C 29.170572916666664 14.332217261904756  29.618489583333336 14.285714285714285  30.010416666666664 14.285714285714285  C 31.298177083333336 14.285714285714285  32.487955729166664 14.625186011904756  33.579752604166664 15.304129464285715  Z M 32.222005208333336 18.777901785714285  C 31.606119791666664 18.1640625  30.868923611111114 17.857142857142854  30.010416666666664 17.857142857142854  C 29.39453125 17.857142857142854  28.82996961805556 18.02455357142857  28.316731770833336 18.359375  C 27.803493923611114 18.69419642857143  27.416232638888896 19.140625  27.154947916666664 19.698660714285715  L 25.083333333333336 24.246651785714285  L 23.095703125 28.57142857142857  L 24.635416666666664 28.57142857142857  C 25.568576388888896 28.57142857142857  26.408420138888896 28.86439732142857  27.154947916666664 29.45033482142857  C 27.901475694444446 30.03627232142857  28.368055555555554 30.784970238095234  28.5546875 31.69642857142857  L 32.865885416666664 22.265625  C 33.052517361111114 21.893601190476193  33.145833333333336 21.465773809523807  33.145833333333336 20.982142857142854  C 33.145833333333336 20.126488095238095  32.837890625 19.39174107142857  32.222005208333336 18.777901785714285  Z M 38.492838541666664 22.50279017857143  C 37.89561631944444 21.91685267857143  37.13042534722222 21.62388392857143  36.197265625 21.62388392857143  C 35.78667534722222 21.62388392857143  35.40874565972222 21.698288690476193  35.0634765625 21.847098214285715  C 34.71820746527778 21.995907738095237  34.447591145833336 22.144717261904763  34.251627604166664 22.293526785714285  C 34.0556640625 22.442336309523807  33.83637152777778 22.716703869047617  33.59375 23.116629464285715  C 33.35112847222222 23.516555059523807  33.19249131944444 23.800223214285715  33.117838541666664 23.96763392857143  C 33.04318576388889 24.135044642857146  32.884548611111114 24.479166666666664  32.641927083333336 25  L 28.946614583333336 33.09151785714286  C 28.759982638888896 33.463541666666664  28.666666666666664 33.891369047619044  28.666666666666664 34.375  C 28.666666666666664 35.23065476190476  28.974609375 35.965401785714285  29.590494791666664 36.57924107142857  C 30.206380208333336 37.19308035714286  30.943576388888896 37.5  31.802083333333336 37.5  C 32.41796875 37.5  32.98253038194444 37.332589285714285  33.495768229166664 36.99776785714286  C 34.00900607638889 36.66294642857143  34.396267361111114 36.21651785714286  34.657552083333336 35.65848214285714  L 39.13671875 25.83705357142857  C 39.3046875 25.50223214285714  39.388671875 25.148809523809522  39.388671875 24.776785714285715  C 39.388671875 23.846726190476193  39.09006076388889 23.08872767857143  38.492838541666664 22.50279017857143  Z M 4.633138020833333 9.08203125  C 3.933268229166667 9.779575892857146  3.583333333333333 10.621279761904756  3.583333333333333 11.607142857142854  C 3.583333333333333 12.01636904761904  3.657986111111112 12.44419642857143  3.807291666666667 12.890625  L 10.75 31.026785714285715  L 10.75 32.95200892857143  L 13.60546875 29.854910714285715  C 14.407986111111112 28.999255952380953  15.397135416666668 28.57142857142857  16.572916666666668 28.57142857142857  L 22.115885416666664 28.57142857142857  L 25 22.0703125  L 25 7.142857142857145  C 25.083333333333336 6.156994047619041  24.7333984375 5.315290178571431  24.033528645833336 4.617745535714285  C 23.333658854166664 3.920200892857145  22.489149305555554 3.57142857142857  21.5 3.57142857142857  C 20.510850694444446 3.57142857142857  19.666341145833332 3.920200892857145  18.966471354166668 4.617745535714285  C 18.2666015625 5.315290178571431  17.916666666666668 6.156994047619041  18 7.142857142857145  L 18 25  L 16.125 25  L 10.526041666666666 10.323660714285715  C 10.264756944444445 9.635416666666663  9.826171875 9.08203125  9.210286458333334 8.663504464285715  C 8.594401041666666 8.24497767857143  7.913194444444445 8.035714285714285  7.166666666666666 8.035714285714285  C 6.177517361111112 8.035714285714285  5.3330078125 8.384486607142854  4.633138020833333 9.08203125  Z M 14.333333333333332 46  L 33.033854166666664 46  C 33.85503472222222 46.42857142857143  34.587565104166664 46.177455357142854  35.2314453125 45.675223214285715  C 35.875325520833336 45.17299107142857  36.29991319444444 44.521949404761905  36.505208333333336 43.722098214285715  L 38.884765625 34.26339285714286  C 39.23936631944444 32.905505952380956  39.416666666666664 31.463913690476186  39.416666666666664 29.93861607142857  L 39.416666666666664 27.39955357142857  L 35.469401041666664 36.04910714285714  C 35.152126736111114 36.75595238095238  34.657552083333336 37.32328869047619  33.985677083333336 37.75111607142857  C 33.313802083333336 38.178943452380956  32.5859375 38.39285714285714  31.802083333333336 38.39285714285714  C 30.81293402777778 38.39285714285714  29.9404296875 38.07198660714286  29.1845703125 37.430245535714285  C 28.428710937500004 36.788504464285715  27.976128472222225 35.984002976190474  27.826822916666664 35.01674107142857  C 27.005642361111114 36.07700892857143  25.94184027777778 36.60714285714286  24.635416666666664 36.60714285714286  L 18.8125 36.60714285714286  L 18.8125 35.714285714285715  L 24.635416666666664 35.714285714285715  C 25.493923611111114 35.714285714285715  26.249782986111114 35.40736607142857  26.902994791666664 34.793526785714285  C 27.556206597222225 34.1796875  27.882812500000004 33.444940476190474  27.8828125 32.589285714285715  C 27.882812500000004 31.733630952380953  27.593532986111114 30.99888392857143  27.014973958333336 30.38504464285714  C 26.436414930555554 29.77120535714286  25.717881944444446 29.464285714285715  24.859375 29.464285714285715  L 16.572916666666668 29.464285714285715  C 15.65842013888889 29.464285714285715  14.893229166666668 29.79910714285714  14.27734375 30.46875  L 10.75 34.26339285714286  L 10.75 42.85714285714286  C 10.75 43.84300595238095  11.099934895833332 44.68470982142857  11.7998046875 45.382254464285715  C 12.499674479166668 46.079799107142854  13.34418402777778 46.42857142857143  14.333333333333332 46  Z " fill-rule="nonzero" fill="rgba(0, 0, 0, 1)" stroke="none" transform="matrix(1 0 0 1 229 893 )" class="fill" />
    <path d="M 33.579752604166664 15.304129464285715  C 34.671549479166664 15.983072916666663  35.497395833333336 16.89918154761904  36.057291666666664 18.052455357142854  C 37.177083333333336 18.052455357142854  38.175564236111114 18.26636904761904  39.052734375 18.69419642857143  C 41.684244791666664 19.86607142857143  43 21.96800595238095  43 25  L 43 29.93861607142857  C 43 31.68712797619047  42.785373263888886 33.41703869047619  42.356119791666664 35.128348214285715  L 39.9765625 44.58705357142857  C 39.584635416666664 46.18675595238095  38.74012586805556 47.488839285714285  37.443033854166664 48.49330357142857  C 36.14594184027778 49.497767857142854  34.67621527777778 50  33.033854166666664 50  L 14.333333333333332 50  C 12.355034722222223 50  10.666015625 49.302455357142854  9.266276041666666 47.90736607142857  C 7.866536458333334 46.512276785714285  7.166666666666666 44.82886904761905  8 42.85714285714286  L 8 31.668526785714285  L 0.47591145833333337 14.146205357142854  C 0.15863715277777776 13.309151785714285  0 12.462797619047617  0 11.607142857142854  C 0 9.635416666666663  0.6998697916666667 7.952008928571431  2.099609375 6.556919642857145  C 3.499348958333334 5.161830357142855  5.188368055555555 4.464285714285715  7.166666666666666 4.464285714285715  C 8.659722222222223 4.464285714285715  10.017469618055555 4.887462797619041  11.239908854166668 5.733816964285715  C 12.462348090277777 6.580171130952378  13.334852430555557 7.691592261904756  13.857421875 9.068080357142854  L 14.333333333333332 10.29575892857143  L 14.333333333333332 7.142857142857145  C 14.333333333333332 5.171130952380948  15.033203125 3.4877232142857153  16.432942708333332 2.09263392857143  C 17.832682291666668 0.6975446428571452  19.52170138888889 0  21.5 0  C 23.478298611111114 0  25.167317708333336 0.6975446428571452  26.567057291666664 2.09263392857143  C 27.966796875 3.4877232142857153  28.666666666666664 5.171130952380948  28.666666666666664 7.142857142857145  L 28.666666666666664 14.425223214285715  C 29.170572916666664 14.332217261904756  29.618489583333336 14.285714285714285  30.010416666666664 14.285714285714285  C 31.298177083333336 14.285714285714285  32.487955729166664 14.625186011904756  33.579752604166664 15.304129464285715  Z " stroke-width="0" stroke-dasharray="0" stroke="rgba(255, 255, 255, 0)" fill="none" transform="matrix(1 0 0 1 229 893 )" class="stroke" mask="url(#Clip32)" />
    <path d="M 32.222005208333336 18.777901785714285  C 31.606119791666664 18.1640625  30.868923611111114 17.857142857142854  30.010416666666664 17.857142857142854  C 29.39453125 17.857142857142854  28.82996961805556 18.02455357142857  28.316731770833336 18.359375  C 27.803493923611114 18.69419642857143  27.416232638888896 19.140625  27.154947916666664 19.698660714285715  L 25.083333333333336 24.246651785714285  L 23.095703125 28.57142857142857  L 24.635416666666664 28.57142857142857  C 25.568576388888896 28.57142857142857  26.408420138888896 28.86439732142857  27.154947916666664 29.45033482142857  C 27.901475694444446 30.03627232142857  28.368055555555554 30.784970238095234  28.5546875 31.69642857142857  L 32.865885416666664 22.265625  C 33.052517361111114 21.893601190476193  33.145833333333336 21.465773809523807  33.145833333333336 20.982142857142854  C 33.145833333333336 20.126488095238095  32.837890625 19.39174107142857  32.222005208333336 18.777901785714285  Z " stroke-width="0" stroke-dasharray="0" stroke="rgba(255, 255, 255, 0)" fill="none" transform="matrix(1 0 0 1 229 893 )" class="stroke" mask="url(#Clip32)" />
    <path d="M 38.492838541666664 22.50279017857143  C 37.89561631944444 21.91685267857143  37.13042534722222 21.62388392857143  36.197265625 21.62388392857143  C 35.78667534722222 21.62388392857143  35.40874565972222 21.698288690476193  35.0634765625 21.847098214285715  C 34.71820746527778 21.995907738095237  34.447591145833336 22.144717261904763  34.251627604166664 22.293526785714285  C 34.0556640625 22.442336309523807  33.83637152777778 22.716703869047617  33.59375 23.116629464285715  C 33.35112847222222 23.516555059523807  33.19249131944444 23.800223214285715  33.117838541666664 23.96763392857143  C 33.04318576388889 24.135044642857146  32.884548611111114 24.479166666666664  32.641927083333336 25  L 28.946614583333336 33.09151785714286  C 28.759982638888896 33.463541666666664  28.666666666666664 33.891369047619044  28.666666666666664 34.375  C 28.666666666666664 35.23065476190476  28.974609375 35.965401785714285  29.590494791666664 36.57924107142857  C 30.206380208333336 37.19308035714286  30.943576388888896 37.5  31.802083333333336 37.5  C 32.41796875 37.5  32.98253038194444 37.332589285714285  33.495768229166664 36.99776785714286  C 34.00900607638889 36.66294642857143  34.396267361111114 36.21651785714286  34.657552083333336 35.65848214285714  L 39.13671875 25.83705357142857  C 39.3046875 25.50223214285714  39.388671875 25.148809523809522  39.388671875 24.776785714285715  C 39.388671875 23.846726190476193  39.09006076388889 23.08872767857143  38.492838541666664 22.50279017857143  Z " stroke-width="0" stroke-dasharray="0" stroke="rgba(255, 255, 255, 0)" fill="none" transform="matrix(1 0 0 1 229 893 )" class="stroke" mask="url(#Clip32)" />
    <path d="M 4.633138020833333 9.08203125  C 3.933268229166667 9.779575892857146  3.583333333333333 10.621279761904756  3.583333333333333 11.607142857142854  C 3.583333333333333 12.01636904761904  3.657986111111112 12.44419642857143  3.807291666666667 12.890625  L 10.75 31.026785714285715  L 10.75 32.95200892857143  L 13.60546875 29.854910714285715  C 14.407986111111112 28.999255952380953  15.397135416666668 28.57142857142857  16.572916666666668 28.57142857142857  L 22.115885416666664 28.57142857142857  L 25 22.0703125  L 25 7.142857142857145  C 25.083333333333336 6.156994047619041  24.7333984375 5.315290178571431  24.033528645833336 4.617745535714285  C 23.333658854166664 3.920200892857145  22.489149305555554 3.57142857142857  21.5 3.57142857142857  C 20.510850694444446 3.57142857142857  19.666341145833332 3.920200892857145  18.966471354166668 4.617745535714285  C 18.2666015625 5.315290178571431  17.916666666666668 6.156994047619041  18 7.142857142857145  L 18 25  L 16.125 25  L 10.526041666666666 10.323660714285715  C 10.264756944444445 9.635416666666663  9.826171875 9.08203125  9.210286458333334 8.663504464285715  C 8.594401041666666 8.24497767857143  7.913194444444445 8.035714285714285  7.166666666666666 8.035714285714285  C 6.177517361111112 8.035714285714285  5.3330078125 8.384486607142854  4.633138020833333 9.08203125  Z " stroke-width="0" stroke-dasharray="0" stroke="rgba(255, 255, 255, 0)" fill="none" transform="matrix(1 0 0 1 229 893 )" class="stroke" mask="url(#Clip32)" />
    <path d="M 14.333333333333332 46  L 33.033854166666664 46  C 33.85503472222222 46.42857142857143  34.587565104166664 46.177455357142854  35.2314453125 45.675223214285715  C 35.875325520833336 45.17299107142857  36.29991319444444 44.521949404761905  36.505208333333336 43.722098214285715  L 38.884765625 34.26339285714286  C 39.23936631944444 32.905505952380956  39.416666666666664 31.463913690476186  39.416666666666664 29.93861607142857  L 39.416666666666664 27.39955357142857  L 35.469401041666664 36.04910714285714  C 35.152126736111114 36.75595238095238  34.657552083333336 37.32328869047619  33.985677083333336 37.75111607142857  C 33.313802083333336 38.178943452380956  32.5859375 38.39285714285714  31.802083333333336 38.39285714285714  C 30.81293402777778 38.39285714285714  29.9404296875 38.07198660714286  29.1845703125 37.430245535714285  C 28.428710937500004 36.788504464285715  27.976128472222225 35.984002976190474  27.826822916666664 35.01674107142857  C 27.005642361111114 36.07700892857143  25.94184027777778 36.60714285714286  24.635416666666664 36.60714285714286  L 18.8125 36.60714285714286  L 18.8125 35.714285714285715  L 24.635416666666664 35.714285714285715  C 25.493923611111114 35.714285714285715  26.249782986111114 35.40736607142857  26.902994791666664 34.793526785714285  C 27.556206597222225 34.1796875  27.882812500000004 33.444940476190474  27.8828125 32.589285714285715  C 27.882812500000004 31.733630952380953  27.593532986111114 30.99888392857143  27.014973958333336 30.38504464285714  C 26.436414930555554 29.77120535714286  25.717881944444446 29.464285714285715  24.859375 29.464285714285715  L 16.572916666666668 29.464285714285715  C 15.65842013888889 29.464285714285715  14.893229166666668 29.79910714285714  14.27734375 30.46875  L 10.75 34.26339285714286  L 10.75 42.85714285714286  C 10.75 43.84300595238095  11.099934895833332 44.68470982142857  11.7998046875 45.382254464285715  C 12.499674479166668 46.079799107142854  13.34418402777778 46.42857142857143  14.333333333333332 46  Z " stroke-width="0" stroke-dasharray="0" stroke="rgba(255, 255, 255, 0)" fill="none" transform="matrix(1 0 0 1 229 893 )" class="stroke" mask="url(#Clip32)" />
  </g>
</svg>