<?xml version="1.0" encoding="utf-8"?>
<svg version="1.1" xmlns:xlink="http://www.w3.org/1999/xlink" width="109px" height="39px" xmlns="http://www.w3.org/2000/svg">
  <defs>
    <pattern id="BGPattern" patternUnits="userSpaceOnUse" alignment="0 0" imageRepeat="None" />
    <mask fill="white" id="Clip33">
      <path d="M 0 34  L 0 5  C 0 2.1999999999999993  2.1999999999999997 0  5 0  L 104 0  C 106.80000000000001 0  109 2.1999999999999993  109 5  L 109 34  C 109 36.8  106.80000000000001 39  104 39  L 5 39  C 2.1999999999999997 39  0 36.8  0 34  Z " fill-rule="evenodd" />
    </mask>
  </defs>
  <g transform="matrix(1 0 0 1 -427 -1005 )">
    <path d="M 0 34  L 0 5  C 0 2.1999999999999993  2.1999999999999997 0  5 0  L 104 0  C 106.80000000000001 0  109 2.1999999999999993  109 5  L 109 34  C 109 36.8  106.80000000000001 39  104 39  L 5 39  C 2.1999999999999997 39  0 36.8  0 34  Z " fill-rule="nonzero" fill="rgba(255, 255, 255, 1)" stroke="none" transform="matrix(1 0 0 1 427 1005 )" class="fill" />
    <path d="M 0 34  L 0 5  C 0 2.1999999999999993  2.1999999999999997 0  5 0  L 104 0  C 106.80000000000001 0  109 2.1999999999999993  109 5  L 109 34  C 109 36.8  106.80000000000001 39  104 39  L 5 39  C 2.1999999999999997 39  0 36.8  0 34  Z " stroke-width="2" stroke-dasharray="3,1" stroke="rgba(170, 170, 170, 1)" fill="none" transform="matrix(1 0 0 1 427 1005 )" class="stroke" mask="url(#Clip33)" />
  </g>
</svg>