<?xml version="1.0" encoding="utf-8"?>
<svg version="1.1" xmlns:xlink="http://www.w3.org/1999/xlink" width="36px" height="25px" xmlns="http://www.w3.org/2000/svg">
  <defs>
    <pattern id="BGPattern" patternUnits="userSpaceOnUse" alignment="0 0" imageRepeat="None" />
    <mask fill="white" id="Clip519">
      <path d="M 8.96484375 1.7178118745830555  C 11.72265625 0.572603958194351  14.734375000000002 0  18 0  C 21.265625 0  24.277343750000004 0.572603958194351  27.03515625 1.7178118745830555  C 29.79296875 2.8630197909717574  31.976562500000004 4.416833444518567  33.5859375 6.379252835223481  C 35.19531249999999 8.341672225928395  36 10.484767622859682  36 12.808539026017346  C 36 15.599288414498552  34.85546875 18.10929508561263  32.56640625 20.338559039359573  C 30.277343750000004 22.567822993106518  27.320312500000004 24.11051812319324  23.6953125 24.96664442961975  C 23.273437500000004 25.02223704692017  22.960937500000004 24.98332221480987  22.7578125 24.84989993328886  C 22.5546875 24.716477651767846  22.453125 24.549699799866577  22.453125 24.34956637758506  C 22.453125 24.3162108072048  22.45703125 23.890927284856573  22.46484375 23.07371581054036  C 22.472656250000004 22.25650433622415  22.4765625 21.50878363353347  22.4765625 20.830553702468315  C 22.4765625 19.752056926840115  22.0703125 18.962641761174115  21.2578125 18.46230820547031  C 22.1484375 18.395597064709808  22.94921875 18.295530353569045  23.66015625 18.162108072048035  C 24.371093750000004 18.028685790527017  25.105468750000004 17.81187458305537  25.86328125 17.511674449633087  C 26.621093750000004 17.211474316210808  27.253906250000004 16.841783411162996  27.76171875 16.402601734489657  C 28.269531250000004 15.963420057816318  28.683593750000004 15.379697576161885  29.00390625 14.65143428952635  C 29.324218750000004 13.923171002890816  29.484375 13.086502112519454  29.484375 12.141427618412276  C 29.484375 10.818323326662219  28.867187500000004 9.673115410273518  27.6328125 8.705803869246164  C 28.2109375 7.694018234378475  28.1484375 6.559928841449855  27.4453125 5.303535690460307  C 27.007812500000004 5.203468979319547  26.375000000000004 5.264620858350008  25.546875 5.486991327551702  C 24.718750000000004 5.70936179675339  24 5.953969312875252  23.390625 6.220813875917278  L 22.5 6.621080720480322  C 21.046875000000004 6.3319991105181215  19.546875000000004 6.1874583055370245  18 6.1874583055370245  C 16.453125 6.1874583055370245  14.953125 6.3319991105181215  13.5 6.621080720480322  C 13.25 6.498776962419389  12.917968750000002 6.3486768957082464  12.50390625 6.170780520346897  C 12.08984375 5.992884144985544  11.437500000000002 5.77885256837892  10.546875 5.528685790527018  C 9.65625 5.278519012675117  8.992187500000002 5.203468979319547  8.5546875 5.303535690460307  C 7.8515625 6.559928841449855  7.789062500000001 7.694018234378475  8.3671875 8.705803869246164  C 7.132812500000001 9.673115410273518  6.515625 10.818323326662219  6.515625 12.141427618412276  C 6.515625 13.086502112519454  6.675781250000001 13.920391372025795  6.99609375 14.643095396931288  C 7.31640625 15.36579942183678  7.726562500000001 15.949521903491215  8.2265625 16.394262841894598  C 8.726562500000002 16.839003780297972  9.355468750000002 17.211474316210808  10.11328125 17.511674449633087  C 10.87109375 17.81187458305537  11.605468750000002 18.028685790527017  12.31640625 18.162108072048035  C 13.027343750000002 18.295530353569045  13.828125 18.395597064709808  14.71875 18.46230820547031  C 14.109375 18.862575050033357  13.726562500000002 19.435179008227706  13.5703125 20.180120080053367  C 13.2421875 20.291305314654213  12.890625 20.37469424060485  12.515625 20.43028685790527  C 12.140625 20.485879475205692  11.6953125 20.513675783855902  11.1796875 20.513675783855902  C 10.664062500000002 20.513675783855902  10.152343750000002 20.394151656659997  9.64453125 20.15510340226818  C 9.13671875 19.916055147876364  8.703125 19.56860128974872  8.34375 19.11274182788526  C 8.046875 18.75694907716255  7.66796875 18.467867467200357  7.20703125 18.245496997998668  C 6.746093750000001 18.023126528796972  6.359375000000001 17.889704247275958  6.046875 17.845230153435622  L 5.578125 17.79519679786524  C 5.25 17.79519679786524  5.0234375 17.82021347565043  4.8984375 17.870246831220815  C 4.773437500000001 17.920280186791192  4.734375000000001 17.984211696686682  4.78125 18.062041360907273  C 4.828125 18.13987102512786  4.8984375 18.217700689348455  4.9921875 18.295530353569045  C 5.085937500000001 18.373360017789636  5.187500000000001 18.440071158550143  5.296875 18.495663775850566  L 5.4609375 18.579052701801203  C 5.8046875 18.690237936402042  6.144531250000001 18.90148988214365  6.48046875 19.212808539026017  C 6.816406250000001 19.52412719590838  7.062500000000001 19.807649544140535  7.21875 20.063375583722483  L 7.453125 20.4469646430954  C 7.656250000000001 20.869468534578605  8 21.211363130976206  8.484375 21.472648432288192  C 8.968750000000002 21.733933733600182  9.492187500000002 21.900711585501448  10.0546875 21.972981987991993  C 10.617187500000002 22.045252390482542  11.160156250000002 22.08416722259284  11.68359375 22.089726484322885  C 12.20703125 22.095285746052923  12.640625000000002 22.075828329997776  12.984375 22.031354236157437  L 13.5234375 21.964643095396934  C 13.5234375 22.38714698688014  13.527343750000002 22.87914164998888  13.53515625 23.440627084723147  C 13.54296875 24.002112519457416  13.546875 24.305092283744717  13.546875 24.34956637758506  C 13.546875 24.549699799866577  13.445312500000002 24.716477651767846  13.2421875 24.84989993328886  C 13.0390625 24.98332221480987  12.7265625 25.02223704692017  12.3046875 24.96664442961975  C 8.6796875 24.11051812319324  5.722656250000001 22.567822993106518  3.43359375 20.338559039359573  C 1.1445312499999998 18.10929508561263  0 15.599288414498552  0 12.808539026017346  C 0 10.484767622859682  0.8046874999999999 8.341672225928395  2.4140625 6.379252835223481  C 4.0234375 4.416833444518567  6.207031250000001 2.8630197909717574  8.96484375 1.7178118745830555  Z M 6.515625 18.42895263509006  C 6.65625 18.495663775850566  6.757812500000001 18.484545252390483  6.8203125 18.395597064709808  C 6.8671875 18.317767400489217  6.812500000000001 18.251056259728706  6.65625 18.195463642428287  C 6.500000000000001 18.162108072048035  6.3984375 18.173226595508112  6.3515625 18.22881921280854  C 6.3046875 18.306648877029126  6.359375000000001 18.373360017789636  6.515625 18.42895263509006  Z M 7.171875 18.912608405603738  C 7.328125 19.023793640204577  7.453125 19.040471425394706  7.546875 18.962641761174115  C 7.656250000000001 18.907049143873692  7.640625 18.818100956193017  7.5 18.695797198132087  C 7.343750000000001 18.59573048699133  7.21875 18.579052701801203  7.125 18.645763842561706  C 7.015625000000001 18.70135645986213  7.03125 18.790304647542804  7.171875 18.912608405603738  Z M 7.8515625 19.596397598398934  C 7.9921875 19.74093840338003  8.125 19.77985323549033  8.25 19.713142094729818  C 8.390625 19.635312430509227  8.390625 19.529686457638427  8.25 19.396264176117413  C 8.125 19.25172337113631  7.9921875 19.21836780075606  7.8515625 19.29619746497665  C 7.7109375 19.351790082277073  7.7109375 19.451856793417832  7.8515625 19.596397598398934  Z M 8.765625 20.363575717144762  C 8.953125 20.496997998665776  9.109375000000002 20.513675783855902  9.234375 20.413609072715143  C 9.359375 20.32466088503447  9.328125000000002 20.219034912163664  9.140625 20.096731154102734  C 8.953125 19.96330887258172  8.796875000000002 19.946631087391594  8.671875 20.046697798532353  C 8.53125 20.13564598621303  8.5625 20.241271959083832  8.765625 20.363575717144762  Z M 10.125 20.930620413609073  C 10.359375 20.99733155436958  10.5078125 20.963975983989325  10.5703125 20.830553702468315  C 10.6171875 20.708249944407385  10.515625000000002 20.619301756726706  10.265625 20.563709139426283  C 10.031250000000002 20.519235045585944  9.882812500000002 20.558149877696245  9.8203125 20.68045363575717  C 9.757812500000002 20.8027573938181  9.859375 20.886146319768734  10.125 20.930620413609073  Z M 11.671875 21.09739826551034  C 11.921875000000002 21.09739826551034  12.046875 21.036246386479874  12.046875 20.913942628418948  C 12.046875 20.769401823437846  11.9140625 20.708249944407385  11.6484375 20.730486991327552  C 11.3984375 20.730486991327552  11.2734375 20.791638870358017  11.2734375 20.913942628418948  C 11.2734375 21.058483433400045  11.40625 21.119635312430507  11.671875 21.09739826551034  Z M 13.078125 20.98065376917945  C 13.328125000000002 20.936179675339115  13.4375 20.858350011118524  13.40625 20.74716477651768  C 13.375000000000002 20.62486101845675  13.234375000000002 20.57482766288637  12.984375 20.59706470980654  C 12.734375 20.63042028018679  12.625000000000002 20.713809206137423  12.65625 20.847231487658437  C 12.6875 20.98065376917945  12.828125 21.025127863019794  13.078125 20.98065376917945  Z " fill-rule="evenodd" />
    </mask>
  </defs>
  <g transform="matrix(1 0 0 1 -1123 -1698 )">
    <path d="M 8.96484375 1.7178118745830555  C 11.72265625 0.572603958194351  14.734375000000002 0  18 0  C 21.265625 0  24.277343750000004 0.572603958194351  27.03515625 1.7178118745830555  C 29.79296875 2.8630197909717574  31.976562500000004 4.416833444518567  33.5859375 6.379252835223481  C 35.19531249999999 8.341672225928395  36 10.484767622859682  36 12.808539026017346  C 36 15.599288414498552  34.85546875 18.10929508561263  32.56640625 20.338559039359573  C 30.277343750000004 22.567822993106518  27.320312500000004 24.11051812319324  23.6953125 24.96664442961975  C 23.273437500000004 25.02223704692017  22.960937500000004 24.98332221480987  22.7578125 24.84989993328886  C 22.5546875 24.716477651767846  22.453125 24.549699799866577  22.453125 24.34956637758506  C 22.453125 24.3162108072048  22.45703125 23.890927284856573  22.46484375 23.07371581054036  C 22.472656250000004 22.25650433622415  22.4765625 21.50878363353347  22.4765625 20.830553702468315  C 22.4765625 19.752056926840115  22.0703125 18.962641761174115  21.2578125 18.46230820547031  C 22.1484375 18.395597064709808  22.94921875 18.295530353569045  23.66015625 18.162108072048035  C 24.371093750000004 18.028685790527017  25.105468750000004 17.81187458305537  25.86328125 17.511674449633087  C 26.621093750000004 17.211474316210808  27.253906250000004 16.841783411162996  27.76171875 16.402601734489657  C 28.269531250000004 15.963420057816318  28.683593750000004 15.379697576161885  29.00390625 14.65143428952635  C 29.324218750000004 13.923171002890816  29.484375 13.086502112519454  29.484375 12.141427618412276  C 29.484375 10.818323326662219  28.867187500000004 9.673115410273518  27.6328125 8.705803869246164  C 28.2109375 7.694018234378475  28.1484375 6.559928841449855  27.4453125 5.303535690460307  C 27.007812500000004 5.203468979319547  26.375000000000004 5.264620858350008  25.546875 5.486991327551702  C 24.718750000000004 5.70936179675339  24 5.953969312875252  23.390625 6.220813875917278  L 22.5 6.621080720480322  C 21.046875000000004 6.3319991105181215  19.546875000000004 6.1874583055370245  18 6.1874583055370245  C 16.453125 6.1874583055370245  14.953125 6.3319991105181215  13.5 6.621080720480322  C 13.25 6.498776962419389  12.917968750000002 6.3486768957082464  12.50390625 6.170780520346897  C 12.08984375 5.992884144985544  11.437500000000002 5.77885256837892  10.546875 5.528685790527018  C 9.65625 5.278519012675117  8.992187500000002 5.203468979319547  8.5546875 5.303535690460307  C 7.8515625 6.559928841449855  7.789062500000001 7.694018234378475  8.3671875 8.705803869246164  C 7.132812500000001 9.673115410273518  6.515625 10.818323326662219  6.515625 12.141427618412276  C 6.515625 13.086502112519454  6.675781250000001 13.920391372025795  6.99609375 14.643095396931288  C 7.31640625 15.36579942183678  7.726562500000001 15.949521903491215  8.2265625 16.394262841894598  C 8.726562500000002 16.839003780297972  9.355468750000002 17.211474316210808  10.11328125 17.511674449633087  C 10.87109375 17.81187458305537  11.605468750000002 18.028685790527017  12.31640625 18.162108072048035  C 13.027343750000002 18.295530353569045  13.828125 18.395597064709808  14.71875 18.46230820547031  C 14.109375 18.862575050033357  13.726562500000002 19.435179008227706  13.5703125 20.180120080053367  C 13.2421875 20.291305314654213  12.890625 20.37469424060485  12.515625 20.43028685790527  C 12.140625 20.485879475205692  11.6953125 20.513675783855902  11.1796875 20.513675783855902  C 10.664062500000002 20.513675783855902  10.152343750000002 20.394151656659997  9.64453125 20.15510340226818  C 9.13671875 19.916055147876364  8.703125 19.56860128974872  8.34375 19.11274182788526  C 8.046875 18.75694907716255  7.66796875 18.467867467200357  7.20703125 18.245496997998668  C 6.746093750000001 18.023126528796972  6.359375000000001 17.889704247275958  6.046875 17.845230153435622  L 5.578125 17.79519679786524  C 5.25 17.79519679786524  5.0234375 17.82021347565043  4.8984375 17.870246831220815  C 4.773437500000001 17.920280186791192  4.734375000000001 17.984211696686682  4.78125 18.062041360907273  C 4.828125 18.13987102512786  4.8984375 18.217700689348455  4.9921875 18.295530353569045  C 5.085937500000001 18.373360017789636  5.187500000000001 18.440071158550143  5.296875 18.495663775850566  L 5.4609375 18.579052701801203  C 5.8046875 18.690237936402042  6.144531250000001 18.90148988214365  6.48046875 19.212808539026017  C 6.816406250000001 19.52412719590838  7.062500000000001 19.807649544140535  7.21875 20.063375583722483  L 7.453125 20.4469646430954  C 7.656250000000001 20.869468534578605  8 21.211363130976206  8.484375 21.472648432288192  C 8.968750000000002 21.733933733600182  9.492187500000002 21.900711585501448  10.0546875 21.972981987991993  C 10.617187500000002 22.045252390482542  11.160156250000002 22.08416722259284  11.68359375 22.089726484322885  C 12.20703125 22.095285746052923  12.640625000000002 22.075828329997776  12.984375 22.031354236157437  L 13.5234375 21.964643095396934  C 13.5234375 22.38714698688014  13.527343750000002 22.87914164998888  13.53515625 23.440627084723147  C 13.54296875 24.002112519457416  13.546875 24.305092283744717  13.546875 24.34956637758506  C 13.546875 24.549699799866577  13.445312500000002 24.716477651767846  13.2421875 24.84989993328886  C 13.0390625 24.98332221480987  12.7265625 25.02223704692017  12.3046875 24.96664442961975  C 8.6796875 24.11051812319324  5.722656250000001 22.567822993106518  3.43359375 20.338559039359573  C 1.1445312499999998 18.10929508561263  0 15.599288414498552  0 12.808539026017346  C 0 10.484767622859682  0.8046874999999999 8.341672225928395  2.4140625 6.379252835223481  C 4.0234375 4.416833444518567  6.207031250000001 2.8630197909717574  8.96484375 1.7178118745830555  Z M 6.515625 18.42895263509006  C 6.65625 18.495663775850566  6.757812500000001 18.484545252390483  6.8203125 18.395597064709808  C 6.8671875 18.317767400489217  6.812500000000001 18.251056259728706  6.65625 18.195463642428287  C 6.500000000000001 18.162108072048035  6.3984375 18.173226595508112  6.3515625 18.22881921280854  C 6.3046875 18.306648877029126  6.359375000000001 18.373360017789636  6.515625 18.42895263509006  Z M 7.171875 18.912608405603738  C 7.328125 19.023793640204577  7.453125 19.040471425394706  7.546875 18.962641761174115  C 7.656250000000001 18.907049143873692  7.640625 18.818100956193017  7.5 18.695797198132087  C 7.343750000000001 18.59573048699133  7.21875 18.579052701801203  7.125 18.645763842561706  C 7.015625000000001 18.70135645986213  7.03125 18.790304647542804  7.171875 18.912608405603738  Z M 7.8515625 19.596397598398934  C 7.9921875 19.74093840338003  8.125 19.77985323549033  8.25 19.713142094729818  C 8.390625 19.635312430509227  8.390625 19.529686457638427  8.25 19.396264176117413  C 8.125 19.25172337113631  7.9921875 19.21836780075606  7.8515625 19.29619746497665  C 7.7109375 19.351790082277073  7.7109375 19.451856793417832  7.8515625 19.596397598398934  Z M 8.765625 20.363575717144762  C 8.953125 20.496997998665776  9.109375000000002 20.513675783855902  9.234375 20.413609072715143  C 9.359375 20.32466088503447  9.328125000000002 20.219034912163664  9.140625 20.096731154102734  C 8.953125 19.96330887258172  8.796875000000002 19.946631087391594  8.671875 20.046697798532353  C 8.53125 20.13564598621303  8.5625 20.241271959083832  8.765625 20.363575717144762  Z M 10.125 20.930620413609073  C 10.359375 20.99733155436958  10.5078125 20.963975983989325  10.5703125 20.830553702468315  C 10.6171875 20.708249944407385  10.515625000000002 20.619301756726706  10.265625 20.563709139426283  C 10.031250000000002 20.519235045585944  9.882812500000002 20.558149877696245  9.8203125 20.68045363575717  C 9.757812500000002 20.8027573938181  9.859375 20.886146319768734  10.125 20.930620413609073  Z M 11.671875 21.09739826551034  C 11.921875000000002 21.09739826551034  12.046875 21.036246386479874  12.046875 20.913942628418948  C 12.046875 20.769401823437846  11.9140625 20.708249944407385  11.6484375 20.730486991327552  C 11.3984375 20.730486991327552  11.2734375 20.791638870358017  11.2734375 20.913942628418948  C 11.2734375 21.058483433400045  11.40625 21.119635312430507  11.671875 21.09739826551034  Z M 13.078125 20.98065376917945  C 13.328125000000002 20.936179675339115  13.4375 20.858350011118524  13.40625 20.74716477651768  C 13.375000000000002 20.62486101845675  13.234375000000002 20.57482766288637  12.984375 20.59706470980654  C 12.734375 20.63042028018679  12.625000000000002 20.713809206137423  12.65625 20.847231487658437  C 12.6875 20.98065376917945  12.828125 21.025127863019794  13.078125 20.98065376917945  Z " fill-rule="nonzero" fill="rgba(0, 0, 0, 0.7607843137254902)" stroke="none" transform="matrix(1 0 0 1 1123 1698 )" class="fill" />
    <path d="M 8.96484375 1.7178118745830555  C 11.72265625 0.572603958194351  14.734375000000002 0  18 0  C 21.265625 0  24.277343750000004 0.572603958194351  27.03515625 1.7178118745830555  C 29.79296875 2.8630197909717574  31.976562500000004 4.416833444518567  33.5859375 6.379252835223481  C 35.19531249999999 8.341672225928395  36 10.484767622859682  36 12.808539026017346  C 36 15.599288414498552  34.85546875 18.10929508561263  32.56640625 20.338559039359573  C 30.277343750000004 22.567822993106518  27.320312500000004 24.11051812319324  23.6953125 24.96664442961975  C 23.273437500000004 25.02223704692017  22.960937500000004 24.98332221480987  22.7578125 24.84989993328886  C 22.5546875 24.716477651767846  22.453125 24.549699799866577  22.453125 24.34956637758506  C 22.453125 24.3162108072048  22.45703125 23.890927284856573  22.46484375 23.07371581054036  C 22.472656250000004 22.25650433622415  22.4765625 21.50878363353347  22.4765625 20.830553702468315  C 22.4765625 19.752056926840115  22.0703125 18.962641761174115  21.2578125 18.46230820547031  C 22.1484375 18.395597064709808  22.94921875 18.295530353569045  23.66015625 18.162108072048035  C 24.371093750000004 18.028685790527017  25.105468750000004 17.81187458305537  25.86328125 17.511674449633087  C 26.621093750000004 17.211474316210808  27.253906250000004 16.841783411162996  27.76171875 16.402601734489657  C 28.269531250000004 15.963420057816318  28.683593750000004 15.379697576161885  29.00390625 14.65143428952635  C 29.324218750000004 13.923171002890816  29.484375 13.086502112519454  29.484375 12.141427618412276  C 29.484375 10.818323326662219  28.867187500000004 9.673115410273518  27.6328125 8.705803869246164  C 28.2109375 7.694018234378475  28.1484375 6.559928841449855  27.4453125 5.303535690460307  C 27.007812500000004 5.203468979319547  26.375000000000004 5.264620858350008  25.546875 5.486991327551702  C 24.718750000000004 5.70936179675339  24 5.953969312875252  23.390625 6.220813875917278  L 22.5 6.621080720480322  C 21.046875000000004 6.3319991105181215  19.546875000000004 6.1874583055370245  18 6.1874583055370245  C 16.453125 6.1874583055370245  14.953125 6.3319991105181215  13.5 6.621080720480322  C 13.25 6.498776962419389  12.917968750000002 6.3486768957082464  12.50390625 6.170780520346897  C 12.08984375 5.992884144985544  11.437500000000002 5.77885256837892  10.546875 5.528685790527018  C 9.65625 5.278519012675117  8.992187500000002 5.203468979319547  8.5546875 5.303535690460307  C 7.8515625 6.559928841449855  7.789062500000001 7.694018234378475  8.3671875 8.705803869246164  C 7.132812500000001 9.673115410273518  6.515625 10.818323326662219  6.515625 12.141427618412276  C 6.515625 13.086502112519454  6.675781250000001 13.920391372025795  6.99609375 14.643095396931288  C 7.31640625 15.36579942183678  7.726562500000001 15.949521903491215  8.2265625 16.394262841894598  C 8.726562500000002 16.839003780297972  9.355468750000002 17.211474316210808  10.11328125 17.511674449633087  C 10.87109375 17.81187458305537  11.605468750000002 18.028685790527017  12.31640625 18.162108072048035  C 13.027343750000002 18.295530353569045  13.828125 18.395597064709808  14.71875 18.46230820547031  C 14.109375 18.862575050033357  13.726562500000002 19.435179008227706  13.5703125 20.180120080053367  C 13.2421875 20.291305314654213  12.890625 20.37469424060485  12.515625 20.43028685790527  C 12.140625 20.485879475205692  11.6953125 20.513675783855902  11.1796875 20.513675783855902  C 10.664062500000002 20.513675783855902  10.152343750000002 20.394151656659997  9.64453125 20.15510340226818  C 9.13671875 19.916055147876364  8.703125 19.56860128974872  8.34375 19.11274182788526  C 8.046875 18.75694907716255  7.66796875 18.467867467200357  7.20703125 18.245496997998668  C 6.746093750000001 18.023126528796972  6.359375000000001 17.889704247275958  6.046875 17.845230153435622  L 5.578125 17.79519679786524  C 5.25 17.79519679786524  5.0234375 17.82021347565043  4.8984375 17.870246831220815  C 4.773437500000001 17.920280186791192  4.734375000000001 17.984211696686682  4.78125 18.062041360907273  C 4.828125 18.13987102512786  4.8984375 18.217700689348455  4.9921875 18.295530353569045  C 5.085937500000001 18.373360017789636  5.187500000000001 18.440071158550143  5.296875 18.495663775850566  L 5.4609375 18.579052701801203  C 5.8046875 18.690237936402042  6.144531250000001 18.90148988214365  6.48046875 19.212808539026017  C 6.816406250000001 19.52412719590838  7.062500000000001 19.807649544140535  7.21875 20.063375583722483  L 7.453125 20.4469646430954  C 7.656250000000001 20.869468534578605  8 21.211363130976206  8.484375 21.472648432288192  C 8.968750000000002 21.733933733600182  9.492187500000002 21.900711585501448  10.0546875 21.972981987991993  C 10.617187500000002 22.045252390482542  11.160156250000002 22.08416722259284  11.68359375 22.089726484322885  C 12.20703125 22.095285746052923  12.640625000000002 22.075828329997776  12.984375 22.031354236157437  L 13.5234375 21.964643095396934  C 13.5234375 22.38714698688014  13.527343750000002 22.87914164998888  13.53515625 23.440627084723147  C 13.54296875 24.002112519457416  13.546875 24.305092283744717  13.546875 24.34956637758506  C 13.546875 24.549699799866577  13.445312500000002 24.716477651767846  13.2421875 24.84989993328886  C 13.0390625 24.98332221480987  12.7265625 25.02223704692017  12.3046875 24.96664442961975  C 8.6796875 24.11051812319324  5.722656250000001 22.567822993106518  3.43359375 20.338559039359573  C 1.1445312499999998 18.10929508561263  0 15.599288414498552  0 12.808539026017346  C 0 10.484767622859682  0.8046874999999999 8.341672225928395  2.4140625 6.379252835223481  C 4.0234375 4.416833444518567  6.207031250000001 2.8630197909717574  8.96484375 1.7178118745830555  Z " stroke-width="0" stroke-dasharray="0" stroke="rgba(255, 255, 255, 0)" fill="none" transform="matrix(1 0 0 1 1123 1698 )" class="stroke" mask="url(#Clip519)" />
    <path d="M 6.515625 18.42895263509006  C 6.65625 18.495663775850566  6.757812500000001 18.484545252390483  6.8203125 18.395597064709808  C 6.8671875 18.317767400489217  6.812500000000001 18.251056259728706  6.65625 18.195463642428287  C 6.500000000000001 18.162108072048035  6.3984375 18.173226595508112  6.3515625 18.22881921280854  C 6.3046875 18.306648877029126  6.359375000000001 18.373360017789636  6.515625 18.42895263509006  Z " stroke-width="0" stroke-dasharray="0" stroke="rgba(255, 255, 255, 0)" fill="none" transform="matrix(1 0 0 1 1123 1698 )" class="stroke" mask="url(#Clip519)" />
    <path d="M 7.171875 18.912608405603738  C 7.328125 19.023793640204577  7.453125 19.040471425394706  7.546875 18.962641761174115  C 7.656250000000001 18.907049143873692  7.640625 18.818100956193017  7.5 18.695797198132087  C 7.343750000000001 18.59573048699133  7.21875 18.579052701801203  7.125 18.645763842561706  C 7.015625000000001 18.70135645986213  7.03125 18.790304647542804  7.171875 18.912608405603738  Z " stroke-width="0" stroke-dasharray="0" stroke="rgba(255, 255, 255, 0)" fill="none" transform="matrix(1 0 0 1 1123 1698 )" class="stroke" mask="url(#Clip519)" />
    <path d="M 7.8515625 19.596397598398934  C 7.9921875 19.74093840338003  8.125 19.77985323549033  8.25 19.713142094729818  C 8.390625 19.635312430509227  8.390625 19.529686457638427  8.25 19.396264176117413  C 8.125 19.25172337113631  7.9921875 19.21836780075606  7.8515625 19.29619746497665  C 7.7109375 19.351790082277073  7.7109375 19.451856793417832  7.8515625 19.596397598398934  Z " stroke-width="0" stroke-dasharray="0" stroke="rgba(255, 255, 255, 0)" fill="none" transform="matrix(1 0 0 1 1123 1698 )" class="stroke" mask="url(#Clip519)" />
    <path d="M 8.765625 20.363575717144762  C 8.953125 20.496997998665776  9.109375000000002 20.513675783855902  9.234375 20.413609072715143  C 9.359375 20.32466088503447  9.328125000000002 20.219034912163664  9.140625 20.096731154102734  C 8.953125 19.96330887258172  8.796875000000002 19.946631087391594  8.671875 20.046697798532353  C 8.53125 20.13564598621303  8.5625 20.241271959083832  8.765625 20.363575717144762  Z " stroke-width="0" stroke-dasharray="0" stroke="rgba(255, 255, 255, 0)" fill="none" transform="matrix(1 0 0 1 1123 1698 )" class="stroke" mask="url(#Clip519)" />
    <path d="M 10.125 20.930620413609073  C 10.359375 20.99733155436958  10.5078125 20.963975983989325  10.5703125 20.830553702468315  C 10.6171875 20.708249944407385  10.515625000000002 20.619301756726706  10.265625 20.563709139426283  C 10.031250000000002 20.519235045585944  9.882812500000002 20.558149877696245  9.8203125 20.68045363575717  C 9.757812500000002 20.8027573938181  9.859375 20.886146319768734  10.125 20.930620413609073  Z " stroke-width="0" stroke-dasharray="0" stroke="rgba(255, 255, 255, 0)" fill="none" transform="matrix(1 0 0 1 1123 1698 )" class="stroke" mask="url(#Clip519)" />
    <path d="M 11.671875 21.09739826551034  C 11.921875000000002 21.09739826551034  12.046875 21.036246386479874  12.046875 20.913942628418948  C 12.046875 20.769401823437846  11.9140625 20.708249944407385  11.6484375 20.730486991327552  C 11.3984375 20.730486991327552  11.2734375 20.791638870358017  11.2734375 20.913942628418948  C 11.2734375 21.058483433400045  11.40625 21.119635312430507  11.671875 21.09739826551034  Z " stroke-width="0" stroke-dasharray="0" stroke="rgba(255, 255, 255, 0)" fill="none" transform="matrix(1 0 0 1 1123 1698 )" class="stroke" mask="url(#Clip519)" />
    <path d="M 13.078125 20.98065376917945  C 13.328125000000002 20.936179675339115  13.4375 20.858350011118524  13.40625 20.74716477651768  C 13.375000000000002 20.62486101845675  13.234375000000002 20.57482766288637  12.984375 20.59706470980654  C 12.734375 20.63042028018679  12.625000000000002 20.713809206137423  12.65625 20.847231487658437  C 12.6875 20.98065376917945  12.828125 21.025127863019794  13.078125 20.98065376917945  Z " stroke-width="0" stroke-dasharray="0" stroke="rgba(255, 255, 255, 0)" fill="none" transform="matrix(1 0 0 1 1123 1698 )" class="stroke" mask="url(#Clip519)" />
  </g>
</svg>