<?xml version="1.0" encoding="utf-8"?>
<svg version="1.1" xmlns:xlink="http://www.w3.org/1999/xlink" width="38px" height="26px" xmlns="http://www.w3.org/2000/svg">
  <defs>
    <pattern id="BGPattern" patternUnits="userSpaceOnUse" alignment="0 0" imageRepeat="None" />
    <mask fill="white" id="Clip520">
      <path d="M 23.477864583333332 16.063802083333336  C 24.71484375 15.217447916666664  25.333333333333332 14.196180555555555  25.333333333333332 13  C 25.333333333333332 11.803819444444443  24.71484375 10.782552083333332  23.477864583333332 9.936197916666668  C 22.240885416666668 9.08984375  20.748263888888893 8.666666666666668  19 8.666666666666668  C 17.25173611111111 8.666666666666668  15.759114583333334 9.08984375  14.522135416666666 9.936197916666668  C 13.28515625 10.782552083333332  12.666666666666666 11.803819444444443  12.666666666666666 13  C 12.666666666666666 14.196180555555555  13.28515625 15.217447916666664  14.522135416666666 16.063802083333336  C 15.759114583333334 16.91015625  17.25173611111111 17.333333333333336  19 17.333333333333336  C 20.748263888888893 17.333333333333336  22.240885416666668 16.91015625  23.477864583333332 16.063802083333336  Z M 25.90234375 8.27734375  C 27.799045138888893 9.575086805555552  28.747395833333332 11.149305555555552  28.747395833333332 13  C 28.747395833333332 14.850694444444445  27.799045138888893 16.424913194444446  25.90234375 17.72265625  C 24.00564236111111 19.020399305555554  21.70486111111111 19.669270833333332  19 19.669270833333332  C 16.29513888888889 19.669270833333332  13.99435763888889 19.020399305555554  12.09765625 17.72265625  C 10.200954861111112 16.424913194444446  9.252604166666668 14.850694444444445  9.252604166666668 13  C 9.252604166666668 11.149305555555552  10.200954861111112 9.575086805555552  12.09765625 8.27734375  C 13.99435763888889 6.979600694444442  16.29513888888889 6.330729166666668  19 6.330729166666668  C 21.70486111111111 6.330729166666668  24.00564236111111 6.979600694444442  25.90234375 8.27734375  Z M 30.751302083333332 4.959635416666668  C 31.196614583333332 5.264322916666668  31.419270833333332 5.6310763888888875  31.419270833333332 6.059895833333332  C 31.419270833333332 6.488715277777778  31.196614583333332 6.85546875  30.751302083333332 7.16015625  C 30.305989583333332 7.46484375  29.76996527777778 7.6171875  29.143229166666668 7.6171875  C 28.516493055555557 7.6171875  27.98046875 7.46484375  27.53515625 7.16015625  C 27.08984375 6.85546875  26.8671875 6.488715277777778  26.8671875 6.059895833333332  C 26.8671875 5.6310763888888875  27.08984375 5.264322916666668  27.53515625 4.959635416666668  C 27.98046875 4.654947916666668  28.516493055555557 4.502604166666668  29.143229166666668 4.502604166666668  C 29.76996527777778 4.502604166666668  30.305989583333332 4.654947916666668  30.751302083333332 4.959635416666668  Z M 20.892578125 2.327473958333332  C 19.746310763888893 2.333116319444442  19.115451388888893 2.3359375  19 2.3359375  C 18.88454861111111 2.3359375  18.25368923611111 2.333116319444442  17.107421875 2.327473958333332  C 15.96115451388889 2.3218315972222197  15.091145833333334 2.3218315972222197  14.497395833333334 2.327473958333332  C 13.903645833333334 2.333116319444442  13.107855902777779 2.3500434027777777  12.110026041666666 2.378255208333332  C 11.112196180555559 2.4064670138888875  10.262803819444446 2.462890625  9.561848958333334 2.547526041666668  C 8.860894097222223 2.632161458333332  8.271267361111112 2.7365451388888875  7.79296875 2.860677083333332  C 6.968315972222223 3.0863715277777777  6.242621527777778 3.4136284722222197  5.615885416666667 3.842447916666668  C 4.989149305555556 4.27126736111111  4.510850694444445 4.7677951388888875  4.180989583333334 5.33203125  C 3.9995659722222223 5.659288194444442  3.8470052083333335 6.0627170138888875  3.7233072916666665 6.542317708333332  C 3.599609375 7.021918402777778  3.5171440972222223 7.60308159722222  3.4759114583333335 8.285807291666668  C 3.4346788194444446 8.96853298611111  3.4099392361111116 9.513020833333332  3.4016927083333335 9.919270833333332  C 3.3934461805555562 10.325520833333332  3.3934461805555562 10.920789930555552  3.4016927083333335 11.705078125  C 3.4099392361111116 12.489366319444443  3.4140625 12.921006944444443  3.4140625 13  C 3.4140625 13.078993055555555  3.4099392361111116 13.510633680555555  3.4016927083333335 14.294921875  C 3.3934461805555562 15.079210069444445  3.3934461805555562 15.674479166666664  3.4016927083333335 16.080729166666664  C 3.4099392361111116 16.486979166666664  3.4346788194444446 17.031467013888886  3.4759114583333335 17.714192708333336  C 3.5171440972222223 18.396918402777775  3.599609375 18.97808159722222  3.7233072916666665 19.457682291666664  C 3.8470052083333335 19.93728298611111  3.9995659722222223 20.340711805555554  4.180989583333334 20.66796875  C 4.510850694444445 21.23220486111111  4.989149305555556 21.72873263888889  5.615885416666667 22.157552083333332  C 6.242621527777778 22.58637152777778  6.968315972222223 22.91362847222222  7.79296875 23.139322916666668  C 8.271267361111112 23.26345486111111  8.860894097222223 23.367838541666668  9.561848958333334 23.452473958333332  C 10.262803819444446 23.537109375  11.112196180555559 23.59353298611111  12.110026041666666 23.621744791666668  C 13.107855902777779 23.64995659722222  13.903645833333334 23.666883680555557  14.497395833333334 23.672526041666668  C 15.091145833333334 23.67816840277778  15.96115451388889 23.67816840277778  17.107421875 23.672526041666668  C 18.25368923611111 23.666883680555557  18.88454861111111 23.6640625  19 23.6640625  C 19.115451388888893 23.6640625  19.746310763888893 23.666883680555557  20.892578125 23.672526041666668  C 22.03884548611111 23.67816840277778  22.908854166666668 23.67816840277778  23.502604166666668 23.672526041666668  C 24.096354166666668 23.666883680555557  24.892144097222225 23.64995659722222  25.889973958333332 23.621744791666668  C 26.88780381944445 23.59353298611111  27.737196180555557 23.537109375  28.438151041666668 23.452473958333332  C 29.13910590277778 23.367838541666668  29.728732638888893 23.26345486111111  30.20703125 23.139322916666668  C 31.03168402777778 22.91362847222222  31.757378472222225 22.58637152777778  32.38411458333333 22.157552083333332  C 33.01085069444445 21.72873263888889  33.48914930555556 21.23220486111111  33.81901041666667 20.66796875  C 34.00043402777778 20.340711805555554  34.15299479166667 19.93728298611111  34.27669270833333 19.457682291666664  C 34.400390625 18.97808159722222  34.48285590277778 18.396918402777775  34.52408854166667 17.714192708333336  C 34.56532118055556 17.031467013888886  34.59006076388889 16.486979166666664  34.59830729166667 16.080729166666664  C 34.60655381944445 15.674479166666664  34.60655381944445 15.079210069444445  34.59830729166667 14.294921875  C 34.59006076388889 13.510633680555555  34.5859375 13.078993055555555  34.5859375 13  C 34.5859375 12.921006944444443  34.59006076388889 12.489366319444443  34.59830729166667 11.705078125  C 34.60655381944445 10.920789930555552  34.60655381944445 10.325520833333332  34.59830729166667 9.919270833333332  C 34.59006076388889 9.513020833333332  34.56532118055556 8.96853298611111  34.52408854166667 8.285807291666668  C 34.48285590277778 7.60308159722222  34.400390625 7.021918402777778  34.27669270833333 6.542317708333332  C 34.15299479166667 6.0627170138888875  34.00043402777778 5.659288194444442  33.81901041666667 5.33203125  C 33.48914930555556 4.7677951388888875  33.01085069444445 4.27126736111111  32.38411458333333 3.842447916666668  C 31.757378472222225 3.4136284722222197  31.03168402777778 3.0863715277777777  30.20703125 2.860677083333332  C 29.728732638888893 2.7365451388888875  29.13910590277778 2.632161458333332  28.438151041666668 2.547526041666668  C 27.737196180555557 2.462890625  26.88780381944445 2.4064670138888875  25.889973958333332 2.378255208333332  C 24.892144097222225 2.3500434027777777  24.096354166666668 2.333116319444442  23.502604166666668 2.327473958333332  C 22.908854166666668 2.3218315972222197  22.03884548611111 2.3218315972222197  20.892578125 2.327473958333332  Z M 37.87630208333333 7.634114583333332  C 37.95876736111111 8.627170138888888  38 10.41579861111111  38 13  C 38 15.58420138888889  37.95876736111111 17.37282986111111  37.87630208333333 18.365885416666664  C 37.71137152777778 20.71310763888889  36.68880208333333 22.529947916666668  34.80859375 23.81640625  C 32.92838541666667 25.102864583333332  30.273003472222225 25.80251736111111  26.842447916666668 25.915364583333332  C 25.39105902777778 25.971788194444443  22.776909722222225 26  19 26  C 15.223090277777779 26  12.608940972222221 25.971788194444443  11.157552083333334 25.915364583333332  C 7.7269965277777795 25.80251736111111  5.071614583333334 25.102864583333332  3.19140625 23.81640625  C 1.3111979166666667 22.529947916666668  0.28862847222222227 20.71310763888889  0.12369791666666667 18.365885416666664  C 0.04123263888888888 17.37282986111111  0 15.58420138888889  0 13  C 0 10.41579861111111  0.04123263888888888 8.627170138888888  0.12369791666666667 7.634114583333332  C 0.28862847222222227 5.28689236111111  1.3111979166666667 3.470052083333332  3.19140625 2.18359375  C 5.071614583333334 0.8971354166666676  7.7269965277777795 0.19748263888888729  11.157552083333334 0.08463541666666763  C 12.608940972222221 0.028211805555552028  15.223090277777779 0  19 0  C 22.776909722222225 0  25.39105902777778 0.028211805555552028  26.842447916666668 0.08463541666666763  C 30.273003472222225 0.19748263888888729  32.92838541666667 0.8971354166666676  34.80859375 2.18359375  C 36.68880208333333 3.470052083333332  37.71137152777778 5.28689236111111  37.87630208333333 7.634114583333332  Z " fill-rule="evenodd" />
    </mask>
  </defs>
  <g transform="matrix(1 0 0 1 -1233 -1699 )">
    <path d="M 23.477864583333332 16.063802083333336  C 24.71484375 15.217447916666664  25.333333333333332 14.196180555555555  25.333333333333332 13  C 25.333333333333332 11.803819444444443  24.71484375 10.782552083333332  23.477864583333332 9.936197916666668  C 22.240885416666668 9.08984375  20.748263888888893 8.666666666666668  19 8.666666666666668  C 17.25173611111111 8.666666666666668  15.759114583333334 9.08984375  14.522135416666666 9.936197916666668  C 13.28515625 10.782552083333332  12.666666666666666 11.803819444444443  12.666666666666666 13  C 12.666666666666666 14.196180555555555  13.28515625 15.217447916666664  14.522135416666666 16.063802083333336  C 15.759114583333334 16.91015625  17.25173611111111 17.333333333333336  19 17.333333333333336  C 20.748263888888893 17.333333333333336  22.240885416666668 16.91015625  23.477864583333332 16.063802083333336  Z M 25.90234375 8.27734375  C 27.799045138888893 9.575086805555552  28.747395833333332 11.149305555555552  28.747395833333332 13  C 28.747395833333332 14.850694444444445  27.799045138888893 16.424913194444446  25.90234375 17.72265625  C 24.00564236111111 19.020399305555554  21.70486111111111 19.669270833333332  19 19.669270833333332  C 16.29513888888889 19.669270833333332  13.99435763888889 19.020399305555554  12.09765625 17.72265625  C 10.200954861111112 16.424913194444446  9.252604166666668 14.850694444444445  9.252604166666668 13  C 9.252604166666668 11.149305555555552  10.200954861111112 9.575086805555552  12.09765625 8.27734375  C 13.99435763888889 6.979600694444442  16.29513888888889 6.330729166666668  19 6.330729166666668  C 21.70486111111111 6.330729166666668  24.00564236111111 6.979600694444442  25.90234375 8.27734375  Z M 30.751302083333332 4.959635416666668  C 31.196614583333332 5.264322916666668  31.419270833333332 5.6310763888888875  31.419270833333332 6.059895833333332  C 31.419270833333332 6.488715277777778  31.196614583333332 6.85546875  30.751302083333332 7.16015625  C 30.305989583333332 7.46484375  29.76996527777778 7.6171875  29.143229166666668 7.6171875  C 28.516493055555557 7.6171875  27.98046875 7.46484375  27.53515625 7.16015625  C 27.08984375 6.85546875  26.8671875 6.488715277777778  26.8671875 6.059895833333332  C 26.8671875 5.6310763888888875  27.08984375 5.264322916666668  27.53515625 4.959635416666668  C 27.98046875 4.654947916666668  28.516493055555557 4.502604166666668  29.143229166666668 4.502604166666668  C 29.76996527777778 4.502604166666668  30.305989583333332 4.654947916666668  30.751302083333332 4.959635416666668  Z M 20.892578125 2.327473958333332  C 19.746310763888893 2.333116319444442  19.115451388888893 2.3359375  19 2.3359375  C 18.88454861111111 2.3359375  18.25368923611111 2.333116319444442  17.107421875 2.327473958333332  C 15.96115451388889 2.3218315972222197  15.091145833333334 2.3218315972222197  14.497395833333334 2.327473958333332  C 13.903645833333334 2.333116319444442  13.107855902777779 2.3500434027777777  12.110026041666666 2.378255208333332  C 11.112196180555559 2.4064670138888875  10.262803819444446 2.462890625  9.561848958333334 2.547526041666668  C 8.860894097222223 2.632161458333332  8.271267361111112 2.7365451388888875  7.79296875 2.860677083333332  C 6.968315972222223 3.0863715277777777  6.242621527777778 3.4136284722222197  5.615885416666667 3.842447916666668  C 4.989149305555556 4.27126736111111  4.510850694444445 4.7677951388888875  4.180989583333334 5.33203125  C 3.9995659722222223 5.659288194444442  3.8470052083333335 6.0627170138888875  3.7233072916666665 6.542317708333332  C 3.599609375 7.021918402777778  3.5171440972222223 7.60308159722222  3.4759114583333335 8.285807291666668  C 3.4346788194444446 8.96853298611111  3.4099392361111116 9.513020833333332  3.4016927083333335 9.919270833333332  C 3.3934461805555562 10.325520833333332  3.3934461805555562 10.920789930555552  3.4016927083333335 11.705078125  C 3.4099392361111116 12.489366319444443  3.4140625 12.921006944444443  3.4140625 13  C 3.4140625 13.078993055555555  3.4099392361111116 13.510633680555555  3.4016927083333335 14.294921875  C 3.3934461805555562 15.079210069444445  3.3934461805555562 15.674479166666664  3.4016927083333335 16.080729166666664  C 3.4099392361111116 16.486979166666664  3.4346788194444446 17.031467013888886  3.4759114583333335 17.714192708333336  C 3.5171440972222223 18.396918402777775  3.599609375 18.97808159722222  3.7233072916666665 19.457682291666664  C 3.8470052083333335 19.93728298611111  3.9995659722222223 20.340711805555554  4.180989583333334 20.66796875  C 4.510850694444445 21.23220486111111  4.989149305555556 21.72873263888889  5.615885416666667 22.157552083333332  C 6.242621527777778 22.58637152777778  6.968315972222223 22.91362847222222  7.79296875 23.139322916666668  C 8.271267361111112 23.26345486111111  8.860894097222223 23.367838541666668  9.561848958333334 23.452473958333332  C 10.262803819444446 23.537109375  11.112196180555559 23.59353298611111  12.110026041666666 23.621744791666668  C 13.107855902777779 23.64995659722222  13.903645833333334 23.666883680555557  14.497395833333334 23.672526041666668  C 15.091145833333334 23.67816840277778  15.96115451388889 23.67816840277778  17.107421875 23.672526041666668  C 18.25368923611111 23.666883680555557  18.88454861111111 23.6640625  19 23.6640625  C 19.115451388888893 23.6640625  19.746310763888893 23.666883680555557  20.892578125 23.672526041666668  C 22.03884548611111 23.67816840277778  22.908854166666668 23.67816840277778  23.502604166666668 23.672526041666668  C 24.096354166666668 23.666883680555557  24.892144097222225 23.64995659722222  25.889973958333332 23.621744791666668  C 26.88780381944445 23.59353298611111  27.737196180555557 23.537109375  28.438151041666668 23.452473958333332  C 29.13910590277778 23.367838541666668  29.728732638888893 23.26345486111111  30.20703125 23.139322916666668  C 31.03168402777778 22.91362847222222  31.757378472222225 22.58637152777778  32.38411458333333 22.157552083333332  C 33.01085069444445 21.72873263888889  33.48914930555556 21.23220486111111  33.81901041666667 20.66796875  C 34.00043402777778 20.340711805555554  34.15299479166667 19.93728298611111  34.27669270833333 19.457682291666664  C 34.400390625 18.97808159722222  34.48285590277778 18.396918402777775  34.52408854166667 17.714192708333336  C 34.56532118055556 17.031467013888886  34.59006076388889 16.486979166666664  34.59830729166667 16.080729166666664  C 34.60655381944445 15.674479166666664  34.60655381944445 15.079210069444445  34.59830729166667 14.294921875  C 34.59006076388889 13.510633680555555  34.5859375 13.078993055555555  34.5859375 13  C 34.5859375 12.921006944444443  34.59006076388889 12.489366319444443  34.59830729166667 11.705078125  C 34.60655381944445 10.920789930555552  34.60655381944445 10.325520833333332  34.59830729166667 9.919270833333332  C 34.59006076388889 9.513020833333332  34.56532118055556 8.96853298611111  34.52408854166667 8.285807291666668  C 34.48285590277778 7.60308159722222  34.400390625 7.021918402777778  34.27669270833333 6.542317708333332  C 34.15299479166667 6.0627170138888875  34.00043402777778 5.659288194444442  33.81901041666667 5.33203125  C 33.48914930555556 4.7677951388888875  33.01085069444445 4.27126736111111  32.38411458333333 3.842447916666668  C 31.757378472222225 3.4136284722222197  31.03168402777778 3.0863715277777777  30.20703125 2.860677083333332  C 29.728732638888893 2.7365451388888875  29.13910590277778 2.632161458333332  28.438151041666668 2.547526041666668  C 27.737196180555557 2.462890625  26.88780381944445 2.4064670138888875  25.889973958333332 2.378255208333332  C 24.892144097222225 2.3500434027777777  24.096354166666668 2.333116319444442  23.502604166666668 2.327473958333332  C 22.908854166666668 2.3218315972222197  22.03884548611111 2.3218315972222197  20.892578125 2.327473958333332  Z M 37.87630208333333 7.634114583333332  C 37.95876736111111 8.627170138888888  38 10.41579861111111  38 13  C 38 15.58420138888889  37.95876736111111 17.37282986111111  37.87630208333333 18.365885416666664  C 37.71137152777778 20.71310763888889  36.68880208333333 22.529947916666668  34.80859375 23.81640625  C 32.92838541666667 25.102864583333332  30.273003472222225 25.80251736111111  26.842447916666668 25.915364583333332  C 25.39105902777778 25.971788194444443  22.776909722222225 26  19 26  C 15.223090277777779 26  12.608940972222221 25.971788194444443  11.157552083333334 25.915364583333332  C 7.7269965277777795 25.80251736111111  5.071614583333334 25.102864583333332  3.19140625 23.81640625  C 1.3111979166666667 22.529947916666668  0.28862847222222227 20.71310763888889  0.12369791666666667 18.365885416666664  C 0.04123263888888888 17.37282986111111  0 15.58420138888889  0 13  C 0 10.41579861111111  0.04123263888888888 8.627170138888888  0.12369791666666667 7.634114583333332  C 0.28862847222222227 5.28689236111111  1.3111979166666667 3.470052083333332  3.19140625 2.18359375  C 5.071614583333334 0.8971354166666676  7.7269965277777795 0.19748263888888729  11.157552083333334 0.08463541666666763  C 12.608940972222221 0.028211805555552028  15.223090277777779 0  19 0  C 22.776909722222225 0  25.39105902777778 0.028211805555552028  26.842447916666668 0.08463541666666763  C 30.273003472222225 0.19748263888888729  32.92838541666667 0.8971354166666676  34.80859375 2.18359375  C 36.68880208333333 3.470052083333332  37.71137152777778 5.28689236111111  37.87630208333333 7.634114583333332  Z " fill-rule="nonzero" fill="rgba(0, 0, 0, 0.7607843137254902)" stroke="none" transform="matrix(1 0 0 1 1233 1699 )" class="fill" />
    <path d="M 23.477864583333332 16.063802083333336  C 24.71484375 15.217447916666664  25.333333333333332 14.196180555555555  25.333333333333332 13  C 25.333333333333332 11.803819444444443  24.71484375 10.782552083333332  23.477864583333332 9.936197916666668  C 22.240885416666668 9.08984375  20.748263888888893 8.666666666666668  19 8.666666666666668  C 17.25173611111111 8.666666666666668  15.759114583333334 9.08984375  14.522135416666666 9.936197916666668  C 13.28515625 10.782552083333332  12.666666666666666 11.803819444444443  12.666666666666666 13  C 12.666666666666666 14.196180555555555  13.28515625 15.217447916666664  14.522135416666666 16.063802083333336  C 15.759114583333334 16.91015625  17.25173611111111 17.333333333333336  19 17.333333333333336  C 20.748263888888893 17.333333333333336  22.240885416666668 16.91015625  23.477864583333332 16.063802083333336  Z " stroke-width="0" stroke-dasharray="0" stroke="rgba(255, 255, 255, 0)" fill="none" transform="matrix(1 0 0 1 1233 1699 )" class="stroke" mask="url(#Clip520)" />
    <path d="M 25.90234375 8.27734375  C 27.799045138888893 9.575086805555552  28.747395833333332 11.149305555555552  28.747395833333332 13  C 28.747395833333332 14.850694444444445  27.799045138888893 16.424913194444446  25.90234375 17.72265625  C 24.00564236111111 19.020399305555554  21.70486111111111 19.669270833333332  19 19.669270833333332  C 16.29513888888889 19.669270833333332  13.99435763888889 19.020399305555554  12.09765625 17.72265625  C 10.200954861111112 16.424913194444446  9.252604166666668 14.850694444444445  9.252604166666668 13  C 9.252604166666668 11.149305555555552  10.200954861111112 9.575086805555552  12.09765625 8.27734375  C 13.99435763888889 6.979600694444442  16.29513888888889 6.330729166666668  19 6.330729166666668  C 21.70486111111111 6.330729166666668  24.00564236111111 6.979600694444442  25.90234375 8.27734375  Z " stroke-width="0" stroke-dasharray="0" stroke="rgba(255, 255, 255, 0)" fill="none" transform="matrix(1 0 0 1 1233 1699 )" class="stroke" mask="url(#Clip520)" />
    <path d="M 30.751302083333332 4.959635416666668  C 31.196614583333332 5.264322916666668  31.419270833333332 5.6310763888888875  31.419270833333332 6.059895833333332  C 31.419270833333332 6.488715277777778  31.196614583333332 6.85546875  30.751302083333332 7.16015625  C 30.305989583333332 7.46484375  29.76996527777778 7.6171875  29.143229166666668 7.6171875  C 28.516493055555557 7.6171875  27.98046875 7.46484375  27.53515625 7.16015625  C 27.08984375 6.85546875  26.8671875 6.488715277777778  26.8671875 6.059895833333332  C 26.8671875 5.6310763888888875  27.08984375 5.264322916666668  27.53515625 4.959635416666668  C 27.98046875 4.654947916666668  28.516493055555557 4.502604166666668  29.143229166666668 4.502604166666668  C 29.76996527777778 4.502604166666668  30.305989583333332 4.654947916666668  30.751302083333332 4.959635416666668  Z " stroke-width="0" stroke-dasharray="0" stroke="rgba(255, 255, 255, 0)" fill="none" transform="matrix(1 0 0 1 1233 1699 )" class="stroke" mask="url(#Clip520)" />
    <path d="M 20.892578125 2.327473958333332  C 19.746310763888893 2.333116319444442  19.115451388888893 2.3359375  19 2.3359375  C 18.88454861111111 2.3359375  18.25368923611111 2.333116319444442  17.107421875 2.327473958333332  C 15.96115451388889 2.3218315972222197  15.091145833333334 2.3218315972222197  14.497395833333334 2.327473958333332  C 13.903645833333334 2.333116319444442  13.107855902777779 2.3500434027777777  12.110026041666666 2.378255208333332  C 11.112196180555559 2.4064670138888875  10.262803819444446 2.462890625  9.561848958333334 2.547526041666668  C 8.860894097222223 2.632161458333332  8.271267361111112 2.7365451388888875  7.79296875 2.860677083333332  C 6.968315972222223 3.0863715277777777  6.242621527777778 3.4136284722222197  5.615885416666667 3.842447916666668  C 4.989149305555556 4.27126736111111  4.510850694444445 4.7677951388888875  4.180989583333334 5.33203125  C 3.9995659722222223 5.659288194444442  3.8470052083333335 6.0627170138888875  3.7233072916666665 6.542317708333332  C 3.599609375 7.021918402777778  3.5171440972222223 7.60308159722222  3.4759114583333335 8.285807291666668  C 3.4346788194444446 8.96853298611111  3.4099392361111116 9.513020833333332  3.4016927083333335 9.919270833333332  C 3.3934461805555562 10.325520833333332  3.3934461805555562 10.920789930555552  3.4016927083333335 11.705078125  C 3.4099392361111116 12.489366319444443  3.4140625 12.921006944444443  3.4140625 13  C 3.4140625 13.078993055555555  3.4099392361111116 13.510633680555555  3.4016927083333335 14.294921875  C 3.3934461805555562 15.079210069444445  3.3934461805555562 15.674479166666664  3.4016927083333335 16.080729166666664  C 3.4099392361111116 16.486979166666664  3.4346788194444446 17.031467013888886  3.4759114583333335 17.714192708333336  C 3.5171440972222223 18.396918402777775  3.599609375 18.97808159722222  3.7233072916666665 19.457682291666664  C 3.8470052083333335 19.93728298611111  3.9995659722222223 20.340711805555554  4.180989583333334 20.66796875  C 4.510850694444445 21.23220486111111  4.989149305555556 21.72873263888889  5.615885416666667 22.157552083333332  C 6.242621527777778 22.58637152777778  6.968315972222223 22.91362847222222  7.79296875 23.139322916666668  C 8.271267361111112 23.26345486111111  8.860894097222223 23.367838541666668  9.561848958333334 23.452473958333332  C 10.262803819444446 23.537109375  11.112196180555559 23.59353298611111  12.110026041666666 23.621744791666668  C 13.107855902777779 23.64995659722222  13.903645833333334 23.666883680555557  14.497395833333334 23.672526041666668  C 15.091145833333334 23.67816840277778  15.96115451388889 23.67816840277778  17.107421875 23.672526041666668  C 18.25368923611111 23.666883680555557  18.88454861111111 23.6640625  19 23.6640625  C 19.115451388888893 23.6640625  19.746310763888893 23.666883680555557  20.892578125 23.672526041666668  C 22.03884548611111 23.67816840277778  22.908854166666668 23.67816840277778  23.502604166666668 23.672526041666668  C 24.096354166666668 23.666883680555557  24.892144097222225 23.64995659722222  25.889973958333332 23.621744791666668  C 26.88780381944445 23.59353298611111  27.737196180555557 23.537109375  28.438151041666668 23.452473958333332  C 29.13910590277778 23.367838541666668  29.728732638888893 23.26345486111111  30.20703125 23.139322916666668  C 31.03168402777778 22.91362847222222  31.757378472222225 22.58637152777778  32.38411458333333 22.157552083333332  C 33.01085069444445 21.72873263888889  33.48914930555556 21.23220486111111  33.81901041666667 20.66796875  C 34.00043402777778 20.340711805555554  34.15299479166667 19.93728298611111  34.27669270833333 19.457682291666664  C 34.400390625 18.97808159722222  34.48285590277778 18.396918402777775  34.52408854166667 17.714192708333336  C 34.56532118055556 17.031467013888886  34.59006076388889 16.486979166666664  34.59830729166667 16.080729166666664  C 34.60655381944445 15.674479166666664  34.60655381944445 15.079210069444445  34.59830729166667 14.294921875  C 34.59006076388889 13.510633680555555  34.5859375 13.078993055555555  34.5859375 13  C 34.5859375 12.921006944444443  34.59006076388889 12.489366319444443  34.59830729166667 11.705078125  C 34.60655381944445 10.920789930555552  34.60655381944445 10.325520833333332  34.59830729166667 9.919270833333332  C 34.59006076388889 9.513020833333332  34.56532118055556 8.96853298611111  34.52408854166667 8.285807291666668  C 34.48285590277778 7.60308159722222  34.400390625 7.021918402777778  34.27669270833333 6.542317708333332  C 34.15299479166667 6.0627170138888875  34.00043402777778 5.659288194444442  33.81901041666667 5.33203125  C 33.48914930555556 4.7677951388888875  33.01085069444445 4.27126736111111  32.38411458333333 3.842447916666668  C 31.757378472222225 3.4136284722222197  31.03168402777778 3.0863715277777777  30.20703125 2.860677083333332  C 29.728732638888893 2.7365451388888875  29.13910590277778 2.632161458333332  28.438151041666668 2.547526041666668  C 27.737196180555557 2.462890625  26.88780381944445 2.4064670138888875  25.889973958333332 2.378255208333332  C 24.892144097222225 2.3500434027777777  24.096354166666668 2.333116319444442  23.502604166666668 2.327473958333332  C 22.908854166666668 2.3218315972222197  22.03884548611111 2.3218315972222197  20.892578125 2.327473958333332  Z " stroke-width="0" stroke-dasharray="0" stroke="rgba(255, 255, 255, 0)" fill="none" transform="matrix(1 0 0 1 1233 1699 )" class="stroke" mask="url(#Clip520)" />
    <path d="M 37.87630208333333 7.634114583333332  C 37.95876736111111 8.627170138888888  38 10.41579861111111  38 13  C 38 15.58420138888889  37.95876736111111 17.37282986111111  37.87630208333333 18.365885416666664  C 37.71137152777778 20.71310763888889  36.68880208333333 22.529947916666668  34.80859375 23.81640625  C 32.92838541666667 25.102864583333332  30.273003472222225 25.80251736111111  26.842447916666668 25.915364583333332  C 25.39105902777778 25.971788194444443  22.776909722222225 26  19 26  C 15.223090277777779 26  12.608940972222221 25.971788194444443  11.157552083333334 25.915364583333332  C 7.7269965277777795 25.80251736111111  5.071614583333334 25.102864583333332  3.19140625 23.81640625  C 1.3111979166666667 22.529947916666668  0.28862847222222227 20.71310763888889  0.12369791666666667 18.365885416666664  C 0.04123263888888888 17.37282986111111  0 15.58420138888889  0 13  C 0 10.41579861111111  0.04123263888888888 8.627170138888888  0.12369791666666667 7.634114583333332  C 0.28862847222222227 5.28689236111111  1.3111979166666667 3.470052083333332  3.19140625 2.18359375  C 5.071614583333334 0.8971354166666676  7.7269965277777795 0.19748263888888729  11.157552083333334 0.08463541666666763  C 12.608940972222221 0.028211805555552028  15.223090277777779 0  19 0  C 22.776909722222225 0  25.39105902777778 0.028211805555552028  26.842447916666668 0.08463541666666763  C 30.273003472222225 0.19748263888888729  32.92838541666667 0.8971354166666676  34.80859375 2.18359375  C 36.68880208333333 3.470052083333332  37.71137152777778 5.28689236111111  37.87630208333333 7.634114583333332  Z " stroke-width="0" stroke-dasharray="0" stroke="rgba(255, 255, 255, 0)" fill="none" transform="matrix(1 0 0 1 1233 1699 )" class="stroke" mask="url(#Clip520)" />
  </g>
</svg>