<?xml version="1.0" encoding="utf-8"?>
<svg version="1.1" xmlns:xlink="http://www.w3.org/1999/xlink" width="17px" height="25px" xmlns="http://www.w3.org/2000/svg">
  <defs>
    <pattern id="BGPattern" patternUnits="userSpaceOnUse" alignment="0 0" imageRepeat="None" />
    <mask fill="white" id="Clip655">
      <path d="M 12.51388888888889 0  C 14.44212962962963 0  15.9375 0.06009615384615363  17 0.1802884615384609  L 17 4.146634615384615  L 13.91087962962963 4.146634615384615  C 12.782793209876544 4.146634615384615  12.02199074074074 4.326923076923078  11.628472222222223 4.6875  C 11.234953703703704 5.048076923076922  11.038194444444445 5.5889423076923075  11.038194444444445 6.310096153846153  L 11.038194444444445 9.149639423076922  L 16.80324074074074 9.149639423076922  L 16.03587962962963 13.596754807692307  L 11 13.596754807692307  L 11 25  L 5 25  L 5 13.596754807692307  L 0 13.596754807692307  L 0 9.149639423076922  L 5.017361111111112 9.149639423076922  L 5.017361111111112 5.874399038461539  C 5.017361111111112 4.011418269230768  5.6994598765432105 2.5666065705128194  7.063657407407407 1.5399639423076927  C 8.427854938271606 0.5133213141025661  10.2445987654321 0  12.51388888888889 0  Z " fill-rule="evenodd" />
    </mask>
  </defs>
  <g transform="matrix(1 0 0 1 -1087 -1679 )">
    <path d="M 12.51388888888889 0  C 14.44212962962963 0  15.9375 0.06009615384615363  17 0.1802884615384609  L 17 4.146634615384615  L 13.91087962962963 4.146634615384615  C 12.782793209876544 4.146634615384615  12.02199074074074 4.326923076923078  11.628472222222223 4.6875  C 11.234953703703704 5.048076923076922  11.038194444444445 5.5889423076923075  11.038194444444445 6.310096153846153  L 11.038194444444445 9.149639423076922  L 16.80324074074074 9.149639423076922  L 16.03587962962963 13.596754807692307  L 11 13.596754807692307  L 11 25  L 5 25  L 5 13.596754807692307  L 0 13.596754807692307  L 0 9.149639423076922  L 5.017361111111112 9.149639423076922  L 5.017361111111112 5.874399038461539  C 5.017361111111112 4.011418269230768  5.6994598765432105 2.5666065705128194  7.063657407407407 1.5399639423076927  C 8.427854938271606 0.5133213141025661  10.2445987654321 0  12.51388888888889 0  Z " fill-rule="nonzero" fill="rgba(0, 0, 0, 0.7607843137254902)" stroke="none" transform="matrix(1 0 0 1 1087 1679 )" class="fill" />
    <path d="M 12.51388888888889 0  C 14.44212962962963 0  15.9375 0.06009615384615363  17 0.1802884615384609  L 17 4.146634615384615  L 13.91087962962963 4.146634615384615  C 12.782793209876544 4.146634615384615  12.02199074074074 4.326923076923078  11.628472222222223 4.6875  C 11.234953703703704 5.048076923076922  11.038194444444445 5.5889423076923075  11.038194444444445 6.310096153846153  L 11.038194444444445 9.149639423076922  L 16.80324074074074 9.149639423076922  L 16.03587962962963 13.596754807692307  L 11 13.596754807692307  L 11 25  L 5 25  L 5 13.596754807692307  L 0 13.596754807692307  L 0 9.149639423076922  L 5.017361111111112 9.149639423076922  L 5.017361111111112 5.874399038461539  C 5.017361111111112 4.011418269230768  5.6994598765432105 2.5666065705128194  7.063657407407407 1.5399639423076927  C 8.427854938271606 0.5133213141025661  10.2445987654321 0  12.51388888888889 0  Z " stroke-width="0" stroke-dasharray="0" stroke="rgba(255, 255, 255, 0)" fill="none" transform="matrix(1 0 0 1 1087 1679 )" class="stroke" mask="url(#Clip655)" />
  </g>
</svg>