<?xml version="1.0" encoding="utf-8"?>
<svg version="1.1" xmlns:xlink="http://www.w3.org/1999/xlink" width="38px" height="21px" xmlns="http://www.w3.org/2000/svg">
  <defs>
    <pattern id="BGPattern" patternUnits="userSpaceOnUse" alignment="0 0" imageRepeat="None" />
    <mask fill="white" id="Clip656">
      <path d="M 33.515228426395936 3.3140625000000004  C 35.01015228426396 3.2046874999999995  36.50507614213198 2.931249999999997  38 2.4937500000000004  C 36.92301184433165 3.565624999999998  35.62098138747885 4.47890625  34.09390862944162 5.233593750000001  C 34.10998307952623 5.386718749999999  34.11802030456853 5.616406249999998  34.11802030456853 5.922656249999999  C 34.11802030456853 7.3445312499999975  33.81260575296109 8.763671874999998  33.20177664974619 10.180078125  C 32.590947546531304 11.596484374999998  31.662648054145517 12.95546875  30.416878172588834 14.25703125  C 29.17110829103215 15.55859375  27.688240270727583 16.709765625  25.96827411167513 17.710546875000002  C 24.248307952622675 18.711328124999998  22.17470389170897 19.509765625  19.747461928934012 20.105859374999998  C 17.320219966159055 20.701953125  14.724196277495773 21  11.959390862944163 21  C 7.603214890016922 21  3.616751269035533 20.20703125  0 18.62109375  C 0.5626057529610832 18.664843750000003  1.1895093062605755 18.68671875  1.8807106598984773 18.68671875  C 5.497461928934012 18.68671875  8.720389170896786 17.932031249999998  11.549492385786802 16.42265625  C 9.861675126903554 16.400781249999998  8.350676818950932 16.048046874999997  7.016497461928934 15.364453125  C 5.682318104906938 14.680859374999997  4.766074450084603 13.808593749999998  4.267766497461929 12.74765625  C 4.798223350253807 12.80234375  5.288494077834181 12.8296875  5.738578680203046 12.8296875  C 6.429780033840948 12.8296875  7.112944162436548 12.76953125  7.788071065989847 12.64921875  C 5.987732656514384 12.397656249999999  4.496827411167513 11.787890625  3.315355329949239 10.819921875  C 2.1338832487309647 9.851953125  1.5431472081218278 8.728125  1.5431472081218274 7.448437500000001  L 1.5431472081218274 7.3828125  C 2.636209813874789 7.7984374999999995  3.809644670050761 8.022656249999999  5.063451776649747 8.05546875  C 4.00253807106599 7.574218749999998  3.1586294416243654 6.945312499999999  2.5317258883248734 6.168749999999999  C 1.9048223350253806 5.392187499999997  1.5913705583756346 4.549999999999998  1.5913705583756346 3.6421875000000004  C 1.5913705583756346 2.679687499999999  1.945008460236887 1.788281250000001  2.652284263959391 0.9679687500000009  C 4.5972927241962775 2.597656249999999  6.964255499153977 3.9019531249999995  9.753172588832488 4.880859375  C 12.542089678511 5.8597656250000005  15.527918781725889 6.4039062499999995  18.710659898477157 6.51328125  C 18.58206429780034 6.097656249999998  18.51776649746193 5.692968749999999  18.51776649746193 5.29921875  C 18.51776649746193 3.833593749999997  19.277284263959388 2.583984375  20.796319796954315 1.5503906250000004  C 22.315355329949238 0.5167968750000009  24.15186125211506 0  26.305837563451778 0  C 28.55626057529611 0  30.453045685279186 0.5578125000000009  31.996192893401012 1.6734375000000004  C 33.748307952622675 1.4437499999999996  35.39593908629441 1.0171875000000004  36.93908629441624 0.39375000000000093  C 36.34433164128596 1.6515624999999972  35.20304568527919 2.625  33.515228426395936 3.3140625000000004  Z " fill-rule="evenodd" />
    </mask>
  </defs>
  <g transform="matrix(1 0 0 1 -1177 -1681 )">
    <path d="M 33.515228426395936 3.3140625000000004  C 35.01015228426396 3.2046874999999995  36.50507614213198 2.931249999999997  38 2.4937500000000004  C 36.92301184433165 3.565624999999998  35.62098138747885 4.47890625  34.09390862944162 5.233593750000001  C 34.10998307952623 5.386718749999999  34.11802030456853 5.616406249999998  34.11802030456853 5.922656249999999  C 34.11802030456853 7.3445312499999975  33.81260575296109 8.763671874999998  33.20177664974619 10.180078125  C 32.590947546531304 11.596484374999998  31.662648054145517 12.95546875  30.416878172588834 14.25703125  C 29.17110829103215 15.55859375  27.688240270727583 16.709765625  25.96827411167513 17.710546875000002  C 24.248307952622675 18.711328124999998  22.17470389170897 19.509765625  19.747461928934012 20.105859374999998  C 17.320219966159055 20.701953125  14.724196277495773 21  11.959390862944163 21  C 7.603214890016922 21  3.616751269035533 20.20703125  0 18.62109375  C 0.5626057529610832 18.664843750000003  1.1895093062605755 18.68671875  1.8807106598984773 18.68671875  C 5.497461928934012 18.68671875  8.720389170896786 17.932031249999998  11.549492385786802 16.42265625  C 9.861675126903554 16.400781249999998  8.350676818950932 16.048046874999997  7.016497461928934 15.364453125  C 5.682318104906938 14.680859374999997  4.766074450084603 13.808593749999998  4.267766497461929 12.74765625  C 4.798223350253807 12.80234375  5.288494077834181 12.8296875  5.738578680203046 12.8296875  C 6.429780033840948 12.8296875  7.112944162436548 12.76953125  7.788071065989847 12.64921875  C 5.987732656514384 12.397656249999999  4.496827411167513 11.787890625  3.315355329949239 10.819921875  C 2.1338832487309647 9.851953125  1.5431472081218278 8.728125  1.5431472081218274 7.448437500000001  L 1.5431472081218274 7.3828125  C 2.636209813874789 7.7984374999999995  3.809644670050761 8.022656249999999  5.063451776649747 8.05546875  C 4.00253807106599 7.574218749999998  3.1586294416243654 6.945312499999999  2.5317258883248734 6.168749999999999  C 1.9048223350253806 5.392187499999997  1.5913705583756346 4.549999999999998  1.5913705583756346 3.6421875000000004  C 1.5913705583756346 2.679687499999999  1.945008460236887 1.788281250000001  2.652284263959391 0.9679687500000009  C 4.5972927241962775 2.597656249999999  6.964255499153977 3.9019531249999995  9.753172588832488 4.880859375  C 12.542089678511 5.8597656250000005  15.527918781725889 6.4039062499999995  18.710659898477157 6.51328125  C 18.58206429780034 6.097656249999998  18.51776649746193 5.692968749999999  18.51776649746193 5.29921875  C 18.51776649746193 3.833593749999997  19.277284263959388 2.583984375  20.796319796954315 1.5503906250000004  C 22.315355329949238 0.5167968750000009  24.15186125211506 0  26.305837563451778 0  C 28.55626057529611 0  30.453045685279186 0.5578125000000009  31.996192893401012 1.6734375000000004  C 33.748307952622675 1.4437499999999996  35.39593908629441 1.0171875000000004  36.93908629441624 0.39375000000000093  C 36.34433164128596 1.6515624999999972  35.20304568527919 2.625  33.515228426395936 3.3140625000000004  Z " fill-rule="nonzero" fill="rgba(0, 0, 0, 0.7607843137254902)" stroke="none" transform="matrix(1 0 0 1 1177 1681 )" class="fill" />
    <path d="M 33.515228426395936 3.3140625000000004  C 35.01015228426396 3.2046874999999995  36.50507614213198 2.931249999999997  38 2.4937500000000004  C 36.92301184433165 3.565624999999998  35.62098138747885 4.47890625  34.09390862944162 5.233593750000001  C 34.10998307952623 5.386718749999999  34.11802030456853 5.616406249999998  34.11802030456853 5.922656249999999  C 34.11802030456853 7.3445312499999975  33.81260575296109 8.763671874999998  33.20177664974619 10.180078125  C 32.590947546531304 11.596484374999998  31.662648054145517 12.95546875  30.416878172588834 14.25703125  C 29.17110829103215 15.55859375  27.688240270727583 16.709765625  25.96827411167513 17.710546875000002  C 24.248307952622675 18.711328124999998  22.17470389170897 19.509765625  19.747461928934012 20.105859374999998  C 17.320219966159055 20.701953125  14.724196277495773 21  11.959390862944163 21  C 7.603214890016922 21  3.616751269035533 20.20703125  0 18.62109375  C 0.5626057529610832 18.664843750000003  1.1895093062605755 18.68671875  1.8807106598984773 18.68671875  C 5.497461928934012 18.68671875  8.720389170896786 17.932031249999998  11.549492385786802 16.42265625  C 9.861675126903554 16.400781249999998  8.350676818950932 16.048046874999997  7.016497461928934 15.364453125  C 5.682318104906938 14.680859374999997  4.766074450084603 13.808593749999998  4.267766497461929 12.74765625  C 4.798223350253807 12.80234375  5.288494077834181 12.8296875  5.738578680203046 12.8296875  C 6.429780033840948 12.8296875  7.112944162436548 12.76953125  7.788071065989847 12.64921875  C 5.987732656514384 12.397656249999999  4.496827411167513 11.787890625  3.315355329949239 10.819921875  C 2.1338832487309647 9.851953125  1.5431472081218278 8.728125  1.5431472081218274 7.448437500000001  L 1.5431472081218274 7.3828125  C 2.636209813874789 7.7984374999999995  3.809644670050761 8.022656249999999  5.063451776649747 8.05546875  C 4.00253807106599 7.574218749999998  3.1586294416243654 6.945312499999999  2.5317258883248734 6.168749999999999  C 1.9048223350253806 5.392187499999997  1.5913705583756346 4.549999999999998  1.5913705583756346 3.6421875000000004  C 1.5913705583756346 2.679687499999999  1.945008460236887 1.788281250000001  2.652284263959391 0.9679687500000009  C 4.5972927241962775 2.597656249999999  6.964255499153977 3.9019531249999995  9.753172588832488 4.880859375  C 12.542089678511 5.8597656250000005  15.527918781725889 6.4039062499999995  18.710659898477157 6.51328125  C 18.58206429780034 6.097656249999998  18.51776649746193 5.692968749999999  18.51776649746193 5.29921875  C 18.51776649746193 3.833593749999997  19.277284263959388 2.583984375  20.796319796954315 1.5503906250000004  C 22.315355329949238 0.5167968750000009  24.15186125211506 0  26.305837563451778 0  C 28.55626057529611 0  30.453045685279186 0.5578125000000009  31.996192893401012 1.6734375000000004  C 33.748307952622675 1.4437499999999996  35.39593908629441 1.0171875000000004  36.93908629441624 0.39375000000000093  C 36.34433164128596 1.6515624999999972  35.20304568527919 2.625  33.515228426395936 3.3140625000000004  Z " stroke-width="0" stroke-dasharray="0" stroke="rgba(255, 255, 255, 0)" fill="none" transform="matrix(1 0 0 1 1177 1681 )" class="stroke" mask="url(#Clip656)" />
  </g>
</svg>