<?xml version="1.0" encoding="utf-8"?>
<svg version="1.1" xmlns:xlink="http://www.w3.org/1999/xlink" width="74px" height="52px" xmlns="http://www.w3.org/2000/svg">
  <defs>
    <pattern id="BGPattern" patternUnits="userSpaceOnUse" alignment="0 0" imageRepeat="None" />
    <mask fill="white" id="Clip526">
      <path d="M 64.11206896551724 19.204545454545453  C 65.60057471264369 17.825757575757567  66.3448275862069 16.15151515151515  66.3448275862069 14.18181818181818  C 66.3448275862069 12.212121212121207  65.60057471264369 10.537878787878787  64.11206896551724 9.15909090909091  C 62.623563218390814 7.780303030303026  60.816091954022994 7.09090909090909  58.689655172413794 7.09090909090909  L 56 7.09090909090909  L 56 21.27272727272727  L 58.689655172413794 21.27272727272727  C 60.816091954022994 21.27272727272727  62.623563218390814 20.58333333333333  64.11206896551724 19.204545454545453  Z M 2.990301724137931 49.23011363636364  C 0.9967672413793103 47.38352272727273  0 45.15530303030303  0 42  L 71.44827586206897 42  C 71.44827586206897 45.15530303030303  70.45150862068965 47.38352272727273  68.45797413793103 49.23011363636364  C 66.46443965517241 51.07670454545455  64.05890804597702 52  61.241379310344826 52  L 10.206896551724137 52  C 7.389367816091955 52  4.9838362068965525 51.07670454545455  2.990301724137931 49.23011363636364  Z M 69.5145474137931 4.1548295454545485  C 72.50484913793103 6.92471590909091  74 10.267045454545451  74 14.18181818181818  C 74 18.09659090909091  72.50484913793103 21.438920454545453  69.5145474137931 24.20880681818182  C 66.52424568965517 26.97869318181818  62.91594827586207 28.36363636363636  58.689655172413794 28.36363636363636  L 56.137931034482754 28.36363636363636  L 56.137931034482754 29.545454545454543  C 56.137931034482754 31.81060606060606  55.26077586206897 33.75568181818182  53.50646551724138 35.38068181818182  C 51.752155172413794 37.00568181818182  49.65229885057472 37.81818181818182  47.20689655172414 37  L 19.13793103448276 37  C 16.692528735632184 37.81818181818182  14.592672413793105 37.00568181818182  12.838362068965518 35.38068181818182  C 11.08405172413793 33.75568181818182  10.206896551724137 31.81060606060606  11 29.545454545454543  L 11 2.3636363636363615  C 10.206896551724137 1.7234848484848455  10.459410919540232 1.1695075757575686  10.964439655172413 0.7017045454545481  C 11.469468390804598 0.23390151515151025  12.067528735632186 0  12.758620689655173 0  L 58.689655172413794 0  C 62.91594827586207 0  66.52424568965517 1.3849431818181808  69.5145474137931 4.1548295454545485  Z " fill-rule="evenodd" />
    </mask>
  </defs>
  <g transform="matrix(1 0 0 1 -66 -636 )">
    <path d="M 64.11206896551724 19.204545454545453  C 65.60057471264369 17.825757575757567  66.3448275862069 16.15151515151515  66.3448275862069 14.18181818181818  C 66.3448275862069 12.212121212121207  65.60057471264369 10.537878787878787  64.11206896551724 9.15909090909091  C 62.623563218390814 7.780303030303026  60.816091954022994 7.09090909090909  58.689655172413794 7.09090909090909  L 56 7.09090909090909  L 56 21.27272727272727  L 58.689655172413794 21.27272727272727  C 60.816091954022994 21.27272727272727  62.623563218390814 20.58333333333333  64.11206896551724 19.204545454545453  Z M 2.990301724137931 49.23011363636364  C 0.9967672413793103 47.38352272727273  0 45.15530303030303  0 42  L 71.44827586206897 42  C 71.44827586206897 45.15530303030303  70.45150862068965 47.38352272727273  68.45797413793103 49.23011363636364  C 66.46443965517241 51.07670454545455  64.05890804597702 52  61.241379310344826 52  L 10.206896551724137 52  C 7.389367816091955 52  4.9838362068965525 51.07670454545455  2.990301724137931 49.23011363636364  Z M 69.5145474137931 4.1548295454545485  C 72.50484913793103 6.92471590909091  74 10.267045454545451  74 14.18181818181818  C 74 18.09659090909091  72.50484913793103 21.438920454545453  69.5145474137931 24.20880681818182  C 66.52424568965517 26.97869318181818  62.91594827586207 28.36363636363636  58.689655172413794 28.36363636363636  L 56.137931034482754 28.36363636363636  L 56.137931034482754 29.545454545454543  C 56.137931034482754 31.81060606060606  55.26077586206897 33.75568181818182  53.50646551724138 35.38068181818182  C 51.752155172413794 37.00568181818182  49.65229885057472 37.81818181818182  47.20689655172414 37  L 19.13793103448276 37  C 16.692528735632184 37.81818181818182  14.592672413793105 37.00568181818182  12.838362068965518 35.38068181818182  C 11.08405172413793 33.75568181818182  10.206896551724137 31.81060606060606  11 29.545454545454543  L 11 2.3636363636363615  C 10.206896551724137 1.7234848484848455  10.459410919540232 1.1695075757575686  10.964439655172413 0.7017045454545481  C 11.469468390804598 0.23390151515151025  12.067528735632186 0  12.758620689655173 0  L 58.689655172413794 0  C 62.91594827586207 0  66.52424568965517 1.3849431818181808  69.5145474137931 4.1548295454545485  Z " fill-rule="nonzero" fill="rgba(0, 0, 0, 1)" stroke="none" transform="matrix(1 0 0 1 66 636 )" class="fill" />
    <path d="M 64.11206896551724 19.204545454545453  C 65.60057471264369 17.825757575757567  66.3448275862069 16.15151515151515  66.3448275862069 14.18181818181818  C 66.3448275862069 12.212121212121207  65.60057471264369 10.537878787878787  64.11206896551724 9.15909090909091  C 62.623563218390814 7.780303030303026  60.816091954022994 7.09090909090909  58.689655172413794 7.09090909090909  L 56 7.09090909090909  L 56 21.27272727272727  L 58.689655172413794 21.27272727272727  C 60.816091954022994 21.27272727272727  62.623563218390814 20.58333333333333  64.11206896551724 19.204545454545453  Z " stroke-width="0" stroke-dasharray="0" stroke="rgba(255, 255, 255, 0)" fill="none" transform="matrix(1 0 0 1 66 636 )" class="stroke" mask="url(#Clip526)" />
    <path d="M 2.990301724137931 49.23011363636364  C 0.9967672413793103 47.38352272727273  0 45.15530303030303  0 42  L 71.44827586206897 42  C 71.44827586206897 45.15530303030303  70.45150862068965 47.38352272727273  68.45797413793103 49.23011363636364  C 66.46443965517241 51.07670454545455  64.05890804597702 52  61.241379310344826 52  L 10.206896551724137 52  C 7.389367816091955 52  4.9838362068965525 51.07670454545455  2.990301724137931 49.23011363636364  Z " stroke-width="0" stroke-dasharray="0" stroke="rgba(255, 255, 255, 0)" fill="none" transform="matrix(1 0 0 1 66 636 )" class="stroke" mask="url(#Clip526)" />
    <path d="M 69.5145474137931 4.1548295454545485  C 72.50484913793103 6.92471590909091  74 10.267045454545451  74 14.18181818181818  C 74 18.09659090909091  72.50484913793103 21.438920454545453  69.5145474137931 24.20880681818182  C 66.52424568965517 26.97869318181818  62.91594827586207 28.36363636363636  58.689655172413794 28.36363636363636  L 56.137931034482754 28.36363636363636  L 56.137931034482754 29.545454545454543  C 56.137931034482754 31.81060606060606  55.26077586206897 33.75568181818182  53.50646551724138 35.38068181818182  C 51.752155172413794 37.00568181818182  49.65229885057472 37.81818181818182  47.20689655172414 37  L 19.13793103448276 37  C 16.692528735632184 37.81818181818182  14.592672413793105 37.00568181818182  12.838362068965518 35.38068181818182  C 11.08405172413793 33.75568181818182  10.206896551724137 31.81060606060606  11 29.545454545454543  L 11 2.3636363636363615  C 10.206896551724137 1.7234848484848455  10.459410919540232 1.1695075757575686  10.964439655172413 0.7017045454545481  C 11.469468390804598 0.23390151515151025  12.067528735632186 0  12.758620689655173 0  L 58.689655172413794 0  C 62.91594827586207 0  66.52424568965517 1.3849431818181808  69.5145474137931 4.1548295454545485  Z " stroke-width="0" stroke-dasharray="0" stroke="rgba(255, 255, 255, 0)" fill="none" transform="matrix(1 0 0 1 66 636 )" class="stroke" mask="url(#Clip526)" />
  </g>
</svg>