<?xml version="1.0" encoding="utf-8"?>
<svg version="1.1" xmlns:xlink="http://www.w3.org/1999/xlink" width="74px" height="60px" xmlns="http://www.w3.org/2000/svg">
  <defs>
    <pattern id="BGPattern" patternUnits="userSpaceOnUse" alignment="0 0" imageRepeat="None" />
    <mask fill="white" id="Clip527">
      <path d="M 68.70052083333333 36.580528846153854  C 68.94461805555555 36.35216346153846  69.06666666666666 36.081730769230774  69 35.76923076923077  L 69 5.769230769230768  C 69.06666666666666 5.4567307692307665  68.94461805555555 5.186298076923073  68.70052083333333 4.957932692307693  C 68.45642361111112 4.729567307692301  68.16736111111112 4.615384615384612  67.83333333333333 5  L 6.166666666666666 5  C 5.83263888888889 4.615384615384612  5.54357638888889 4.729567307692301  5.299479166666666 4.957932692307693  C 5.055381944444445 5.186298076923073  4.933333333333334 5.4567307692307665  5 5.769230769230768  L 5 35.76923076923077  C 4.933333333333334 36.081730769230774  5.055381944444445 36.35216346153846  5.299479166666666 36.580528846153854  C 5.54357638888889 36.808894230769226  5.83263888888889 36.92307692307693  6.166666666666666 37  L 67.83333333333333 37  C 68.16736111111112 36.92307692307693  68.45642361111112 36.808894230769226  68.70052083333333 36.580528846153854  Z M 72.18854166666667 1.6947115384615374  C 73.39618055555556 2.824519230769229  74.00000000000001 4.182692307692307  74 5.769230769230768  L 74 45  C 74.00000000000001 46.58653846153846  73.39618055555556 47.94471153846153  72.18854166666667 49.07451923076923  C 70.98090277777779 50.20432692307692  69.52916666666667 50.76923076923077  67.83333333333333 50  L 46.86666666666667 50  C 46.86666666666667 51.65865384615385  47.07222222222223 52.59014423076923  47.483333333333334 53.56370192307693  C 47.894444444444446 54.53725961538461  48.305555555555564 55.390625  48.71666666666667 56.12379807692307  C 49.12777777777779 56.85697115384615  49.33333333333333 57.37980769230769  49.33333333333333 57.69230769230769  C 49.33333333333333 58.31730769230769  49.08923611111111 58.85817307692307  48.60104166666667 59.31490384615385  C 48.11284722222223 59.77163461538462  47.53472222222223 60  46.86666666666667 60  L 27.133333333333333 60  C 26.465277777777782 60  25.887152777777782 59.77163461538462  25.398958333333333 59.31490384615385  C 24.910763888888887 58.85817307692307  24.666666666666664 58.31730769230769  24.666666666666664 57.69230769230769  C 24.666666666666664 57.35576923076923  24.872222222222224 56.82692307692307  25.283333333333335 56.10576923076923  C 25.694444444444446 55.38461538461539  26.105555555555558 54.54326923076923  26.516666666666666 53.58173076923077  C 26.92777777777778 52.62019230769231  27.133333333333333 51.68269230769231  27.133333333333333 50  L 6.166666666666666 50  C 4.470833333333333 50.76923076923077  3.0190972222222228 50.20432692307692  1.8114583333333334 49.07451923076923  C 0.6038194444444445 47.94471153846153  0 46.58653846153846  0 45  L 0 5.769230769230768  C 0 4.182692307692307  0.6038194444444445 2.824519230769229  1.8114583333333334 1.6947115384615374  C 3.0190972222222228 0.5649038461538458  4.470833333333333 0  6.166666666666666 0  L 67.83333333333333 0  C 69.52916666666667 0  70.98090277777779 0.5649038461538458  72.18854166666667 1.6947115384615374  Z " fill-rule="evenodd" />
    </mask>
  </defs>
  <g transform="matrix(1 0 0 1 -441 -626 )">
    <path d="M 68.70052083333333 36.580528846153854  C 68.94461805555555 36.35216346153846  69.06666666666666 36.081730769230774  69 35.76923076923077  L 69 5.769230769230768  C 69.06666666666666 5.4567307692307665  68.94461805555555 5.186298076923073  68.70052083333333 4.957932692307693  C 68.45642361111112 4.729567307692301  68.16736111111112 4.615384615384612  67.83333333333333 5  L 6.166666666666666 5  C 5.83263888888889 4.615384615384612  5.54357638888889 4.729567307692301  5.299479166666666 4.957932692307693  C 5.055381944444445 5.186298076923073  4.933333333333334 5.4567307692307665  5 5.769230769230768  L 5 35.76923076923077  C 4.933333333333334 36.081730769230774  5.055381944444445 36.35216346153846  5.299479166666666 36.580528846153854  C 5.54357638888889 36.808894230769226  5.83263888888889 36.92307692307693  6.166666666666666 37  L 67.83333333333333 37  C 68.16736111111112 36.92307692307693  68.45642361111112 36.808894230769226  68.70052083333333 36.580528846153854  Z M 72.18854166666667 1.6947115384615374  C 73.39618055555556 2.824519230769229  74.00000000000001 4.182692307692307  74 5.769230769230768  L 74 45  C 74.00000000000001 46.58653846153846  73.39618055555556 47.94471153846153  72.18854166666667 49.07451923076923  C 70.98090277777779 50.20432692307692  69.52916666666667 50.76923076923077  67.83333333333333 50  L 46.86666666666667 50  C 46.86666666666667 51.65865384615385  47.07222222222223 52.59014423076923  47.483333333333334 53.56370192307693  C 47.894444444444446 54.53725961538461  48.305555555555564 55.390625  48.71666666666667 56.12379807692307  C 49.12777777777779 56.85697115384615  49.33333333333333 57.37980769230769  49.33333333333333 57.69230769230769  C 49.33333333333333 58.31730769230769  49.08923611111111 58.85817307692307  48.60104166666667 59.31490384615385  C 48.11284722222223 59.77163461538462  47.53472222222223 60  46.86666666666667 60  L 27.133333333333333 60  C 26.465277777777782 60  25.887152777777782 59.77163461538462  25.398958333333333 59.31490384615385  C 24.910763888888887 58.85817307692307  24.666666666666664 58.31730769230769  24.666666666666664 57.69230769230769  C 24.666666666666664 57.35576923076923  24.872222222222224 56.82692307692307  25.283333333333335 56.10576923076923  C 25.694444444444446 55.38461538461539  26.105555555555558 54.54326923076923  26.516666666666666 53.58173076923077  C 26.92777777777778 52.62019230769231  27.133333333333333 51.68269230769231  27.133333333333333 50  L 6.166666666666666 50  C 4.470833333333333 50.76923076923077  3.0190972222222228 50.20432692307692  1.8114583333333334 49.07451923076923  C 0.6038194444444445 47.94471153846153  0 46.58653846153846  0 45  L 0 5.769230769230768  C 0 4.182692307692307  0.6038194444444445 2.824519230769229  1.8114583333333334 1.6947115384615374  C 3.0190972222222228 0.5649038461538458  4.470833333333333 0  6.166666666666666 0  L 67.83333333333333 0  C 69.52916666666667 0  70.98090277777779 0.5649038461538458  72.18854166666667 1.6947115384615374  Z " fill-rule="nonzero" fill="rgba(0, 0, 0, 1)" stroke="none" transform="matrix(1 0 0 1 441 626 )" class="fill" />
    <path d="M 68.70052083333333 36.580528846153854  C 68.94461805555555 36.35216346153846  69.06666666666666 36.081730769230774  69 35.76923076923077  L 69 5.769230769230768  C 69.06666666666666 5.4567307692307665  68.94461805555555 5.186298076923073  68.70052083333333 4.957932692307693  C 68.45642361111112 4.729567307692301  68.16736111111112 4.615384615384612  67.83333333333333 5  L 6.166666666666666 5  C 5.83263888888889 4.615384615384612  5.54357638888889 4.729567307692301  5.299479166666666 4.957932692307693  C 5.055381944444445 5.186298076923073  4.933333333333334 5.4567307692307665  5 5.769230769230768  L 5 35.76923076923077  C 4.933333333333334 36.081730769230774  5.055381944444445 36.35216346153846  5.299479166666666 36.580528846153854  C 5.54357638888889 36.808894230769226  5.83263888888889 36.92307692307693  6.166666666666666 37  L 67.83333333333333 37  C 68.16736111111112 36.92307692307693  68.45642361111112 36.808894230769226  68.70052083333333 36.580528846153854  Z " stroke-width="0" stroke-dasharray="0" stroke="rgba(255, 255, 255, 0)" fill="none" transform="matrix(1 0 0 1 441 626 )" class="stroke" mask="url(#Clip527)" />
    <path d="M 72.18854166666667 1.6947115384615374  C 73.39618055555556 2.824519230769229  74.00000000000001 4.182692307692307  74 5.769230769230768  L 74 45  C 74.00000000000001 46.58653846153846  73.39618055555556 47.94471153846153  72.18854166666667 49.07451923076923  C 70.98090277777779 50.20432692307692  69.52916666666667 50.76923076923077  67.83333333333333 50  L 46.86666666666667 50  C 46.86666666666667 51.65865384615385  47.07222222222223 52.59014423076923  47.483333333333334 53.56370192307693  C 47.894444444444446 54.53725961538461  48.305555555555564 55.390625  48.71666666666667 56.12379807692307  C 49.12777777777779 56.85697115384615  49.33333333333333 57.37980769230769  49.33333333333333 57.69230769230769  C 49.33333333333333 58.31730769230769  49.08923611111111 58.85817307692307  48.60104166666667 59.31490384615385  C 48.11284722222223 59.77163461538462  47.53472222222223 60  46.86666666666667 60  L 27.133333333333333 60  C 26.465277777777782 60  25.887152777777782 59.77163461538462  25.398958333333333 59.31490384615385  C 24.910763888888887 58.85817307692307  24.666666666666664 58.31730769230769  24.666666666666664 57.69230769230769  C 24.666666666666664 57.35576923076923  24.872222222222224 56.82692307692307  25.283333333333335 56.10576923076923  C 25.694444444444446 55.38461538461539  26.105555555555558 54.54326923076923  26.516666666666666 53.58173076923077  C 26.92777777777778 52.62019230769231  27.133333333333333 51.68269230769231  27.133333333333333 50  L 6.166666666666666 50  C 4.470833333333333 50.76923076923077  3.0190972222222228 50.20432692307692  1.8114583333333334 49.07451923076923  C 0.6038194444444445 47.94471153846153  0 46.58653846153846  0 45  L 0 5.769230769230768  C 0 4.182692307692307  0.6038194444444445 2.824519230769229  1.8114583333333334 1.6947115384615374  C 3.0190972222222228 0.5649038461538458  4.470833333333333 0  6.166666666666666 0  L 67.83333333333333 0  C 69.52916666666667 0  70.98090277777779 0.5649038461538458  72.18854166666667 1.6947115384615374  Z " stroke-width="0" stroke-dasharray="0" stroke="rgba(255, 255, 255, 0)" fill="none" transform="matrix(1 0 0 1 441 626 )" class="stroke" mask="url(#Clip527)" />
  </g>
</svg>