<?xml version="1.0" encoding="utf-8"?>
<svg version="1.1" xmlns:xlink="http://www.w3.org/1999/xlink" width="74px" height="58px" xmlns="http://www.w3.org/2000/svg">
  <defs>
    <pattern id="BGPattern" patternUnits="userSpaceOnUse" alignment="0 0" imageRepeat="None" />
    <mask fill="white" id="Clip528">
      <path d="M 71.06490384615384 13.264204545454543  C 73.02163461538461 15.076704545454543  74 17.246212121212114  74 19.772727272727273  L 74 48.77272727272727  C 74 51.29924242424242  73.02163461538461 53.46875  71.06490384615384 55.28125  C 69.10817307692308 57.09375  66.76602564102565 58  64.03846153846155 58  L 9.961538461538462 58  C 7.23397435897436 58  4.891826923076924 57.09375  2.9350961538461537 55.28125  C 0.9783653846153846 53.46875  0 51.29924242424242  0 48.77272727272727  L 0 9.227272727272725  C 0 6.700757575757566  0.9783653846153846 4.53125  2.9350961538461537 2.71875  C 4.891826923076924 0.90625  7.23397435897436 0  9.961538461538462 0  L 24.192307692307693 0  C 26.9198717948718 0  29.26201923076923 0.90625  31.21875 2.71875  C 33.175480769230774 4.53125  34.15384615384615 6.700757575757566  34.15384615384615 9.227272727272725  L 34.15384615384615 11  L 64.03846153846155 11  C 66.76602564102565 10.545454545454543  69.10817307692308 11.451704545454543  71.06490384615384 13.264204545454543  Z " fill-rule="evenodd" />
    </mask>
  </defs>
  <g transform="matrix(1 0 0 1 -813 -680 )">
    <path d="M 71.06490384615384 13.264204545454543  C 73.02163461538461 15.076704545454543  74 17.246212121212114  74 19.772727272727273  L 74 48.77272727272727  C 74 51.29924242424242  73.02163461538461 53.46875  71.06490384615384 55.28125  C 69.10817307692308 57.09375  66.76602564102565 58  64.03846153846155 58  L 9.961538461538462 58  C 7.23397435897436 58  4.891826923076924 57.09375  2.9350961538461537 55.28125  C 0.9783653846153846 53.46875  0 51.29924242424242  0 48.77272727272727  L 0 9.227272727272725  C 0 6.700757575757566  0.9783653846153846 4.53125  2.9350961538461537 2.71875  C 4.891826923076924 0.90625  7.23397435897436 0  9.961538461538462 0  L 24.192307692307693 0  C 26.9198717948718 0  29.26201923076923 0.90625  31.21875 2.71875  C 33.175480769230774 4.53125  34.15384615384615 6.700757575757566  34.15384615384615 9.227272727272725  L 34.15384615384615 11  L 64.03846153846155 11  C 66.76602564102565 10.545454545454543  69.10817307692308 11.451704545454543  71.06490384615384 13.264204545454543  Z " fill-rule="nonzero" fill="rgba(0, 0, 0, 1)" stroke="none" transform="matrix(1 0 0 1 813 680 )" class="fill" />
    <path d="M 71.06490384615384 13.264204545454543  C 73.02163461538461 15.076704545454543  74 17.246212121212114  74 19.772727272727273  L 74 48.77272727272727  C 74 51.29924242424242  73.02163461538461 53.46875  71.06490384615384 55.28125  C 69.10817307692308 57.09375  66.76602564102565 58  64.03846153846155 58  L 9.961538461538462 58  C 7.23397435897436 58  4.891826923076924 57.09375  2.9350961538461537 55.28125  C 0.9783653846153846 53.46875  0 51.29924242424242  0 48.77272727272727  L 0 9.227272727272725  C 0 6.700757575757566  0.9783653846153846 4.53125  2.9350961538461537 2.71875  C 4.891826923076924 0.90625  7.23397435897436 0  9.961538461538462 0  L 24.192307692307693 0  C 26.9198717948718 0  29.26201923076923 0.90625  31.21875 2.71875  C 33.175480769230774 4.53125  34.15384615384615 6.700757575757566  34.15384615384615 9.227272727272725  L 34.15384615384615 11  L 64.03846153846155 11  C 66.76602564102565 10.545454545454543  69.10817307692308 11.451704545454543  71.06490384615384 13.264204545454543  Z " stroke-width="0" stroke-dasharray="0" stroke="rgba(255, 255, 255, 0)" fill="none" transform="matrix(1 0 0 1 813 680 )" class="stroke" mask="url(#Clip528)" />
  </g>
</svg>