<?xml version="1.0" encoding="utf-8"?>
<svg version="1.1" xmlns:xlink="http://www.w3.org/1999/xlink" width="161px" height="54px" xmlns="http://www.w3.org/2000/svg">
  <defs>
    <pattern id="BGPattern" patternUnits="userSpaceOnUse" alignment="0 0" imageRepeat="None" />
    <mask fill="white" id="Clip529">
      <path d="M 0 42  L 0 12  C 0 5.2799999999999985  5.279999999999999 0  12 0  L 149 0  C 155.72 0  161 5.2799999999999985  161 12  L 161 42  C 161 48.72  155.72 54  149 54  L 12 54  C 5.279999999999999 54  0 48.72  0 42  Z " fill-rule="evenodd" />
    </mask>
  </defs>
  <g transform="matrix(1 0 0 1 -636 -1495 )">
    <path d="M 0 42  L 0 12  C 0 5.2799999999999985  5.279999999999999 0  12 0  L 149 0  C 155.72 0  161 5.2799999999999985  161 12  L 161 42  C 161 48.72  155.72 54  149 54  L 12 54  C 5.279999999999999 54  0 48.72  0 42  Z " fill-rule="nonzero" fill="rgba(255, 255, 255, 1)" stroke="none" transform="matrix(1 0 0 1 636 1495 )" class="fill" />
    <path d="M 0 42  L 0 12  C 0 5.2799999999999985  5.279999999999999 0  12 0  L 149 0  C 155.72 0  161 5.2799999999999985  161 12  L 161 42  C 161 48.72  155.72 54  149 54  L 12 54  C 5.279999999999999 54  0 48.72  0 42  Z " stroke-width="2" stroke-dasharray="3,1" stroke="rgba(170, 170, 170, 1)" fill="none" transform="matrix(1 0 0 1 636 1495 )" class="stroke" mask="url(#Clip529)" />
  </g>
</svg>