<?xml version="1.0" encoding="utf-8"?>
<svg version="1.1" xmlns:xlink="http://www.w3.org/1999/xlink" width="30px" height="20px" xmlns="http://www.w3.org/2000/svg">
  <defs>
    <pattern id="BGPattern" patternUnits="userSpaceOnUse" alignment="0 0" imageRepeat="None" />
    <mask fill="white" id="Clip662">
      <path d="M 27.69810267857143 18.046875  C 27.80412946428572 17.956912878787882  27.857142857142858 17.85037878787879  27.857142857142858 17.727272727272727  L 27.857142857142858 6.818181818181818  C 27.500000000000007 7.159090909090908  27.114955357142865 7.471590909090908  26.70200892857143 7.755681818181818  C 23.7109375 9.706439393939393  21.333705357142858 11.306818181818183  19.5703125 12.556818181818183  C 19.00111607142857 12.964015151515149  18.53794642857143 13.28125  18.18080357142857 13.508522727272727  C 17.823660714285715 13.735795454545453  17.340959821428577 13.965435606060606  16.732700892857142 14.197443181818183  C 16.124441964285715 14.429450757575758  15.552455357142858 14.545454545454547  15.016741071428571 14.545454545454547  L 15 14.545454545454547  L 14.983258928571429 14.545454545454547  C 14.447544642857144 14.545454545454547  13.875558035714286 14.429450757575758  13.267299107142856 14.197443181818183  C 12.659040178571429 13.965435606060606  12.176339285714286 13.735795454545453  11.819196428571429 13.508522727272727  C 11.462053571428573 13.28125  10.998883928571429 12.964015151515149  10.4296875 12.556818181818183  C 8.666294642857144 11.306818181818183  6.289062500000002 9.706439393939393  3.297991071428571 7.755681818181818  C 2.8850446428571432 7.471590909090908  2.5000000000000004 7.159090909090908  2.142857142857143 6.818181818181818  L 2.142857142857143 17.727272727272727  C 2.142857142857143 17.85037878787879  2.195870535714286 17.956912878787882  2.301897321428571 18.046875  C 2.407924107142857 18.136837121212118  2.5334821428571432 18.18181818181818  2.678571428571429 18  L 27.32142857142857 18  C 27.466517857142858 18.18181818181818  27.592075892857146 18.136837121212118  27.69810267857143 18.046875  Z M 27.07868303571429 4.666193181818182  C 27.59765625 3.979640151515149  27.857142857142858 3.3570075757575757  27.857142857142858 2.798295454545454  L 27.857142857142858 2.642045454545454  L 27.857142857142858 2.4502840909090917  C 27.857142857142858 2.4502840909090917  27.85435267857143 2.3887310606060574  27.84877232142857 2.265625  C 27.843191964285715 2.142518939393938  27.826450892857146 2.0833333333333304  27.798549107142858 2.088068181818181  C 27.770647321428577 2.09280303030303  27.739955357142858 2.0501893939393923  27.70647321428571 1.960227272727273  C 27.67299107142857 1.8702651515151492  27.622767857142858 1.8347537878787867  27.55580357142857 1.8536931818181812  C 27.48883928571429 1.8726325757575757  27.41071428571429 1.8607954545454541  27.32142857142857 2  L 2.678571428571429 2  C 2.5334821428571432 1.8181818181818188  2.407924107142857 1.8631628787878762  2.301897321428571 1.953125  C 2.195870535714286 2.0430871212121193  2.142857142857143 2.149621212121211  2.142857142857143 2.272727272727273  C 2.142857142857143 3.8636363636363646  2.963169642857143 5.20833333333333  4.603794642857142 6.306818181818182  C 6.757812500000002 7.746212121212119  8.995535714285715 9.247159090909092  11.316964285714285 10.809659090909092  C 11.383928571428571 10.857007575757574  11.579241071428573 10.996685606060606  11.902901785714285 11.228693181818183  C 12.226562500000002 11.460700757575758  12.483258928571429 11.638257575757574  12.672991071428571 11.761363636363637  C 12.862723214285717 11.884469696969695  13.11104910714286 12.033617424242422  13.41796875 12.208806818181817  C 13.724888392857142 12.383996212121211  14.006696428571429 12.514204545454547  14.263392857142856 12.599431818181817  C 14.520089285714286 12.684659090909092  14.760044642857144 12.727272727272727  14.983258928571429 12.727272727272727  L 15 12.727272727272727  L 15.016741071428571 12.727272727272727  C 15.23995535714286 12.727272727272727  15.479910714285715 12.684659090909092  15.736607142857142 12.599431818181817  C 15.993303571428575 12.514204545454547  16.275111607142858 12.383996212121211  16.58203125 12.208806818181817  C 16.888950892857142 12.033617424242422  17.137276785714285 11.884469696969695  17.32700892857143 11.761363636363637  C 17.516741071428577 11.638257575757574  17.773437500000004 11.460700757575758  18.09709821428571 11.228693181818183  C 18.42075892857143 10.996685606060606  18.61607142857143 10.857007575757574  18.68303571428571 10.809659090909092  C 21.004464285714285 9.247159090909092  23.2421875 7.746212121212119  25.396205357142858 6.306818181818182  C 25.99888392857143 5.899621212121211  26.55970982142857 5.352746212121211  27.07868303571429 4.666193181818182  Z M 29.213169642857142 0.6676136363636354  C 29.73772321428572 1.1126893939393923  30 1.647727272727273  30 2.272727272727273  L 30 17.727272727272727  C 30 18.352272727272727  29.73772321428572 18.88731060606061  29.213169642857142 19.332386363636363  C 28.688616071428577 19.777462121212118  28.05803571428572 20  27.32142857142857 20  L 2.678571428571429 20  C 1.9419642857142858 20  1.3113839285714286 19.777462121212118  0.7868303571428572 19.332386363636363  C 0.2622767857142857 18.88731060606061  0 18.352272727272727  0 17.727272727272727  L 0 2.272727272727273  C 0 1.647727272727273  0.2622767857142857 1.1126893939393923  0.7868303571428572 0.6676136363636354  C 1.3113839285714286 0.22253787878787623  1.9419642857142858 0  2.678571428571429 0  L 27.32142857142857 0  C 28.05803571428572 0  28.688616071428577 0.22253787878787623  29.213169642857142 0.6676136363636354  Z " fill-rule="evenodd" />
    </mask>
  </defs>
  <g transform="matrix(1 0 0 1 -462 -1493 )">
    <path d="M 27.69810267857143 18.046875  C 27.80412946428572 17.956912878787882  27.857142857142858 17.85037878787879  27.857142857142858 17.727272727272727  L 27.857142857142858 6.818181818181818  C 27.500000000000007 7.159090909090908  27.114955357142865 7.471590909090908  26.70200892857143 7.755681818181818  C 23.7109375 9.706439393939393  21.333705357142858 11.306818181818183  19.5703125 12.556818181818183  C 19.00111607142857 12.964015151515149  18.53794642857143 13.28125  18.18080357142857 13.508522727272727  C 17.823660714285715 13.735795454545453  17.340959821428577 13.965435606060606  16.732700892857142 14.197443181818183  C 16.124441964285715 14.429450757575758  15.552455357142858 14.545454545454547  15.016741071428571 14.545454545454547  L 15 14.545454545454547  L 14.983258928571429 14.545454545454547  C 14.447544642857144 14.545454545454547  13.875558035714286 14.429450757575758  13.267299107142856 14.197443181818183  C 12.659040178571429 13.965435606060606  12.176339285714286 13.735795454545453  11.819196428571429 13.508522727272727  C 11.462053571428573 13.28125  10.998883928571429 12.964015151515149  10.4296875 12.556818181818183  C 8.666294642857144 11.306818181818183  6.289062500000002 9.706439393939393  3.297991071428571 7.755681818181818  C 2.8850446428571432 7.471590909090908  2.5000000000000004 7.159090909090908  2.142857142857143 6.818181818181818  L 2.142857142857143 17.727272727272727  C 2.142857142857143 17.85037878787879  2.195870535714286 17.956912878787882  2.301897321428571 18.046875  C 2.407924107142857 18.136837121212118  2.5334821428571432 18.18181818181818  2.678571428571429 18  L 27.32142857142857 18  C 27.466517857142858 18.18181818181818  27.592075892857146 18.136837121212118  27.69810267857143 18.046875  Z M 27.07868303571429 4.666193181818182  C 27.59765625 3.979640151515149  27.857142857142858 3.3570075757575757  27.857142857142858 2.798295454545454  L 27.857142857142858 2.642045454545454  L 27.857142857142858 2.4502840909090917  C 27.857142857142858 2.4502840909090917  27.85435267857143 2.3887310606060574  27.84877232142857 2.265625  C 27.843191964285715 2.142518939393938  27.826450892857146 2.0833333333333304  27.798549107142858 2.088068181818181  C 27.770647321428577 2.09280303030303  27.739955357142858 2.0501893939393923  27.70647321428571 1.960227272727273  C 27.67299107142857 1.8702651515151492  27.622767857142858 1.8347537878787867  27.55580357142857 1.8536931818181812  C 27.48883928571429 1.8726325757575757  27.41071428571429 1.8607954545454541  27.32142857142857 2  L 2.678571428571429 2  C 2.5334821428571432 1.8181818181818188  2.407924107142857 1.8631628787878762  2.301897321428571 1.953125  C 2.195870535714286 2.0430871212121193  2.142857142857143 2.149621212121211  2.142857142857143 2.272727272727273  C 2.142857142857143 3.8636363636363646  2.963169642857143 5.20833333333333  4.603794642857142 6.306818181818182  C 6.757812500000002 7.746212121212119  8.995535714285715 9.247159090909092  11.316964285714285 10.809659090909092  C 11.383928571428571 10.857007575757574  11.579241071428573 10.996685606060606  11.902901785714285 11.228693181818183  C 12.226562500000002 11.460700757575758  12.483258928571429 11.638257575757574  12.672991071428571 11.761363636363637  C 12.862723214285717 11.884469696969695  13.11104910714286 12.033617424242422  13.41796875 12.208806818181817  C 13.724888392857142 12.383996212121211  14.006696428571429 12.514204545454547  14.263392857142856 12.599431818181817  C 14.520089285714286 12.684659090909092  14.760044642857144 12.727272727272727  14.983258928571429 12.727272727272727  L 15 12.727272727272727  L 15.016741071428571 12.727272727272727  C 15.23995535714286 12.727272727272727  15.479910714285715 12.684659090909092  15.736607142857142 12.599431818181817  C 15.993303571428575 12.514204545454547  16.275111607142858 12.383996212121211  16.58203125 12.208806818181817  C 16.888950892857142 12.033617424242422  17.137276785714285 11.884469696969695  17.32700892857143 11.761363636363637  C 17.516741071428577 11.638257575757574  17.773437500000004 11.460700757575758  18.09709821428571 11.228693181818183  C 18.42075892857143 10.996685606060606  18.61607142857143 10.857007575757574  18.68303571428571 10.809659090909092  C 21.004464285714285 9.247159090909092  23.2421875 7.746212121212119  25.396205357142858 6.306818181818182  C 25.99888392857143 5.899621212121211  26.55970982142857 5.352746212121211  27.07868303571429 4.666193181818182  Z M 29.213169642857142 0.6676136363636354  C 29.73772321428572 1.1126893939393923  30 1.647727272727273  30 2.272727272727273  L 30 17.727272727272727  C 30 18.352272727272727  29.73772321428572 18.88731060606061  29.213169642857142 19.332386363636363  C 28.688616071428577 19.777462121212118  28.05803571428572 20  27.32142857142857 20  L 2.678571428571429 20  C 1.9419642857142858 20  1.3113839285714286 19.777462121212118  0.7868303571428572 19.332386363636363  C 0.2622767857142857 18.88731060606061  0 18.352272727272727  0 17.727272727272727  L 0 2.272727272727273  C 0 1.647727272727273  0.2622767857142857 1.1126893939393923  0.7868303571428572 0.6676136363636354  C 1.3113839285714286 0.22253787878787623  1.9419642857142858 0  2.678571428571429 0  L 27.32142857142857 0  C 28.05803571428572 0  28.688616071428577 0.22253787878787623  29.213169642857142 0.6676136363636354  Z " fill-rule="nonzero" fill="rgba(255, 255, 255, 1)" stroke="none" transform="matrix(1 0 0 1 462 1493 )" class="fill" />
    <path d="M 27.69810267857143 18.046875  C 27.80412946428572 17.956912878787882  27.857142857142858 17.85037878787879  27.857142857142858 17.727272727272727  L 27.857142857142858 6.818181818181818  C 27.500000000000007 7.159090909090908  27.114955357142865 7.471590909090908  26.70200892857143 7.755681818181818  C 23.7109375 9.706439393939393  21.333705357142858 11.306818181818183  19.5703125 12.556818181818183  C 19.00111607142857 12.964015151515149  18.53794642857143 13.28125  18.18080357142857 13.508522727272727  C 17.823660714285715 13.735795454545453  17.340959821428577 13.965435606060606  16.732700892857142 14.197443181818183  C 16.124441964285715 14.429450757575758  15.552455357142858 14.545454545454547  15.016741071428571 14.545454545454547  L 15 14.545454545454547  L 14.983258928571429 14.545454545454547  C 14.447544642857144 14.545454545454547  13.875558035714286 14.429450757575758  13.267299107142856 14.197443181818183  C 12.659040178571429 13.965435606060606  12.176339285714286 13.735795454545453  11.819196428571429 13.508522727272727  C 11.462053571428573 13.28125  10.998883928571429 12.964015151515149  10.4296875 12.556818181818183  C 8.666294642857144 11.306818181818183  6.289062500000002 9.706439393939393  3.297991071428571 7.755681818181818  C 2.8850446428571432 7.471590909090908  2.5000000000000004 7.159090909090908  2.142857142857143 6.818181818181818  L 2.142857142857143 17.727272727272727  C 2.142857142857143 17.85037878787879  2.195870535714286 17.956912878787882  2.301897321428571 18.046875  C 2.407924107142857 18.136837121212118  2.5334821428571432 18.18181818181818  2.678571428571429 18  L 27.32142857142857 18  C 27.466517857142858 18.18181818181818  27.592075892857146 18.136837121212118  27.69810267857143 18.046875  Z " stroke-width="0" stroke-dasharray="0" stroke="rgba(255, 255, 255, 0)" fill="none" transform="matrix(1 0 0 1 462 1493 )" class="stroke" mask="url(#Clip662)" />
    <path d="M 27.07868303571429 4.666193181818182  C 27.59765625 3.979640151515149  27.857142857142858 3.3570075757575757  27.857142857142858 2.798295454545454  L 27.857142857142858 2.642045454545454  L 27.857142857142858 2.4502840909090917  C 27.857142857142858 2.4502840909090917  27.85435267857143 2.3887310606060574  27.84877232142857 2.265625  C 27.843191964285715 2.142518939393938  27.826450892857146 2.0833333333333304  27.798549107142858 2.088068181818181  C 27.770647321428577 2.09280303030303  27.739955357142858 2.0501893939393923  27.70647321428571 1.960227272727273  C 27.67299107142857 1.8702651515151492  27.622767857142858 1.8347537878787867  27.55580357142857 1.8536931818181812  C 27.48883928571429 1.8726325757575757  27.41071428571429 1.8607954545454541  27.32142857142857 2  L 2.678571428571429 2  C 2.5334821428571432 1.8181818181818188  2.407924107142857 1.8631628787878762  2.301897321428571 1.953125  C 2.195870535714286 2.0430871212121193  2.142857142857143 2.149621212121211  2.142857142857143 2.272727272727273  C 2.142857142857143 3.8636363636363646  2.963169642857143 5.20833333333333  4.603794642857142 6.306818181818182  C 6.757812500000002 7.746212121212119  8.995535714285715 9.247159090909092  11.316964285714285 10.809659090909092  C 11.383928571428571 10.857007575757574  11.579241071428573 10.996685606060606  11.902901785714285 11.228693181818183  C 12.226562500000002 11.460700757575758  12.483258928571429 11.638257575757574  12.672991071428571 11.761363636363637  C 12.862723214285717 11.884469696969695  13.11104910714286 12.033617424242422  13.41796875 12.208806818181817  C 13.724888392857142 12.383996212121211  14.006696428571429 12.514204545454547  14.263392857142856 12.599431818181817  C 14.520089285714286 12.684659090909092  14.760044642857144 12.727272727272727  14.983258928571429 12.727272727272727  L 15 12.727272727272727  L 15.016741071428571 12.727272727272727  C 15.23995535714286 12.727272727272727  15.479910714285715 12.684659090909092  15.736607142857142 12.599431818181817  C 15.993303571428575 12.514204545454547  16.275111607142858 12.383996212121211  16.58203125 12.208806818181817  C 16.888950892857142 12.033617424242422  17.137276785714285 11.884469696969695  17.32700892857143 11.761363636363637  C 17.516741071428577 11.638257575757574  17.773437500000004 11.460700757575758  18.09709821428571 11.228693181818183  C 18.42075892857143 10.996685606060606  18.61607142857143 10.857007575757574  18.68303571428571 10.809659090909092  C 21.004464285714285 9.247159090909092  23.2421875 7.746212121212119  25.396205357142858 6.306818181818182  C 25.99888392857143 5.899621212121211  26.55970982142857 5.352746212121211  27.07868303571429 4.666193181818182  Z " stroke-width="0" stroke-dasharray="0" stroke="rgba(255, 255, 255, 0)" fill="none" transform="matrix(1 0 0 1 462 1493 )" class="stroke" mask="url(#Clip662)" />
    <path d="M 29.213169642857142 0.6676136363636354  C 29.73772321428572 1.1126893939393923  30 1.647727272727273  30 2.272727272727273  L 30 17.727272727272727  C 30 18.352272727272727  29.73772321428572 18.88731060606061  29.213169642857142 19.332386363636363  C 28.688616071428577 19.777462121212118  28.05803571428572 20  27.32142857142857 20  L 2.678571428571429 20  C 1.9419642857142858 20  1.3113839285714286 19.777462121212118  0.7868303571428572 19.332386363636363  C 0.2622767857142857 18.88731060606061  0 18.352272727272727  0 17.727272727272727  L 0 2.272727272727273  C 0 1.647727272727273  0.2622767857142857 1.1126893939393923  0.7868303571428572 0.6676136363636354  C 1.3113839285714286 0.22253787878787623  1.9419642857142858 0  2.678571428571429 0  L 27.32142857142857 0  C 28.05803571428572 0  28.688616071428577 0.22253787878787623  29.213169642857142 0.6676136363636354  Z " stroke-width="0" stroke-dasharray="0" stroke="rgba(255, 255, 255, 0)" fill="none" transform="matrix(1 0 0 1 462 1493 )" class="stroke" mask="url(#Clip662)" />
  </g>
</svg>