<?xml version="1.0" encoding="utf-8"?>
<svg version="1.1" xmlns:xlink="http://www.w3.org/1999/xlink" width="79px" height="38px" xmlns="http://www.w3.org/2000/svg">
  <defs>
    <pattern id="BGPattern" patternUnits="userSpaceOnUse" alignment="0 0" imageRepeat="None" />
    <mask fill="white" id="Clip530">
      <path d="M 19 38  C 8.36 38  0 29.64  0 19  C 0 8.36  8.36 0  19 0  L 60.00000000000001 0  C 70.64 0  79 8.36  79 19  C 79 29.64  70.64 38  60.00000000000001 38  L 19 38  Z " fill-rule="evenodd" />
    </mask>
  </defs>
  <g transform="matrix(1 0 0 1 -249 -46 )">
    <path d="M 19 38  C 8.36 38  0 29.64  0 19  C 0 8.36  8.36 0  19 0  L 60.00000000000001 0  C 70.64 0  79 8.36  79 19  C 79 29.64  70.64 38  60.00000000000001 38  L 19 38  Z " fill-rule="nonzero" fill="rgba(255, 255, 255, 1)" stroke="none" transform="matrix(1 0 0 1 249 46 )" class="fill" />
    <path d="M 19 38  C 8.36 38  0 29.64  0 19  C 0 8.36  8.36 0  19 0  L 60.00000000000001 0  C 70.64 0  79 8.36  79 19  C 79 29.64  70.64 38  60.00000000000001 38  L 19 38  Z " stroke-width="2" stroke-dasharray="0" stroke="rgba(255, 255, 255, 0)" fill="none" transform="matrix(1 0 0 1 249 46 )" class="stroke" mask="url(#Clip530)" />
  </g>
</svg>